<svg id="displayArea" xmlns="http://www.w3.org/2000/svg" width="796" height="728" style="background-color: white;"><g transform="translate(50,10)"><g transform="translate(-0.5,698)" fill="none" font-size="10" font-family="sans-serif" text-anchor="middle"><path class="domain" stroke="#000" d="M0.5,6V0.5H731.5V6" style="stroke: black;"></path><g class="tick" opacity="1" transform="translate(20.99532710280374,0)"><line stroke="#000" y2="6" style="stroke-width: 1; opacity: 1; stroke: black;"></line><text fill="#000" y="9" dy="0.71em" style="fill: black;">-50</text></g><g class="tick" opacity="1" transform="translate(89.31308411214954,0)"><line stroke="#000" y2="6" style="stroke-width: 1; opacity: 1; stroke: black;"></line><text fill="#000" y="9" dy="0.71em" style="fill: black;">-40</text></g><g class="tick" opacity="1" transform="translate(157.63084112149534,0)"><line stroke="#000" y2="6" style="stroke-width: 1; opacity: 1; stroke: black;"></line><text fill="#000" y="9" dy="0.71em" style="fill: black;">-30</text></g><g class="tick" opacity="1" transform="translate(225.9485981308411,0)"><line stroke="#000" y2="6" style="stroke-width: 1; opacity: 1; stroke: black;"></line><text fill="#000" y="9" dy="0.71em" style="fill: black;">-20</text></g><g class="tick" opacity="1" transform="translate(294.26635514018693,0)"><line stroke="#000" y2="6" style="stroke-width: 1; opacity: 1; stroke: black;"></line><text fill="#000" y="9" dy="0.71em" style="fill: black;">-10</text></g><g class="tick" opacity="1" transform="translate(362.5841121495327,0)"><line stroke="#000" y2="6" style="stroke-width: 1; opacity: 1; stroke: black;"></line><text fill="#000" y="9" dy="0.71em" style="fill: black;">0</text></g><g class="tick" opacity="1" transform="translate(430.90186915887847,0)"><line stroke="#000" y2="6" style="stroke-width: 1; opacity: 1; stroke: black;"></line><text fill="#000" y="9" dy="0.71em" style="fill: black;">10</text></g><g class="tick" opacity="1" transform="translate(499.2196261682243,0)"><line stroke="#000" y2="6" style="stroke-width: 1; opacity: 1; stroke: black;"></line><text fill="#000" y="9" dy="0.71em" style="fill: black;">20</text></g><g class="tick" opacity="1" transform="translate(567.5373831775701,0)"><line stroke="#000" y2="6" style="stroke-width: 1; opacity: 1; stroke: black;"></line><text fill="#000" y="9" dy="0.71em" style="fill: black;">30</text></g><g class="tick" opacity="1" transform="translate(635.8551401869158,0)"><line stroke="#000" y2="6" style="stroke-width: 1; opacity: 1; stroke: black;"></line><text fill="#000" y="9" dy="0.71em" style="fill: black;">40</text></g><g class="tick" opacity="1" transform="translate(704.1728971962617,0)"><line stroke="#000" y2="6" style="stroke-width: 1; opacity: 1; stroke: black;"></line><text fill="#000" y="9" dy="0.71em" style="fill: black;">50</text></g></g><g transform="translate(0,-0.5)" fill="none" font-size="10" font-family="sans-serif" text-anchor="end"><path class="domain" stroke="#000" d="M-6,698.5H0.5V0.5H-6" style="stroke: black;"></path><g class="tick" opacity="1" transform="translate(0,691.656862745098)"><line stroke="#000" x2="-6" style="stroke-width: 1; opacity: 1; stroke: black;"></line><text fill="#000" x="-9" dy="0.32em" style="fill: black;">-50</text></g><g class="tick" opacity="1" transform="translate(0,623.2254901960785)"><line stroke="#000" x2="-6" style="stroke-width: 1; opacity: 1; stroke: black;"></line><text fill="#000" x="-9" dy="0.32em" style="fill: black;">-40</text></g><g class="tick" opacity="1" transform="translate(0,554.7941176470588)"><line stroke="#000" x2="-6" style="stroke-width: 1; opacity: 1; stroke: black;"></line><text fill="#000" x="-9" dy="0.32em" style="fill: black;">-30</text></g><g class="tick" opacity="1" transform="translate(0,486.3627450980392)"><line stroke="#000" x2="-6" style="stroke-width: 1; opacity: 1; stroke: black;"></line><text fill="#000" x="-9" dy="0.32em" style="fill: black;">-20</text></g><g class="tick" opacity="1" transform="translate(0,417.9313725490196)"><line stroke="#000" x2="-6" style="stroke-width: 1; opacity: 1; stroke: black;"></line><text fill="#000" x="-9" dy="0.32em" style="fill: black;">-10</text></g><g class="tick" opacity="1" transform="translate(0,349.5)"><line stroke="#000" x2="-6" style="stroke-width: 1; opacity: 1; stroke: black;"></line><text fill="#000" x="-9" dy="0.32em" style="fill: black;">0</text></g><g class="tick" opacity="1" transform="translate(0,281.0686274509804)"><line stroke="#000" x2="-6" style="stroke-width: 1; opacity: 1; stroke: black;"></line><text fill="#000" x="-9" dy="0.32em" style="fill: black;">10</text></g><g class="tick" opacity="1" transform="translate(0,212.63725490196083)"><line stroke="#000" x2="-6" style="stroke-width: 1; opacity: 1; stroke: black;"></line><text fill="#000" x="-9" dy="0.32em" style="fill: black;">20</text></g><g class="tick" opacity="1" transform="translate(0,144.20588235294122)"><line stroke="#000" x2="-6" style="stroke-width: 1; opacity: 1; stroke: black;"></line><text fill="#000" x="-9" dy="0.32em" style="fill: black;">30</text></g><g class="tick" opacity="1" transform="translate(0,75.77450980392155)"><line stroke="#000" x2="-6" style="stroke-width: 1; opacity: 1; stroke: black;"></line><text fill="#000" x="-9" dy="0.32em" style="fill: black;">40</text></g><g class="tick" opacity="1" transform="translate(0,7.34313725490199)"><line stroke="#000" x2="-6" style="stroke-width: 1; opacity: 1; stroke: black;"></line><text fill="#000" x="-9" dy="0.32em" style="fill: black;">50</text></g></g><defs><clipPath id="clip"><rect width="731" height="698" x="0" y="0"></rect></clipPath></defs><g clip-path="url(#clip)"><circle cx="348.42056074766356" cy="191.60784313725492" r="3" fill="black"></circle><circle cx="396.2429906542056" cy="328.4705882352941" r="3" fill="black"></circle><circle cx="690.0093457943925" cy="362.6862745098039" r="3" fill="black"></circle><circle cx="102.47663551401868" cy="643.2549019607843" r="3" fill="black"></circle><circle cx="567.0373831775701" cy="123.17647058823536" r="3" fill="black"></circle><circle cx="157.13084112149534" cy="41.058823529411825" r="3" fill="black"></circle><circle cx="280.10280373831773" cy="554.2941176470588" r="3" fill="black"></circle><circle cx="280.10280373831773" cy="431.11764705882354" r="3" fill="black"></circle><circle cx="437.23364485981307" cy="273.72549019607845" r="3" fill="black"></circle><circle cx="355.25233644859816" cy="554.2941176470588" r="3" fill="black"></circle><circle cx="61.48598130841121" cy="328.4705882352941" r="3" fill="black"></circle><circle cx="560.2056074766355" cy="458.4901960784314" r="3" fill="black"></circle><circle cx="157.13084112149534" cy="362.6862745098039" r="3" fill="black"></circle><circle cx="116.14018691588784" cy="602.1960784313726" r="3" fill="black"></circle><circle cx="444.0654205607476" cy="198.45098039215685" r="3" fill="black"></circle><circle cx="321.0934579439252" cy="663.7843137254902" r="3" fill="black"></circle><circle cx="259.607476635514" cy="417.4313725490196" r="3" fill="black"></circle><circle cx="109.30841121495327" cy="554.2941176470588" r="3" fill="black"></circle><circle cx="239.11214953271028" cy="355.843137254902" r="3" fill="black"></circle><circle cx="280.10280373831773" cy="390.05882352941177" r="3" fill="black"></circle><circle cx="136.6355140186916" cy="260.03921568627453" r="3" fill="black"></circle><circle cx="560.2056074766355" cy="314.78431372549016" r="3" fill="black"></circle><circle cx="266.4392523364486" cy="479.01960784313724" r="3" fill="black"></circle><circle cx="628.5233644859813" cy="629.5686274509803" r="3" fill="black"></circle><circle cx="259.607476635514" cy="136.86274509803923" r="3" fill="black"></circle><circle cx="587.5327102803739" cy="574.8235294117646" r="3" fill="black"></circle><circle cx="416.7383177570093" cy="417.4313725490196" r="3" fill="black"></circle><circle cx="122.97196261682242" cy="431.11764705882354" r="3" fill="black"></circle><circle cx="75.14953271028037" cy="307.94117647058823" r="3" fill="black"></circle><circle cx="102.47663551401868" cy="349" r="3" fill="black"></circle><circle cx="136.6355140186916" cy="355.843137254902" r="3" fill="black"></circle><circle cx="348.42056074766356" cy="116.33333333333326" r="3" fill="black"></circle><circle cx="464.56074766355135" cy="314.78431372549016" r="3" fill="black"></circle><circle cx="348.42056074766356" cy="109.49019607843138" r="3" fill="black"></circle><circle cx="608.0280373831775" cy="342.15686274509807" r="3" fill="black"></circle><circle cx="300.5981308411215" cy="191.60784313725492" r="3" fill="black"></circle><circle cx="61.48598130841121" cy="369.5294117647059" r="3" fill="black"></circle><circle cx="177.62616822429908" cy="691.156862745098" r="3" fill="black"></circle><circle cx="109.30841121495327" cy="212.13725490196083" r="3" fill="black"></circle><circle cx="170.79439252336448" cy="472.17647058823525" r="3" fill="black"></circle><circle cx="68.3177570093458" cy="567.9803921568628" r="3" fill="black"></circle><circle cx="519.214953271028" cy="609.0392156862745" r="3" fill="black"></circle><circle cx="34.1588785046729" cy="171.07843137254906" r="3" fill="black"></circle><circle cx="676.3457943925233" cy="636.4117647058823" r="3" fill="black"></circle><circle cx="300.5981308411215" cy="506.3921568627451" r="3" fill="black"></circle><circle cx="204.95327102803736" cy="526.921568627451" r="3" fill="black"></circle><circle cx="239.11214953271028" cy="526.921568627451" r="3" fill="black"></circle><circle cx="539.7102803738318" cy="157.39215686274508" r="3" fill="black"></circle><circle cx="177.62616822429908" cy="540.6078431372549" r="3" fill="black"></circle><circle cx="136.6355140186916" cy="581.6666666666666" r="3" fill="black"></circle><circle cx="457.7289719626168" cy="643.2549019607843" r="3" fill="black"></circle><circle cx="560.2056074766355" cy="27.372549019607845" r="3" fill="black"></circle><circle cx="368.91588785046724" cy="684.3137254901961" r="3" fill="black"></circle><circle cx="635.3551401869158" cy="677.4705882352941" r="3" fill="black"></circle><circle cx="409.9065420560747" cy="41.058823529411825" r="3" fill="black"></circle><circle cx="334.7570093457944" cy="554.2941176470588" r="3" fill="black"></circle><circle cx="690.0093457943925" cy="622.7254901960785" r="3" fill="black"></circle><circle cx="539.7102803738318" cy="526.921568627451" r="3" fill="black"></circle><circle cx="150.29906542056074" cy="663.7843137254902" r="3" fill="black"></circle><circle cx="471.39252336448595" cy="410.5882352941177" r="3" fill="black"></circle><circle cx="122.97196261682242" cy="410.5882352941177" r="3" fill="black"></circle><circle cx="532.8785046728972" cy="314.78431372549016" r="3" fill="black"></circle><circle cx="471.39252336448595" cy="677.4705882352941" r="3" fill="black"></circle><circle cx="437.23364485981307" cy="574.8235294117646" r="3" fill="black"></circle><circle cx="362.0841121495327" cy="663.7843137254902" r="3" fill="black"></circle><circle cx="457.7289719626168" cy="684.3137254901961" r="3" fill="black"></circle><circle cx="191.2897196261682" cy="164.23529411764707" r="3" fill="black"></circle><circle cx="136.6355140186916" cy="109.49019607843138" r="3" fill="black"></circle><circle cx="505.55140186915884" cy="198.45098039215685" r="3" fill="black"></circle><circle cx="669.5140186915888" cy="171.07843137254906" r="3" fill="black"></circle><circle cx="505.55140186915884" cy="102.64705882352939" r="3" fill="black"></circle><circle cx="608.0280373831775" cy="431.11764705882354" r="3" fill="black"></circle><circle cx="430.40186915887847" cy="287.4117647058823" r="3" fill="black"></circle><circle cx="266.4392523364486" cy="581.6666666666666" r="3" fill="black"></circle><circle cx="259.607476635514" cy="595.3529411764706" r="3" fill="black"></circle><circle cx="40.99065420560748" cy="629.5686274509803" r="3" fill="black"></circle><circle cx="232.28037383177568" cy="253.1960784313726" r="3" fill="black"></circle><circle cx="307.4299065420561" cy="177.92156862745094" r="3" fill="black"></circle><circle cx="601.196261682243" cy="109.49019607843138" r="3" fill="black"></circle><circle cx="532.8785046728972" cy="369.5294117647059" r="3" fill="black"></circle><circle cx="601.196261682243" cy="472.17647058823525" r="3" fill="black"></circle><circle cx="485.0560747663551" cy="212.13725490196083" r="3" fill="black"></circle><circle cx="327.9252336448598" cy="479.01960784313724" r="3" fill="black"></circle><circle cx="334.7570093457944" cy="184.76470588235293" r="3" fill="black"></circle><circle cx="512.3831775700934" cy="417.4313725490196" r="3" fill="black"></circle><circle cx="635.3551401869158" cy="177.92156862745094" r="3" fill="black"></circle><circle cx="170.79439252336448" cy="526.921568627451" r="3" fill="black"></circle><circle cx="75.14953271028037" cy="232.66666666666669" r="3" fill="black"></circle><circle cx="635.3551401869158" cy="95.8039215686274" r="3" fill="black"></circle><circle cx="116.14018691588784" cy="609.0392156862745" r="3" fill="black"></circle><circle cx="526.0467289719626" cy="54.74509803921569" r="3" fill="black"></circle><circle cx="471.39252336448595" cy="417.4313725490196" r="3" fill="black"></circle><circle cx="75.14953271028037" cy="588.5098039215686" r="3" fill="black"></circle><circle cx="485.0560747663551" cy="41.058823529411825" r="3" fill="black"></circle><circle cx="437.23364485981307" cy="574.8235294117646" r="3" fill="black"></circle><circle cx="655.8504672897196" cy="307.94117647058823" r="3" fill="black"></circle><circle cx="608.0280373831775" cy="567.9803921568628" r="3" fill="black"></circle><circle cx="252.77570093457942" cy="314.78431372549016" r="3" fill="black"></circle><circle cx="259.607476635514" cy="34.215686274509835" r="3" fill="black"></circle><circle cx="409.9065420560747" cy="670.6274509803922" r="3" fill="black"></circle><circle cx="642.1869158878504" cy="301.0980392156863" r="3" fill="black"></circle><circle cx="88.81308411214954" cy="301.0980392156863" r="3" fill="black"></circle><circle cx="129.803738317757" cy="355.843137254902" r="3" fill="black"></circle><circle cx="286.93457943925233" cy="136.86274509803923" r="3" fill="black"></circle><circle cx="560.2056074766355" cy="595.3529411764706" r="3" fill="black"></circle><circle cx="157.13084112149534" cy="307.94117647058823" r="3" fill="black"></circle><circle cx="628.5233644859813" cy="656.9411764705883" r="3" fill="black"></circle><circle cx="245.94392523364485" cy="458.4901960784314" r="3" fill="black"></circle><circle cx="662.6822429906542" cy="20.529411764705856" r="3" fill="black"></circle><circle cx="669.5140186915888" cy="656.9411764705883" r="3" fill="black"></circle><circle cx="95.6448598130841" cy="677.4705882352941" r="3" fill="black"></circle><circle cx="198.1214953271028" cy="191.60784313725492" r="3" fill="black"></circle><circle cx="355.25233644859816" cy="431.11764705882354" r="3" fill="black"></circle><circle cx="560.2056074766355" cy="554.2941176470588" r="3" fill="black"></circle><circle cx="642.1869158878504" cy="61.58823529411768" r="3" fill="black"></circle><circle cx="409.9065420560747" cy="492.70588235294116" r="3" fill="black"></circle><circle cx="662.6822429906542" cy="554.2941176470588" r="3" fill="black"></circle><circle cx="567.0373831775701" cy="123.17647058823536" r="3" fill="black"></circle><circle cx="409.9065420560747" cy="622.7254901960785" r="3" fill="black"></circle><circle cx="403.0747663551401" cy="246.35294117647055" r="3" fill="black"></circle><circle cx="437.23364485981307" cy="88.96078431372553" r="3" fill="black"></circle><circle cx="239.11214953271028" cy="171.07843137254906" r="3" fill="black"></circle><circle cx="348.42056074766356" cy="355.843137254902" r="3" fill="black"></circle><circle cx="81.98130841121495" cy="615.8823529411765" r="3" fill="black"></circle><circle cx="526.0467289719626" cy="280.5686274509804" r="3" fill="black"></circle><circle cx="129.803738317757" cy="205.29411764705878" r="3" fill="black"></circle><circle cx="184.45794392523362" cy="239.50980392156862" r="3" fill="black"></circle><circle cx="177.62616822429908" cy="177.92156862745094" r="3" fill="black"></circle><circle cx="143.46728971962617" cy="287.4117647058823" r="3" fill="black"></circle><circle cx="676.3457943925233" cy="95.8039215686274" r="3" fill="black"></circle><circle cx="321.0934579439252" cy="47.9019607843137" r="3" fill="black"></circle><circle cx="122.97196261682242" cy="314.78431372549016" r="3" fill="black"></circle><circle cx="122.97196261682242" cy="102.64705882352939" r="3" fill="black"></circle><circle cx="696.8411214953271" cy="157.39215686274508" r="3" fill="black"></circle><circle cx="280.10280373831773" cy="177.92156862745094" r="3" fill="black"></circle><circle cx="560.2056074766355" cy="670.6274509803922" r="3" fill="black"></circle><circle cx="34.1588785046729" cy="479.01960784313724" r="3" fill="black"></circle><circle cx="409.9065420560747" cy="61.58823529411768" r="3" fill="black"></circle><circle cx="594.3644859813083" cy="328.4705882352941" r="3" fill="black"></circle><circle cx="614.8598130841121" cy="458.4901960784314" r="3" fill="black"></circle><circle cx="273.2710280373832" cy="34.215686274509835" r="3" fill="black"></circle><circle cx="170.79439252336448" cy="595.3529411764706" r="3" fill="black"></circle><circle cx="580.7009345794393" cy="54.74509803921569" r="3" fill="black"></circle><circle cx="198.1214953271028" cy="116.33333333333326" r="3" fill="black"></circle><circle cx="122.97196261682242" cy="61.58823529411768" r="3" fill="black"></circle><circle cx="382.5794392523364" cy="362.6862745098039" r="3" fill="black"></circle><circle cx="314.2616822429907" cy="362.6862745098039" r="3" fill="black"></circle><circle cx="444.0654205607476" cy="567.9803921568628" r="3" fill="black"></circle><circle cx="81.98130841121495" cy="184.76470588235293" r="3" fill="black"></circle><circle cx="259.607476635514" cy="376.37254901960785" r="3" fill="black"></circle><circle cx="587.5327102803739" cy="479.01960784313724" r="3" fill="black"></circle><circle cx="409.9065420560747" cy="581.6666666666666" r="3" fill="black"></circle><circle cx="649.018691588785" cy="218.98039215686276" r="3" fill="black"></circle><circle cx="485.0560747663551" cy="13.68627450980398" r="3" fill="black"></circle><circle cx="280.10280373831773" cy="116.33333333333326" r="3" fill="black"></circle><circle cx="430.40186915887847" cy="424.27450980392155" r="3" fill="black"></circle><circle cx="635.3551401869158" cy="390.05882352941177" r="3" fill="black"></circle><circle cx="157.13084112149534" cy="396.9019607843137" r="3" fill="black"></circle><circle cx="218.61682242990653" cy="54.74509803921569" r="3" fill="black"></circle><circle cx="409.9065420560747" cy="355.843137254902" r="3" fill="black"></circle><circle cx="75.14953271028037" cy="479.01960784313724" r="3" fill="black"></circle><circle cx="95.6448598130841" cy="239.50980392156862" r="3" fill="black"></circle><circle cx="109.30841121495327" cy="109.49019607843138" r="3" fill="black"></circle><circle cx="355.25233644859816" cy="218.98039215686276" r="3" fill="black"></circle><circle cx="252.77570093457942" cy="533.7647058823529" r="3" fill="black"></circle><circle cx="232.28037383177568" cy="171.07843137254906" r="3" fill="black"></circle><circle cx="485.0560747663551" cy="670.6274509803922" r="3" fill="black"></circle><circle cx="608.0280373831775" cy="82.11764705882354" r="3" fill="black"></circle><circle cx="512.3831775700934" cy="609.0392156862745" r="3" fill="black"></circle><circle cx="177.62616822429908" cy="684.3137254901961" r="3" fill="black"></circle><circle cx="150.29906542056074" cy="520.0784313725491" r="3" fill="black"></circle><circle cx="170.79439252336448" cy="451.6470588235294" r="3" fill="black"></circle><circle cx="608.0280373831775" cy="417.4313725490196" r="3" fill="black"></circle><circle cx="601.196261682243" cy="595.3529411764706" r="3" fill="black"></circle><circle cx="252.77570093457942" cy="410.5882352941177" r="3" fill="black"></circle><circle cx="485.0560747663551" cy="376.37254901960785" r="3" fill="black"></circle><circle cx="642.1869158878504" cy="95.8039215686274" r="3" fill="black"></circle><circle cx="362.0841121495327" cy="574.8235294117646" r="3" fill="black"></circle><circle cx="696.8411214953271" cy="266.88235294117646" r="3" fill="black"></circle><circle cx="75.14953271028037" cy="609.0392156862745" r="3" fill="black"></circle><circle cx="368.91588785046724" cy="567.9803921568628" r="3" fill="black"></circle><circle cx="375.74766355140184" cy="54.74509803921569" r="3" fill="black"></circle><circle cx="403.0747663551401" cy="574.8235294117646" r="3" fill="black"></circle><circle cx="628.5233644859813" cy="485.8627450980392" r="3" fill="black"></circle><circle cx="560.2056074766355" cy="444.80392156862746" r="3" fill="black"></circle><circle cx="430.40186915887847" cy="465.33333333333337" r="3" fill="black"></circle><circle cx="355.25233644859816" cy="328.4705882352941" r="3" fill="black"></circle><circle cx="649.018691588785" cy="157.39215686274508" r="3" fill="black"></circle><circle cx="321.0934579439252" cy="581.6666666666666" r="3" fill="black"></circle><circle cx="75.14953271028037" cy="561.1372549019608" r="3" fill="black"></circle><circle cx="143.46728971962617" cy="499.54901960784315" r="3" fill="black"></circle><circle cx="136.6355140186916" cy="547.4509803921569" r="3" fill="black"></circle><circle cx="423.57009345794387" cy="691.156862745098" r="3" fill="black"></circle><circle cx="457.7289719626168" cy="615.8823529411765" r="3" fill="black"></circle><circle cx="95.6448598130841" cy="458.4901960784314" r="3" fill="black"></circle><circle cx="696.8411214953271" cy="150.5490196078431" r="3" fill="black"></circle><circle cx="300.5981308411215" cy="150.5490196078431" r="3" fill="black"></circle><circle cx="505.55140186915884" cy="485.8627450980392" r="3" fill="black"></circle><circle cx="601.196261682243" cy="574.8235294117646" r="3" fill="black"></circle><circle cx="225.4485981308411" cy="424.27450980392155" r="3" fill="black"></circle><circle cx="553.3738317757009" cy="417.4313725490196" r="3" fill="black"></circle><circle cx="321.0934579439252" cy="656.9411764705883" r="3" fill="black"></circle><circle cx="471.39252336448595" cy="116.33333333333326" r="3" fill="black"></circle><circle cx="143.46728971962617" cy="540.6078431372549" r="3" fill="black"></circle><circle cx="218.61682242990653" cy="61.58823529411768" r="3" fill="black"></circle><circle cx="464.56074766355135" cy="212.13725490196083" r="3" fill="black"></circle><circle cx="608.0280373831775" cy="205.29411764705878" r="3" fill="black"></circle><circle cx="642.1869158878504" cy="246.35294117647055" r="3" fill="black"></circle><circle cx="225.4485981308411" cy="184.76470588235293" r="3" fill="black"></circle><circle cx="204.95327102803736" cy="595.3529411764706" r="3" fill="black"></circle><circle cx="334.7570093457944" cy="465.33333333333337" r="3" fill="black"></circle><circle cx="293.76635514018693" cy="232.66666666666669" r="3" fill="black"></circle><circle cx="403.0747663551401" cy="266.88235294117646" r="3" fill="black"></circle><circle cx="327.9252336448598" cy="588.5098039215686" r="3" fill="black"></circle><circle cx="300.5981308411215" cy="34.215686274509835" r="3" fill="black"></circle><circle cx="485.0560747663551" cy="102.64705882352939" r="3" fill="black"></circle><circle cx="232.28037383177568" cy="136.86274509803923" r="3" fill="black"></circle><circle cx="40.99065420560748" cy="157.39215686274508" r="3" fill="black"></circle><circle cx="409.9065420560747" cy="232.66666666666669" r="3" fill="black"></circle><circle cx="696.8411214953271" cy="513.2352941176471" r="3" fill="black"></circle><circle cx="61.48598130841121" cy="396.9019607843137" r="3" fill="black"></circle><circle cx="109.30841121495327" cy="47.9019607843137" r="3" fill="black"></circle><circle cx="423.57009345794387" cy="451.6470588235294" r="3" fill="black"></circle><circle cx="150.29906542056074" cy="615.8823529411765" r="3" fill="black"></circle><circle cx="95.6448598130841" cy="383.2156862745098" r="3" fill="black"></circle><circle cx="491.8878504672897" cy="588.5098039215686" r="3" fill="black"></circle><circle cx="655.8504672897196" cy="526.921568627451" r="3" fill="black"></circle><circle cx="88.81308411214954" cy="184.76470588235293" r="3" fill="black"></circle><circle cx="396.2429906542056" cy="34.215686274509835" r="3" fill="black"></circle><circle cx="649.018691588785" cy="75.27450980392155" r="3" fill="black"></circle><circle cx="683.1775700934579" cy="431.11764705882354" r="3" fill="black"></circle><circle cx="109.30841121495327" cy="287.4117647058823" r="3" fill="black"></circle><circle cx="396.2429906542056" cy="465.33333333333337" r="3" fill="black"></circle><circle cx="136.6355140186916" cy="437.96078431372547" r="3" fill="black"></circle><circle cx="669.5140186915888" cy="253.1960784313726" r="3" fill="black"></circle><circle cx="539.7102803738318" cy="540.6078431372549" r="3" fill="black"></circle><circle cx="273.2710280373832" cy="677.4705882352941" r="3" fill="black"></circle><circle cx="143.46728971962617" cy="574.8235294117646" r="3" fill="black"></circle><circle cx="355.25233644859816" cy="465.33333333333337" r="3" fill="black"></circle><circle cx="170.79439252336448" cy="547.4509803921569" r="3" fill="black"></circle><circle cx="88.81308411214954" cy="567.9803921568628" r="3" fill="black"></circle><circle cx="532.8785046728972" cy="287.4117647058823" r="3" fill="black"></circle><circle cx="307.4299065420561" cy="82.11764705882354" r="3" fill="black"></circle><circle cx="703.6728971962617" cy="88.96078431372553" r="3" fill="black"></circle><circle cx="430.40186915887847" cy="232.66666666666669" r="3" fill="black"></circle><circle cx="690.0093457943925" cy="212.13725490196083" r="3" fill="black"></circle><circle cx="539.7102803738318" cy="130.01960784313724" r="3" fill="black"></circle><circle cx="437.23364485981307" cy="656.9411764705883" r="3" fill="black"></circle><circle cx="485.0560747663551" cy="526.921568627451" r="3" fill="black"></circle><circle cx="88.81308411214954" cy="622.7254901960785" r="3" fill="black"></circle><circle cx="239.11214953271028" cy="609.0392156862745" r="3" fill="black"></circle><circle cx="655.8504672897196" cy="184.76470588235293" r="3" fill="black"></circle><circle cx="307.4299065420561" cy="650.0980392156863" r="3" fill="black"></circle><circle cx="47.82242990654205" cy="355.843137254902" r="3" fill="black"></circle><circle cx="239.11214953271028" cy="650.0980392156863" r="3" fill="black"></circle><circle cx="334.7570093457944" cy="253.1960784313726" r="3" fill="black"></circle><circle cx="232.28037383177568" cy="437.96078431372547" r="3" fill="black"></circle><circle cx="642.1869158878504" cy="47.9019607843137" r="3" fill="black"></circle><circle cx="225.4485981308411" cy="451.6470588235294" r="3" fill="black"></circle><circle cx="539.7102803738318" cy="218.98039215686276" r="3" fill="black"></circle><circle cx="157.13084112149534" cy="629.5686274509803" r="3" fill="black"></circle><circle cx="170.79439252336448" cy="82.11764705882354" r="3" fill="black"></circle><circle cx="321.0934579439252" cy="253.1960784313726" r="3" fill="black"></circle><circle cx="403.0747663551401" cy="307.94117647058823" r="3" fill="black"></circle><circle cx="102.47663551401868" cy="273.72549019607845" r="3" fill="black"></circle><circle cx="129.803738317757" cy="383.2156862745098" r="3" fill="black"></circle><circle cx="403.0747663551401" cy="266.88235294117646" r="3" fill="black"></circle><circle cx="27.327102803738317" cy="314.78431372549016" r="3" fill="black"></circle><circle cx="348.42056074766356" cy="47.9019607843137" r="3" fill="black"></circle><circle cx="389.411214953271" cy="369.5294117647059" r="3" fill="black"></circle><circle cx="396.2429906542056" cy="116.33333333333326" r="3" fill="black"></circle><circle cx="81.98130841121495" cy="451.6470588235294" r="3" fill="black"></circle><circle cx="280.10280373831773" cy="212.13725490196083" r="3" fill="black"></circle><circle cx="580.7009345794393" cy="198.45098039215685" r="3" fill="black"></circle><circle cx="649.018691588785" cy="335.3137254901961" r="3" fill="black"></circle><circle cx="232.28037383177568" cy="294.25490196078425" r="3" fill="black"></circle><circle cx="198.1214953271028" cy="485.8627450980392" r="3" fill="black"></circle><circle cx="450.8971962616822" cy="479.01960784313724" r="3" fill="black"></circle><circle cx="348.42056074766356" cy="390.05882352941177" r="3" fill="black"></circle><circle cx="498.7196261682243" cy="171.07843137254906" r="3" fill="black"></circle><circle cx="225.4485981308411" cy="355.843137254902" r="3" fill="black"></circle><circle cx="75.14953271028037" cy="588.5098039215686" r="3" fill="black"></circle><circle cx="348.42056074766356" cy="437.96078431372547" r="3" fill="black"></circle><circle cx="614.8598130841121" cy="376.37254901960785" r="3" fill="black"></circle><circle cx="211.78504672897193" cy="663.7843137254902" r="3" fill="black"></circle><circle cx="587.5327102803739" cy="273.72549019607845" r="3" fill="black"></circle><circle cx="170.79439252336448" cy="650.0980392156863" r="3" fill="black"></circle><circle cx="485.0560747663551" cy="636.4117647058823" r="3" fill="black"></circle><circle cx="61.48598130841121" cy="540.6078431372549" r="3" fill="black"></circle><circle cx="389.411214953271" cy="95.8039215686274" r="3" fill="black"></circle><circle cx="485.0560747663551" cy="177.92156862745094" r="3" fill="black"></circle><circle cx="122.97196261682242" cy="280.5686274509804" r="3" fill="black"></circle><circle cx="348.42056074766356" cy="574.8235294117646" r="3" fill="black"></circle><circle cx="143.46728971962617" cy="34.215686274509835" r="3" fill="black"></circle><circle cx="594.3644859813083" cy="431.11764705882354" r="3" fill="black"></circle><circle cx="642.1869158878504" cy="663.7843137254902" r="3" fill="black"></circle><circle cx="211.78504672897193" cy="273.72549019607845" r="3" fill="black"></circle><circle cx="649.018691588785" cy="663.7843137254902" r="3" fill="black"></circle><circle cx="334.7570093457944" cy="266.88235294117646" r="3" fill="black"></circle><circle cx="245.94392523364485" cy="27.372549019607845" r="3" fill="black"></circle><circle cx="314.2616822429907" cy="225.8235294117647" r="3" fill="black"></circle><circle cx="163.9626168224299" cy="362.6862745098039" r="3" fill="black"></circle><circle cx="594.3644859813083" cy="383.2156862745098" r="3" fill="black"></circle><circle cx="273.2710280373832" cy="663.7843137254902" r="3" fill="black"></circle><circle cx="20.49532710280374" cy="472.17647058823525" r="3" fill="black"></circle><circle cx="355.25233644859816" cy="253.1960784313726" r="3" fill="black"></circle><circle cx="403.0747663551401" cy="205.29411764705878" r="3" fill="black"></circle><circle cx="68.3177570093458" cy="588.5098039215686" r="3" fill="black"></circle><circle cx="170.79439252336448" cy="479.01960784313724" r="3" fill="black"></circle><circle cx="580.7009345794393" cy="116.33333333333326" r="3" fill="black"></circle><circle cx="403.0747663551401" cy="643.2549019607843" r="3" fill="black"></circle><circle cx="403.0747663551401" cy="506.3921568627451" r="3" fill="black"></circle><circle cx="34.1588785046729" cy="451.6470588235294" r="3" fill="black"></circle><circle cx="546.5420560747664" cy="171.07843137254906" r="3" fill="black"></circle><circle cx="136.6355140186916" cy="20.529411764705856" r="3" fill="black"></circle><circle cx="464.56074766355135" cy="485.8627450980392" r="3" fill="black"></circle><circle cx="498.7196261682243" cy="602.1960784313726" r="3" fill="black"></circle><circle cx="491.8878504672897" cy="294.25490196078425" r="3" fill="black"></circle><circle cx="218.61682242990653" cy="239.50980392156862" r="3" fill="black"></circle><circle cx="109.30841121495327" cy="629.5686274509803" r="3" fill="black"></circle><circle cx="34.1588785046729" cy="629.5686274509803" r="3" fill="black"></circle><circle cx="81.98130841121495" cy="615.8823529411765" r="3" fill="black"></circle><circle cx="389.411214953271" cy="301.0980392156863" r="3" fill="black"></circle><circle cx="594.3644859813083" cy="417.4313725490196" r="3" fill="black"></circle><circle cx="232.28037383177568" cy="520.0784313725491" r="3" fill="black"></circle><circle cx="580.7009345794393" cy="27.372549019607845" r="3" fill="black"></circle><circle cx="546.5420560747664" cy="349" r="3" fill="black"></circle><circle cx="204.95327102803736" cy="143.70588235294122" r="3" fill="black"></circle><circle cx="498.7196261682243" cy="335.3137254901961" r="3" fill="black"></circle><circle cx="157.13084112149534" cy="246.35294117647055" r="3" fill="black"></circle><circle cx="389.411214953271" cy="636.4117647058823" r="3" fill="black"></circle><circle cx="252.77570093457942" cy="205.29411764705878" r="3" fill="black"></circle><circle cx="676.3457943925233" cy="581.6666666666666" r="3" fill="black"></circle><circle cx="252.77570093457942" cy="157.39215686274508" r="3" fill="black"></circle><circle cx="423.57009345794387" cy="143.70588235294122" r="3" fill="black"></circle><circle cx="245.94392523364485" cy="444.80392156862746" r="3" fill="black"></circle><circle cx="300.5981308411215" cy="177.92156862745094" r="3" fill="black"></circle><circle cx="635.3551401869158" cy="431.11764705882354" r="3" fill="black"></circle><circle cx="430.40186915887847" cy="82.11764705882354" r="3" fill="black"></circle><circle cx="225.4485981308411" cy="116.33333333333326" r="3" fill="black"></circle><circle cx="170.79439252336448" cy="663.7843137254902" r="3" fill="black"></circle><circle cx="703.6728971962617" cy="540.6078431372549" r="3" fill="black"></circle><circle cx="163.9626168224299" cy="451.6470588235294" r="3" fill="black"></circle><circle cx="116.14018691588784" cy="540.6078431372549" r="3" fill="black"></circle><circle cx="61.48598130841121" cy="458.4901960784314" r="3" fill="black"></circle><circle cx="532.8785046728972" cy="335.3137254901961" r="3" fill="black"></circle><circle cx="696.8411214953271" cy="383.2156862745098" r="3" fill="black"></circle><circle cx="136.6355140186916" cy="444.80392156862746" r="3" fill="black"></circle><circle cx="81.98130841121495" cy="622.7254901960785" r="3" fill="black"></circle><circle cx="163.9626168224299" cy="349" r="3" fill="black"></circle><circle cx="184.45794392523362" cy="403.7450980392157" r="3" fill="black"></circle><circle cx="177.62616822429908" cy="280.5686274509804" r="3" fill="black"></circle><circle cx="478.22429906542055" cy="369.5294117647059" r="3" fill="black"></circle><circle cx="464.56074766355135" cy="13.68627450980398" r="3" fill="black"></circle><circle cx="348.42056074766356" cy="280.5686274509804" r="3" fill="black"></circle><circle cx="423.57009345794387" cy="123.17647058823536" r="3" fill="black"></circle><circle cx="20.49532710280374" cy="424.27450980392155" r="3" fill="black"></circle><circle cx="573.8691588785047" cy="629.5686274509803" r="3" fill="black"></circle><circle cx="696.8411214953271" cy="335.3137254901961" r="3" fill="black"></circle><circle cx="225.4485981308411" cy="95.8039215686274" r="3" fill="black"></circle><circle cx="273.2710280373832" cy="6.84313725490199" r="3" fill="black"></circle><circle cx="614.8598130841121" cy="205.29411764705878" r="3" fill="black"></circle><circle cx="314.2616822429907" cy="396.9019607843137" r="3" fill="black"></circle><circle cx="587.5327102803739" cy="130.01960784313724" r="3" fill="black"></circle><circle cx="239.11214953271028" cy="622.7254901960785" r="3" fill="black"></circle><circle cx="34.1588785046729" cy="136.86274509803923" r="3" fill="black"></circle><circle cx="416.7383177570093" cy="520.0784313725491" r="3" fill="black"></circle><circle cx="314.2616822429907" cy="472.17647058823525" r="3" fill="black"></circle><circle cx="635.3551401869158" cy="246.35294117647055" r="3" fill="black"></circle><circle cx="669.5140186915888" cy="602.1960784313726" r="3" fill="black"></circle><circle cx="170.79439252336448" cy="212.13725490196083" r="3" fill="black"></circle><circle cx="286.93457943925233" cy="595.3529411764706" r="3" fill="black"></circle><circle cx="703.6728971962617" cy="540.6078431372549" r="3" fill="black"></circle><circle cx="683.1775700934579" cy="643.2549019607843" r="3" fill="black"></circle><circle cx="690.0093457943925" cy="383.2156862745098" r="3" fill="black"></circle><circle cx="239.11214953271028" cy="403.7450980392157" r="3" fill="black"></circle><circle cx="423.57009345794387" cy="602.1960784313726" r="3" fill="black"></circle><circle cx="403.0747663551401" cy="431.11764705882354" r="3" fill="black"></circle><circle cx="601.196261682243" cy="321.62745098039215" r="3" fill="black"></circle><circle cx="348.42056074766356" cy="102.64705882352939" r="3" fill="black"></circle><circle cx="430.40186915887847" cy="602.1960784313726" r="3" fill="black"></circle><circle cx="519.214953271028" cy="321.62745098039215" r="3" fill="black"></circle><circle cx="102.47663551401868" cy="410.5882352941177" r="3" fill="black"></circle><circle cx="478.22429906542055" cy="54.74509803921569" r="3" fill="black"></circle><circle cx="307.4299065420561" cy="636.4117647058823" r="3" fill="black"></circle><circle cx="382.5794392523364" cy="499.54901960784315" r="3" fill="black"></circle><circle cx="526.0467289719626" cy="198.45098039215685" r="3" fill="black"></circle><circle cx="47.82242990654205" cy="677.4705882352941" r="3" fill="black"></circle><circle cx="252.77570093457942" cy="239.50980392156862" r="3" fill="black"></circle><circle cx="642.1869158878504" cy="280.5686274509804" r="3" fill="black"></circle><circle cx="437.23364485981307" cy="383.2156862745098" r="3" fill="black"></circle><circle cx="683.1775700934579" cy="171.07843137254906" r="3" fill="black"></circle><circle cx="27.327102803738317" cy="547.4509803921569" r="3" fill="black"></circle><circle cx="423.57009345794387" cy="410.5882352941177" r="3" fill="black"></circle><circle cx="280.10280373831773" cy="636.4117647058823" r="3" fill="black"></circle><circle cx="307.4299065420561" cy="61.58823529411768" r="3" fill="black"></circle><circle cx="573.8691588785047" cy="177.92156862745094" r="3" fill="black"></circle><circle cx="703.6728971962617" cy="451.6470588235294" r="3" fill="black"></circle><circle cx="122.97196261682242" cy="225.8235294117647" r="3" fill="black"></circle><circle cx="47.82242990654205" cy="294.25490196078425" r="3" fill="black"></circle><circle cx="560.2056074766355" cy="171.07843137254906" r="3" fill="black"></circle><circle cx="662.6822429906542" cy="342.15686274509807" r="3" fill="black"></circle><circle cx="211.78504672897193" cy="68.43137254901956" r="3" fill="black"></circle><circle cx="286.93457943925233" cy="643.2549019607843" r="3" fill="black"></circle><circle cx="546.5420560747664" cy="417.4313725490196" r="3" fill="black"></circle><circle cx="68.3177570093458" cy="349" r="3" fill="black"></circle><circle cx="512.3831775700934" cy="328.4705882352941" r="3" fill="black"></circle><circle cx="676.3457943925233" cy="184.76470588235293" r="3" fill="black"></circle><circle cx="362.0841121495327" cy="376.37254901960785" r="3" fill="black"></circle><circle cx="232.28037383177568" cy="547.4509803921569" r="3" fill="black"></circle><circle cx="54.654205607476634" cy="68.43137254901956" r="3" fill="black"></circle><circle cx="560.2056074766355" cy="595.3529411764706" r="3" fill="black"></circle><circle cx="27.327102803738317" cy="513.2352941176471" r="3" fill="black"></circle><circle cx="416.7383177570093" cy="533.7647058823529" r="3" fill="black"></circle><circle cx="54.654205607476634" cy="403.7450980392157" r="3" fill="black"></circle><circle cx="519.214953271028" cy="417.4313725490196" r="3" fill="black"></circle><circle cx="368.91588785046724" cy="225.8235294117647" r="3" fill="black"></circle><circle cx="423.57009345794387" cy="307.94117647058823" r="3" fill="black"></circle><circle cx="27.327102803738317" cy="431.11764705882354" r="3" fill="black"></circle><circle cx="239.11214953271028" cy="143.70588235294122" r="3" fill="black"></circle><circle cx="676.3457943925233" cy="246.35294117647055" r="3" fill="black"></circle><circle cx="573.8691588785047" cy="520.0784313725491" r="3" fill="black"></circle><circle cx="696.8411214953271" cy="499.54901960784315" r="3" fill="black"></circle><circle cx="116.14018691588784" cy="602.1960784313726" r="3" fill="black"></circle><circle cx="34.1588785046729" cy="650.0980392156863" r="3" fill="black"></circle><circle cx="163.9626168224299" cy="109.49019607843138" r="3" fill="black"></circle><circle cx="567.0373831775701" cy="561.1372549019608" r="3" fill="black"></circle><circle cx="109.30841121495327" cy="362.6862745098039" r="3" fill="black"></circle><circle cx="191.2897196261682" cy="6.84313725490199" r="3" fill="black"></circle><circle cx="81.98130841121495" cy="294.25490196078425" r="3" fill="black"></circle><circle cx="580.7009345794393" cy="102.64705882352939" r="3" fill="black"></circle><circle cx="61.48598130841121" cy="506.3921568627451" r="3" fill="black"></circle><circle cx="703.6728971962617" cy="164.23529411764707" r="3" fill="black"></circle><circle cx="608.0280373831775" cy="479.01960784313724" r="3" fill="black"></circle><circle cx="307.4299065420561" cy="164.23529411764707" r="3" fill="black"></circle><circle cx="437.23364485981307" cy="650.0980392156863" r="3" fill="black"></circle><circle cx="676.3457943925233" cy="403.7450980392157" r="3" fill="black"></circle><circle cx="348.42056074766356" cy="13.68627450980398" r="3" fill="black"></circle><circle cx="478.22429906542055" cy="499.54901960784315" r="3" fill="black"></circle><circle cx="498.7196261682243" cy="403.7450980392157" r="3" fill="black"></circle><circle cx="273.2710280373832" cy="287.4117647058823" r="3" fill="black"></circle><circle cx="403.0747663551401" cy="424.27450980392155" r="3" fill="black"></circle><circle cx="546.5420560747664" cy="88.96078431372553" r="3" fill="black"></circle><circle cx="47.82242990654205" cy="444.80392156862746" r="3" fill="black"></circle><circle cx="218.61682242990653" cy="520.0784313725491" r="3" fill="black"></circle><circle cx="676.3457943925233" cy="437.96078431372547" r="3" fill="black"></circle><circle cx="662.6822429906542" cy="458.4901960784314" r="3" fill="black"></circle><circle cx="532.8785046728972" cy="417.4313725490196" r="3" fill="black"></circle><circle cx="68.3177570093458" cy="212.13725490196083" r="3" fill="black"></circle><circle cx="54.654205607476634" cy="513.2352941176471" r="3" fill="black"></circle><circle cx="252.77570093457942" cy="561.1372549019608" r="3" fill="black"></circle><circle cx="416.7383177570093" cy="622.7254901960785" r="3" fill="black"></circle><circle cx="423.57009345794387" cy="417.4313725490196" r="3" fill="black"></circle><circle cx="444.0654205607476" cy="622.7254901960785" r="3" fill="black"></circle><circle cx="300.5981308411215" cy="88.96078431372553" r="3" fill="black"></circle><circle cx="157.13084112149534" cy="424.27450980392155" r="3" fill="black"></circle><circle cx="177.62616822429908" cy="369.5294117647059" r="3" fill="black"></circle><circle cx="478.22429906542055" cy="526.921568627451" r="3" fill="black"></circle><circle cx="676.3457943925233" cy="362.6862745098039" r="3" fill="black"></circle><circle cx="211.78504672897193" cy="266.88235294117646" r="3" fill="black"></circle><circle cx="553.3738317757009" cy="335.3137254901961" r="3" fill="black"></circle><circle cx="621.6915887850467" cy="561.1372549019608" r="3" fill="black"></circle><circle cx="157.13084112149534" cy="171.07843137254906" r="3" fill="black"></circle><circle cx="170.79439252336448" cy="547.4509803921569" r="3" fill="black"></circle><circle cx="286.93457943925233" cy="321.62745098039215" r="3" fill="black"></circle><circle cx="444.0654205607476" cy="47.9019607843137" r="3" fill="black"></circle><circle cx="450.8971962616822" cy="520.0784313725491" r="3" fill="black"></circle><circle cx="27.327102803738317" cy="273.72549019607845" r="3" fill="black"></circle><circle cx="703.6728971962617" cy="260.03921568627453" r="3" fill="black"></circle><circle cx="75.14953271028037" cy="61.58823529411768" r="3" fill="black"></circle><circle cx="307.4299065420561" cy="485.8627450980392" r="3" fill="black"></circle><circle cx="526.0467289719626" cy="307.94117647058823" r="3" fill="black"></circle><circle cx="334.7570093457944" cy="567.9803921568628" r="3" fill="black"></circle><circle cx="621.6915887850467" cy="526.921568627451" r="3" fill="black"></circle><circle cx="457.7289719626168" cy="273.72549019607845" r="3" fill="black"></circle><circle cx="471.39252336448595" cy="294.25490196078425" r="3" fill="black"></circle><circle cx="505.55140186915884" cy="307.94117647058823" r="3" fill="black"></circle><circle cx="136.6355140186916" cy="499.54901960784315" r="3" fill="black"></circle><circle cx="218.61682242990653" cy="41.058823529411825" r="3" fill="black"></circle><circle cx="423.57009345794387" cy="615.8823529411765" r="3" fill="black"></circle><circle cx="450.8971962616822" cy="458.4901960784314" r="3" fill="black"></circle><circle cx="485.0560747663551" cy="266.88235294117646" r="3" fill="black"></circle><circle cx="478.22429906542055" cy="27.372549019607845" r="3" fill="black"></circle><circle cx="68.3177570093458" cy="533.7647058823529" r="3" fill="black"></circle><circle cx="403.0747663551401" cy="499.54901960784315" r="3" fill="black"></circle><circle cx="567.0373831775701" cy="307.94117647058823" r="3" fill="black"></circle><circle cx="498.7196261682243" cy="636.4117647058823" r="3" fill="black"></circle><circle cx="245.94392523364485" cy="205.29411764705878" r="3" fill="black"></circle><circle cx="382.5794392523364" cy="75.27450980392155" r="3" fill="black"></circle><circle cx="485.0560747663551" cy="27.372549019607845" r="3" fill="black"></circle><circle cx="355.25233644859816" cy="670.6274509803922" r="3" fill="black"></circle><circle cx="614.8598130841121" cy="574.8235294117646" r="3" fill="black"></circle><circle cx="614.8598130841121" cy="253.1960784313726" r="3" fill="black"></circle><circle cx="567.0373831775701" cy="656.9411764705883" r="3" fill="black"></circle><circle cx="293.76635514018693" cy="239.50980392156862" r="3" fill="black"></circle><circle cx="696.8411214953271" cy="609.0392156862745" r="3" fill="black"></circle><circle cx="594.3644859813083" cy="177.92156862745094" r="3" fill="black"></circle><circle cx="505.55140186915884" cy="479.01960784313724" r="3" fill="black"></circle><circle cx="300.5981308411215" cy="410.5882352941177" r="3" fill="black"></circle><circle cx="587.5327102803739" cy="588.5098039215686" r="3" fill="black"></circle></g><rect width="731" height="698" style="fill: none; pointer-events: all;"></rect></g></svg>