<svg id="displayArea" xmlns="http://www.w3.org/2000/svg" width="797" height="728" style="background-color: white;"><g transform="translate(50,10)"><g transform="translate(-0.5,698)" fill="none" font-size="10" font-family="sans-serif" text-anchor="middle"><path class="domain" stroke="#000" d="M0.5,6V0.5H732.5V6" style="stroke: black;"></path><g class="tick" opacity="1" transform="translate(21.023364485981308,0)"><line stroke="#000" y2="6" style="stroke-width: 1; opacity: 1; stroke: black;"></line><text fill="#000" y="9" dy="0.71em" style="fill: black;">-50</text></g><g class="tick" opacity="1" transform="translate(89.43457943925233,0)"><line stroke="#000" y2="6" style="stroke-width: 1; opacity: 1; stroke: black;"></line><text fill="#000" y="9" dy="0.71em" style="fill: black;">-40</text></g><g class="tick" opacity="1" transform="translate(157.84579439252337,0)"><line stroke="#000" y2="6" style="stroke-width: 1; opacity: 1; stroke: black;"></line><text fill="#000" y="9" dy="0.71em" style="fill: black;">-30</text></g><g class="tick" opacity="1" transform="translate(226.2570093457944,0)"><line stroke="#000" y2="6" style="stroke-width: 1; opacity: 1; stroke: black;"></line><text fill="#000" y="9" dy="0.71em" style="fill: black;">-20</text></g><g class="tick" opacity="1" transform="translate(294.6682242990654,0)"><line stroke="#000" y2="6" style="stroke-width: 1; opacity: 1; stroke: black;"></line><text fill="#000" y="9" dy="0.71em" style="fill: black;">-10</text></g><g class="tick" opacity="1" transform="translate(363.07943925233644,0)"><line stroke="#000" y2="6" style="stroke-width: 1; opacity: 1; stroke: black;"></line><text fill="#000" y="9" dy="0.71em" style="fill: black;">0</text></g><g class="tick" opacity="1" transform="translate(431.4906542056074,0)"><line stroke="#000" y2="6" style="stroke-width: 1; opacity: 1; stroke: black;"></line><text fill="#000" y="9" dy="0.71em" style="fill: black;">10</text></g><g class="tick" opacity="1" transform="translate(499.90186915887847,0)"><line stroke="#000" y2="6" style="stroke-width: 1; opacity: 1; stroke: black;"></line><text fill="#000" y="9" dy="0.71em" style="fill: black;">20</text></g><g class="tick" opacity="1" transform="translate(568.3130841121496,0)"><line stroke="#000" y2="6" style="stroke-width: 1; opacity: 1; stroke: black;"></line><text fill="#000" y="9" dy="0.71em" style="fill: black;">30</text></g><g class="tick" opacity="1" transform="translate(636.7242990654205,0)"><line stroke="#000" y2="6" style="stroke-width: 1; opacity: 1; stroke: black;"></line><text fill="#000" y="9" dy="0.71em" style="fill: black;">40</text></g><g class="tick" opacity="1" transform="translate(705.1355140186915,0)"><line stroke="#000" y2="6" style="stroke-width: 1; opacity: 1; stroke: black;"></line><text fill="#000" y="9" dy="0.71em" style="fill: black;">50</text></g></g><g transform="translate(0,-0.5)" fill="none" font-size="10" font-family="sans-serif" text-anchor="end"><path class="domain" stroke="#000" d="M-6,698.5H0.5V0.5H-6" style="stroke: black;"></path><g class="tick" opacity="1" transform="translate(0,691.656862745098)"><line stroke="#000" x2="-6" style="stroke-width: 1; opacity: 1; stroke: black;"></line><text fill="#000" x="-9" dy="0.32em" style="fill: black;">-50</text></g><g class="tick" opacity="1" transform="translate(0,623.2254901960785)"><line stroke="#000" x2="-6" style="stroke-width: 1; opacity: 1; stroke: black;"></line><text fill="#000" x="-9" dy="0.32em" style="fill: black;">-40</text></g><g class="tick" opacity="1" transform="translate(0,554.7941176470588)"><line stroke="#000" x2="-6" style="stroke-width: 1; opacity: 1; stroke: black;"></line><text fill="#000" x="-9" dy="0.32em" style="fill: black;">-30</text></g><g class="tick" opacity="1" transform="translate(0,486.3627450980392)"><line stroke="#000" x2="-6" style="stroke-width: 1; opacity: 1; stroke: black;"></line><text fill="#000" x="-9" dy="0.32em" style="fill: black;">-20</text></g><g class="tick" opacity="1" transform="translate(0,417.9313725490196)"><line stroke="#000" x2="-6" style="stroke-width: 1; opacity: 1; stroke: black;"></line><text fill="#000" x="-9" dy="0.32em" style="fill: black;">-10</text></g><g class="tick" opacity="1" transform="translate(0,349.5)"><line stroke="#000" x2="-6" style="stroke-width: 1; opacity: 1; stroke: black;"></line><text fill="#000" x="-9" dy="0.32em" style="fill: black;">0</text></g><g class="tick" opacity="1" transform="translate(0,281.0686274509804)"><line stroke="#000" x2="-6" style="stroke-width: 1; opacity: 1; stroke: black;"></line><text fill="#000" x="-9" dy="0.32em" style="fill: black;">10</text></g><g class="tick" opacity="1" transform="translate(0,212.63725490196083)"><line stroke="#000" x2="-6" style="stroke-width: 1; opacity: 1; stroke: black;"></line><text fill="#000" x="-9" dy="0.32em" style="fill: black;">20</text></g><g class="tick" opacity="1" transform="translate(0,144.20588235294122)"><line stroke="#000" x2="-6" style="stroke-width: 1; opacity: 1; stroke: black;"></line><text fill="#000" x="-9" dy="0.32em" style="fill: black;">30</text></g><g class="tick" opacity="1" transform="translate(0,75.77450980392155)"><line stroke="#000" x2="-6" style="stroke-width: 1; opacity: 1; stroke: black;"></line><text fill="#000" x="-9" dy="0.32em" style="fill: black;">40</text></g><g class="tick" opacity="1" transform="translate(0,7.34313725490199)"><line stroke="#000" x2="-6" style="stroke-width: 1; opacity: 1; stroke: black;"></line><text fill="#000" x="-9" dy="0.32em" style="fill: black;">50</text></g></g><defs><clipPath id="clip"><rect width="732" height="698" x="0" y="0"></rect></clipPath></defs><g clip-path="url(#clip)"><polygon points="20.523364485981308,472.17647058823525 34.205607476635514,650.0980392156863 47.88785046728972,677.4705882352941 177.86915887850466,691.156862745098 424.1495327102803,691.156862745098 636.2242990654205,677.4705882352941 670.4299065420561,656.9411764705883 684.1121495327103,643.2549019607843 697.7943925233645,609.0392156862745 704.6355140186915,540.6078431372549 704.6355140186915,88.96078431372553 663.588785046729,20.529411764705856 485.7196261682243,13.68627450980398 273.6448598130841,6.84313725490199 191.55140186915887,6.84313725490199 136.82242990654206,20.529411764705856 54.72897196261682,68.43137254901956 34.205607476635514,136.86274509803923 27.36448598130841,273.72549019607845 20.523364485981308,424.27450980392155" style="fill:none;stroke:black;stroke-width:1"></polygon><circle cx="348.89719626168227" cy="191.60784313725492" r="3" fill="black"></circle><circle cx="396.7850467289719" cy="328.4705882352941" r="3" fill="black"></circle><circle cx="690.9532710280374" cy="362.6862745098039" r="3" fill="black"></circle><circle cx="102.61682242990653" cy="643.2549019607843" r="3" fill="black"></circle><circle cx="567.8130841121496" cy="123.17647058823536" r="3" fill="black"></circle><circle cx="157.34579439252337" cy="41.058823529411825" r="3" fill="black"></circle><circle cx="280.4859813084112" cy="554.2941176470588" r="3" fill="black"></circle><circle cx="280.4859813084112" cy="431.11764705882354" r="3" fill="black"></circle><circle cx="437.83177570093454" cy="273.72549019607845" r="3" fill="black"></circle><circle cx="355.7383177570093" cy="554.2941176470588" r="3" fill="black"></circle><circle cx="61.57009345794392" cy="328.4705882352941" r="3" fill="black"></circle><circle cx="560.9719626168225" cy="458.4901960784314" r="3" fill="black"></circle><circle cx="157.34579439252337" cy="362.6862745098039" r="3" fill="black"></circle><circle cx="116.29906542056074" cy="602.1960784313726" r="3" fill="black"></circle><circle cx="444.67289719626166" cy="198.45098039215685" r="3" fill="black"></circle><circle cx="321.5327102803738" cy="663.7843137254902" r="3" fill="black"></circle><circle cx="259.9626168224299" cy="417.4313725490196" r="3" fill="black"></circle><circle cx="109.45794392523364" cy="554.2941176470588" r="3" fill="black"></circle><circle cx="239.4392523364486" cy="355.843137254902" r="3" fill="black"></circle><circle cx="280.4859813084112" cy="390.05882352941177" r="3" fill="black"></circle><circle cx="136.82242990654206" cy="260.03921568627453" r="3" fill="black"></circle><circle cx="560.9719626168225" cy="314.78431372549016" r="3" fill="black"></circle><circle cx="266.803738317757" cy="479.01960784313724" r="3" fill="black"></circle><circle cx="629.3831775700935" cy="629.5686274509803" r="3" fill="black"></circle><circle cx="259.9626168224299" cy="136.86274509803923" r="3" fill="black"></circle><circle cx="588.3364485981308" cy="574.8235294117646" r="3" fill="black"></circle><circle cx="417.30841121495325" cy="417.4313725490196" r="3" fill="black"></circle><circle cx="123.14018691588784" cy="431.11764705882354" r="3" fill="black"></circle><circle cx="75.25233644859813" cy="307.94117647058823" r="3" fill="black"></circle><circle cx="102.61682242990653" cy="349" r="3" fill="black"></circle><circle cx="136.82242990654206" cy="355.843137254902" r="3" fill="black"></circle><circle cx="348.89719626168227" cy="116.33333333333326" r="3" fill="black"></circle><circle cx="465.19626168224295" cy="314.78431372549016" r="3" fill="black"></circle><circle cx="348.89719626168227" cy="109.49019607843138" r="3" fill="black"></circle><circle cx="608.8598130841121" cy="342.15686274509807" r="3" fill="black"></circle><circle cx="301.0093457943925" cy="191.60784313725492" r="3" fill="black"></circle><circle cx="61.57009345794392" cy="369.5294117647059" r="3" fill="black"></circle><circle cx="177.86915887850466" cy="691.156862745098" r="3" fill="black"></circle><circle cx="109.45794392523364" cy="212.13725490196083" r="3" fill="black"></circle><circle cx="171.02803738317758" cy="472.17647058823525" r="3" fill="black"></circle><circle cx="68.41121495327103" cy="567.9803921568628" r="3" fill="black"></circle><circle cx="519.9252336448598" cy="609.0392156862745" r="3" fill="black"></circle><circle cx="34.205607476635514" cy="171.07843137254906" r="3" fill="black"></circle><circle cx="677.2710280373832" cy="636.4117647058823" r="3" fill="black"></circle><circle cx="301.0093457943925" cy="506.3921568627451" r="3" fill="black"></circle><circle cx="205.23364485981307" cy="526.921568627451" r="3" fill="black"></circle><circle cx="239.4392523364486" cy="526.921568627451" r="3" fill="black"></circle><circle cx="540.4485981308411" cy="157.39215686274508" r="3" fill="black"></circle><circle cx="177.86915887850466" cy="540.6078431372549" r="3" fill="black"></circle><circle cx="136.82242990654206" cy="581.6666666666666" r="3" fill="black"></circle><circle cx="458.35514018691583" cy="643.2549019607843" r="3" fill="black"></circle><circle cx="560.9719626168225" cy="27.372549019607845" r="3" fill="black"></circle><circle cx="369.4205607476635" cy="684.3137254901961" r="3" fill="black"></circle><circle cx="636.2242990654205" cy="677.4705882352941" r="3" fill="black"></circle><circle cx="410.46728971962614" cy="41.058823529411825" r="3" fill="black"></circle><circle cx="335.21495327102804" cy="554.2941176470588" r="3" fill="black"></circle><circle cx="690.9532710280374" cy="622.7254901960785" r="3" fill="black"></circle><circle cx="540.4485981308411" cy="526.921568627451" r="3" fill="black"></circle><circle cx="150.50467289719626" cy="663.7843137254902" r="3" fill="black"></circle><circle cx="472.03738317757006" cy="410.5882352941177" r="3" fill="black"></circle><circle cx="123.14018691588784" cy="410.5882352941177" r="3" fill="black"></circle><circle cx="533.607476635514" cy="314.78431372549016" r="3" fill="black"></circle><circle cx="472.03738317757006" cy="677.4705882352941" r="3" fill="black"></circle><circle cx="437.83177570093454" cy="574.8235294117646" r="3" fill="black"></circle><circle cx="362.57943925233644" cy="663.7843137254902" r="3" fill="black"></circle><circle cx="458.35514018691583" cy="684.3137254901961" r="3" fill="black"></circle><circle cx="191.55140186915887" cy="164.23529411764707" r="3" fill="black"></circle><circle cx="136.82242990654206" cy="109.49019607843138" r="3" fill="black"></circle><circle cx="506.2429906542056" cy="198.45098039215685" r="3" fill="black"></circle><circle cx="670.4299065420561" cy="171.07843137254906" r="3" fill="black"></circle><circle cx="506.2429906542056" cy="102.64705882352939" r="3" fill="black"></circle><circle cx="608.8598130841121" cy="431.11764705882354" r="3" fill="black"></circle><circle cx="430.9906542056074" cy="287.4117647058823" r="3" fill="black"></circle><circle cx="266.803738317757" cy="581.6666666666666" r="3" fill="black"></circle><circle cx="259.9626168224299" cy="595.3529411764706" r="3" fill="black"></circle><circle cx="41.046728971962615" cy="629.5686274509803" r="3" fill="black"></circle><circle cx="232.59813084112147" cy="253.1960784313726" r="3" fill="black"></circle><circle cx="307.85046728971963" cy="177.92156862745094" r="3" fill="black"></circle><circle cx="602.018691588785" cy="109.49019607843138" r="3" fill="black"></circle><circle cx="533.607476635514" cy="369.5294117647059" r="3" fill="black"></circle><circle cx="602.018691588785" cy="472.17647058823525" r="3" fill="black"></circle><circle cx="485.7196261682243" cy="212.13725490196083" r="3" fill="black"></circle><circle cx="328.3738317757009" cy="479.01960784313724" r="3" fill="black"></circle><circle cx="335.21495327102804" cy="184.76470588235293" r="3" fill="black"></circle><circle cx="513.0841121495326" cy="417.4313725490196" r="3" fill="black"></circle><circle cx="636.2242990654205" cy="177.92156862745094" r="3" fill="black"></circle><circle cx="171.02803738317758" cy="526.921568627451" r="3" fill="black"></circle><circle cx="75.25233644859813" cy="232.66666666666669" r="3" fill="black"></circle><circle cx="636.2242990654205" cy="95.8039215686274" r="3" fill="black"></circle><circle cx="116.29906542056074" cy="609.0392156862745" r="3" fill="black"></circle><circle cx="526.7663551401869" cy="54.74509803921569" r="3" fill="black"></circle><circle cx="472.03738317757006" cy="417.4313725490196" r="3" fill="black"></circle><circle cx="75.25233644859813" cy="588.5098039215686" r="3" fill="black"></circle><circle cx="485.7196261682243" cy="41.058823529411825" r="3" fill="black"></circle><circle cx="437.83177570093454" cy="574.8235294117646" r="3" fill="black"></circle><circle cx="656.7476635514018" cy="307.94117647058823" r="3" fill="black"></circle><circle cx="608.8598130841121" cy="567.9803921568628" r="3" fill="black"></circle><circle cx="253.1214953271028" cy="314.78431372549016" r="3" fill="black"></circle><circle cx="259.9626168224299" cy="34.215686274509835" r="3" fill="black"></circle><circle cx="410.46728971962614" cy="670.6274509803922" r="3" fill="black"></circle><circle cx="643.0654205607476" cy="301.0980392156863" r="3" fill="black"></circle><circle cx="88.93457943925233" cy="301.0980392156863" r="3" fill="black"></circle><circle cx="129.98130841121494" cy="355.843137254902" r="3" fill="black"></circle><circle cx="287.3271028037383" cy="136.86274509803923" r="3" fill="black"></circle><circle cx="560.9719626168225" cy="595.3529411764706" r="3" fill="black"></circle><circle cx="157.34579439252337" cy="307.94117647058823" r="3" fill="black"></circle><circle cx="629.3831775700935" cy="656.9411764705883" r="3" fill="black"></circle><circle cx="246.28037383177568" cy="458.4901960784314" r="3" fill="black"></circle><circle cx="663.588785046729" cy="20.529411764705856" r="3" fill="black"></circle><circle cx="670.4299065420561" cy="656.9411764705883" r="3" fill="black"></circle><circle cx="95.77570093457943" cy="677.4705882352941" r="3" fill="black"></circle><circle cx="198.39252336448595" cy="191.60784313725492" r="3" fill="black"></circle><circle cx="355.7383177570093" cy="431.11764705882354" r="3" fill="black"></circle><circle cx="560.9719626168225" cy="554.2941176470588" r="3" fill="black"></circle><circle cx="643.0654205607476" cy="61.58823529411768" r="3" fill="black"></circle><circle cx="410.46728971962614" cy="492.70588235294116" r="3" fill="black"></circle><circle cx="663.588785046729" cy="554.2941176470588" r="3" fill="black"></circle><circle cx="567.8130841121496" cy="123.17647058823536" r="3" fill="black"></circle><circle cx="410.46728971962614" cy="622.7254901960785" r="3" fill="black"></circle><circle cx="403.626168224299" cy="246.35294117647055" r="3" fill="black"></circle><circle cx="437.83177570093454" cy="88.96078431372553" r="3" fill="black"></circle><circle cx="239.4392523364486" cy="171.07843137254906" r="3" fill="black"></circle><circle cx="348.89719626168227" cy="355.843137254902" r="3" fill="black"></circle><circle cx="82.09345794392523" cy="615.8823529411765" r="3" fill="black"></circle><circle cx="526.7663551401869" cy="280.5686274509804" r="3" fill="black"></circle><circle cx="129.98130841121494" cy="205.29411764705878" r="3" fill="black"></circle><circle cx="184.71028037383175" cy="239.50980392156862" r="3" fill="black"></circle><circle cx="177.86915887850466" cy="177.92156862745094" r="3" fill="black"></circle><circle cx="143.66355140186914" cy="287.4117647058823" r="3" fill="black"></circle><circle cx="677.2710280373832" cy="95.8039215686274" r="3" fill="black"></circle><circle cx="321.5327102803738" cy="47.9019607843137" r="3" fill="black"></circle><circle cx="123.14018691588784" cy="314.78431372549016" r="3" fill="black"></circle><circle cx="123.14018691588784" cy="102.64705882352939" r="3" fill="black"></circle><circle cx="697.7943925233645" cy="157.39215686274508" r="3" fill="black"></circle><circle cx="280.4859813084112" cy="177.92156862745094" r="3" fill="black"></circle><circle cx="560.9719626168225" cy="670.6274509803922" r="3" fill="black"></circle><circle cx="34.205607476635514" cy="479.01960784313724" r="3" fill="black"></circle><circle cx="410.46728971962614" cy="61.58823529411768" r="3" fill="black"></circle><circle cx="595.1775700934579" cy="328.4705882352941" r="3" fill="black"></circle><circle cx="615.7009345794393" cy="458.4901960784314" r="3" fill="black"></circle><circle cx="273.6448598130841" cy="34.215686274509835" r="3" fill="black"></circle><circle cx="171.02803738317758" cy="595.3529411764706" r="3" fill="black"></circle><circle cx="581.4953271028037" cy="54.74509803921569" r="3" fill="black"></circle><circle cx="198.39252336448595" cy="116.33333333333326" r="3" fill="black"></circle><circle cx="123.14018691588784" cy="61.58823529411768" r="3" fill="black"></circle><circle cx="383.10280373831773" cy="362.6862745098039" r="3" fill="black"></circle><circle cx="314.69158878504675" cy="362.6862745098039" r="3" fill="black"></circle><circle cx="444.67289719626166" cy="567.9803921568628" r="3" fill="black"></circle><circle cx="82.09345794392523" cy="184.76470588235293" r="3" fill="black"></circle><circle cx="259.9626168224299" cy="376.37254901960785" r="3" fill="black"></circle><circle cx="588.3364485981308" cy="479.01960784313724" r="3" fill="black"></circle><circle cx="410.46728971962614" cy="581.6666666666666" r="3" fill="black"></circle><circle cx="649.9065420560747" cy="218.98039215686276" r="3" fill="black"></circle><circle cx="485.7196261682243" cy="13.68627450980398" r="3" fill="black"></circle><circle cx="280.4859813084112" cy="116.33333333333326" r="3" fill="black"></circle><circle cx="430.9906542056074" cy="424.27450980392155" r="3" fill="black"></circle><circle cx="636.2242990654205" cy="390.05882352941177" r="3" fill="black"></circle><circle cx="157.34579439252337" cy="396.9019607843137" r="3" fill="black"></circle><circle cx="218.91588785046727" cy="54.74509803921569" r="3" fill="black"></circle><circle cx="410.46728971962614" cy="355.843137254902" r="3" fill="black"></circle><circle cx="75.25233644859813" cy="479.01960784313724" r="3" fill="black"></circle><circle cx="95.77570093457943" cy="239.50980392156862" r="3" fill="black"></circle><circle cx="109.45794392523364" cy="109.49019607843138" r="3" fill="black"></circle><circle cx="355.7383177570093" cy="218.98039215686276" r="3" fill="black"></circle><circle cx="253.1214953271028" cy="533.7647058823529" r="3" fill="black"></circle><circle cx="232.59813084112147" cy="171.07843137254906" r="3" fill="black"></circle><circle cx="485.7196261682243" cy="670.6274509803922" r="3" fill="black"></circle><circle cx="608.8598130841121" cy="82.11764705882354" r="3" fill="black"></circle><circle cx="513.0841121495326" cy="609.0392156862745" r="3" fill="black"></circle><circle cx="177.86915887850466" cy="684.3137254901961" r="3" fill="black"></circle><circle cx="150.50467289719626" cy="520.0784313725491" r="3" fill="black"></circle><circle cx="171.02803738317758" cy="451.6470588235294" r="3" fill="black"></circle><circle cx="608.8598130841121" cy="417.4313725490196" r="3" fill="black"></circle><circle cx="602.018691588785" cy="595.3529411764706" r="3" fill="black"></circle><circle cx="253.1214953271028" cy="410.5882352941177" r="3" fill="black"></circle><circle cx="485.7196261682243" cy="376.37254901960785" r="3" fill="black"></circle><circle cx="643.0654205607476" cy="95.8039215686274" r="3" fill="black"></circle><circle cx="362.57943925233644" cy="574.8235294117646" r="3" fill="black"></circle><circle cx="697.7943925233645" cy="266.88235294117646" r="3" fill="black"></circle><circle cx="75.25233644859813" cy="609.0392156862745" r="3" fill="black"></circle><circle cx="369.4205607476635" cy="567.9803921568628" r="3" fill="black"></circle><circle cx="376.2616822429906" cy="54.74509803921569" r="3" fill="black"></circle><circle cx="403.626168224299" cy="574.8235294117646" r="3" fill="black"></circle><circle cx="629.3831775700935" cy="485.8627450980392" r="3" fill="black"></circle><circle cx="560.9719626168225" cy="444.80392156862746" r="3" fill="black"></circle><circle cx="430.9906542056074" cy="465.33333333333337" r="3" fill="black"></circle><circle cx="355.7383177570093" cy="328.4705882352941" r="3" fill="black"></circle><circle cx="649.9065420560747" cy="157.39215686274508" r="3" fill="black"></circle><circle cx="321.5327102803738" cy="581.6666666666666" r="3" fill="black"></circle><circle cx="75.25233644859813" cy="561.1372549019608" r="3" fill="black"></circle><circle cx="143.66355140186914" cy="499.54901960784315" r="3" fill="black"></circle><circle cx="136.82242990654206" cy="547.4509803921569" r="3" fill="black"></circle><circle cx="424.1495327102803" cy="691.156862745098" r="3" fill="black"></circle><circle cx="458.35514018691583" cy="615.8823529411765" r="3" fill="black"></circle><circle cx="95.77570093457943" cy="458.4901960784314" r="3" fill="black"></circle><circle cx="697.7943925233645" cy="150.5490196078431" r="3" fill="black"></circle><circle cx="301.0093457943925" cy="150.5490196078431" r="3" fill="black"></circle><circle cx="506.2429906542056" cy="485.8627450980392" r="3" fill="black"></circle><circle cx="602.018691588785" cy="574.8235294117646" r="3" fill="black"></circle><circle cx="225.7570093457944" cy="424.27450980392155" r="3" fill="black"></circle><circle cx="554.1308411214953" cy="417.4313725490196" r="3" fill="black"></circle><circle cx="321.5327102803738" cy="656.9411764705883" r="3" fill="black"></circle><circle cx="472.03738317757006" cy="116.33333333333326" r="3" fill="black"></circle><circle cx="143.66355140186914" cy="540.6078431372549" r="3" fill="black"></circle><circle cx="218.91588785046727" cy="61.58823529411768" r="3" fill="black"></circle><circle cx="465.19626168224295" cy="212.13725490196083" r="3" fill="black"></circle><circle cx="608.8598130841121" cy="205.29411764705878" r="3" fill="black"></circle><circle cx="643.0654205607476" cy="246.35294117647055" r="3" fill="black"></circle><circle cx="225.7570093457944" cy="184.76470588235293" r="3" fill="black"></circle><circle cx="205.23364485981307" cy="595.3529411764706" r="3" fill="black"></circle><circle cx="335.21495327102804" cy="465.33333333333337" r="3" fill="black"></circle><circle cx="294.1682242990654" cy="232.66666666666669" r="3" fill="black"></circle><circle cx="403.626168224299" cy="266.88235294117646" r="3" fill="black"></circle><circle cx="328.3738317757009" cy="588.5098039215686" r="3" fill="black"></circle><circle cx="301.0093457943925" cy="34.215686274509835" r="3" fill="black"></circle><circle cx="485.7196261682243" cy="102.64705882352939" r="3" fill="black"></circle><circle cx="232.59813084112147" cy="136.86274509803923" r="3" fill="black"></circle><circle cx="41.046728971962615" cy="157.39215686274508" r="3" fill="black"></circle><circle cx="410.46728971962614" cy="232.66666666666669" r="3" fill="black"></circle><circle cx="697.7943925233645" cy="513.2352941176471" r="3" fill="black"></circle><circle cx="61.57009345794392" cy="396.9019607843137" r="3" fill="black"></circle><circle cx="109.45794392523364" cy="47.9019607843137" r="3" fill="black"></circle><circle cx="424.1495327102803" cy="451.6470588235294" r="3" fill="black"></circle><circle cx="150.50467289719626" cy="615.8823529411765" r="3" fill="black"></circle><circle cx="95.77570093457943" cy="383.2156862745098" r="3" fill="black"></circle><circle cx="492.56074766355135" cy="588.5098039215686" r="3" fill="black"></circle><circle cx="656.7476635514018" cy="526.921568627451" r="3" fill="black"></circle><circle cx="88.93457943925233" cy="184.76470588235293" r="3" fill="black"></circle><circle cx="396.7850467289719" cy="34.215686274509835" r="3" fill="black"></circle><circle cx="649.9065420560747" cy="75.27450980392155" r="3" fill="black"></circle><circle cx="684.1121495327103" cy="431.11764705882354" r="3" fill="black"></circle><circle cx="109.45794392523364" cy="287.4117647058823" r="3" fill="black"></circle><circle cx="396.7850467289719" cy="465.33333333333337" r="3" fill="black"></circle><circle cx="136.82242990654206" cy="437.96078431372547" r="3" fill="black"></circle><circle cx="670.4299065420561" cy="253.1960784313726" r="3" fill="black"></circle><circle cx="540.4485981308411" cy="540.6078431372549" r="3" fill="black"></circle><circle cx="273.6448598130841" cy="677.4705882352941" r="3" fill="black"></circle><circle cx="143.66355140186914" cy="574.8235294117646" r="3" fill="black"></circle><circle cx="355.7383177570093" cy="465.33333333333337" r="3" fill="black"></circle><circle cx="171.02803738317758" cy="547.4509803921569" r="3" fill="black"></circle><circle cx="88.93457943925233" cy="567.9803921568628" r="3" fill="black"></circle><circle cx="533.607476635514" cy="287.4117647058823" r="3" fill="black"></circle><circle cx="307.85046728971963" cy="82.11764705882354" r="3" fill="black"></circle><circle cx="704.6355140186915" cy="88.96078431372553" r="3" fill="black"></circle><circle cx="430.9906542056074" cy="232.66666666666669" r="3" fill="black"></circle><circle cx="690.9532710280374" cy="212.13725490196083" r="3" fill="black"></circle><circle cx="540.4485981308411" cy="130.01960784313724" r="3" fill="black"></circle><circle cx="437.83177570093454" cy="656.9411764705883" r="3" fill="black"></circle><circle cx="485.7196261682243" cy="526.921568627451" r="3" fill="black"></circle><circle cx="88.93457943925233" cy="622.7254901960785" r="3" fill="black"></circle><circle cx="239.4392523364486" cy="609.0392156862745" r="3" fill="black"></circle><circle cx="656.7476635514018" cy="184.76470588235293" r="3" fill="black"></circle><circle cx="307.85046728971963" cy="650.0980392156863" r="3" fill="black"></circle><circle cx="47.88785046728972" cy="355.843137254902" r="3" fill="black"></circle><circle cx="239.4392523364486" cy="650.0980392156863" r="3" fill="black"></circle><circle cx="335.21495327102804" cy="253.1960784313726" r="3" fill="black"></circle><circle cx="232.59813084112147" cy="437.96078431372547" r="3" fill="black"></circle><circle cx="643.0654205607476" cy="47.9019607843137" r="3" fill="black"></circle><circle cx="225.7570093457944" cy="451.6470588235294" r="3" fill="black"></circle><circle cx="540.4485981308411" cy="218.98039215686276" r="3" fill="black"></circle><circle cx="157.34579439252337" cy="629.5686274509803" r="3" fill="black"></circle><circle cx="171.02803738317758" cy="82.11764705882354" r="3" fill="black"></circle><circle cx="321.5327102803738" cy="253.1960784313726" r="3" fill="black"></circle><circle cx="403.626168224299" cy="307.94117647058823" r="3" fill="black"></circle><circle cx="102.61682242990653" cy="273.72549019607845" r="3" fill="black"></circle><circle cx="129.98130841121494" cy="383.2156862745098" r="3" fill="black"></circle><circle cx="403.626168224299" cy="266.88235294117646" r="3" fill="black"></circle><circle cx="27.36448598130841" cy="314.78431372549016" r="3" fill="black"></circle><circle cx="348.89719626168227" cy="47.9019607843137" r="3" fill="black"></circle><circle cx="389.94392523364485" cy="369.5294117647059" r="3" fill="black"></circle><circle cx="396.7850467289719" cy="116.33333333333326" r="3" fill="black"></circle><circle cx="82.09345794392523" cy="451.6470588235294" r="3" fill="black"></circle><circle cx="280.4859813084112" cy="212.13725490196083" r="3" fill="black"></circle><circle cx="581.4953271028037" cy="198.45098039215685" r="3" fill="black"></circle><circle cx="649.9065420560747" cy="335.3137254901961" r="3" fill="black"></circle><circle cx="232.59813084112147" cy="294.25490196078425" r="3" fill="black"></circle><circle cx="198.39252336448595" cy="485.8627450980392" r="3" fill="black"></circle><circle cx="451.5140186915888" cy="479.01960784313724" r="3" fill="black"></circle><circle cx="348.89719626168227" cy="390.05882352941177" r="3" fill="black"></circle><circle cx="499.40186915887847" cy="171.07843137254906" r="3" fill="black"></circle><circle cx="225.7570093457944" cy="355.843137254902" r="3" fill="black"></circle><circle cx="75.25233644859813" cy="588.5098039215686" r="3" fill="black"></circle><circle cx="348.89719626168227" cy="437.96078431372547" r="3" fill="black"></circle><circle cx="615.7009345794393" cy="376.37254901960785" r="3" fill="black"></circle><circle cx="212.07476635514016" cy="663.7843137254902" r="3" fill="black"></circle><circle cx="588.3364485981308" cy="273.72549019607845" r="3" fill="black"></circle><circle cx="171.02803738317758" cy="650.0980392156863" r="3" fill="black"></circle><circle cx="485.7196261682243" cy="636.4117647058823" r="3" fill="black"></circle><circle cx="61.57009345794392" cy="540.6078431372549" r="3" fill="black"></circle><circle cx="389.94392523364485" cy="95.8039215686274" r="3" fill="black"></circle><circle cx="485.7196261682243" cy="177.92156862745094" r="3" fill="black"></circle><circle cx="123.14018691588784" cy="280.5686274509804" r="3" fill="black"></circle><circle cx="348.89719626168227" cy="574.8235294117646" r="3" fill="black"></circle><circle cx="143.66355140186914" cy="34.215686274509835" r="3" fill="black"></circle><circle cx="595.1775700934579" cy="431.11764705882354" r="3" fill="black"></circle><circle cx="643.0654205607476" cy="663.7843137254902" r="3" fill="black"></circle><circle cx="212.07476635514016" cy="273.72549019607845" r="3" fill="black"></circle><circle cx="649.9065420560747" cy="663.7843137254902" r="3" fill="black"></circle><circle cx="335.21495327102804" cy="266.88235294117646" r="3" fill="black"></circle><circle cx="246.28037383177568" cy="27.372549019607845" r="3" fill="black"></circle><circle cx="314.69158878504675" cy="225.8235294117647" r="3" fill="black"></circle><circle cx="164.18691588785046" cy="362.6862745098039" r="3" fill="black"></circle><circle cx="595.1775700934579" cy="383.2156862745098" r="3" fill="black"></circle><circle cx="273.6448598130841" cy="663.7843137254902" r="3" fill="black"></circle><circle cx="20.523364485981308" cy="472.17647058823525" r="3" fill="black"></circle><circle cx="355.7383177570093" cy="253.1960784313726" r="3" fill="black"></circle><circle cx="403.626168224299" cy="205.29411764705878" r="3" fill="black"></circle><circle cx="68.41121495327103" cy="588.5098039215686" r="3" fill="black"></circle><circle cx="171.02803738317758" cy="479.01960784313724" r="3" fill="black"></circle><circle cx="581.4953271028037" cy="116.33333333333326" r="3" fill="black"></circle><circle cx="403.626168224299" cy="643.2549019607843" r="3" fill="black"></circle><circle cx="403.626168224299" cy="506.3921568627451" r="3" fill="black"></circle><circle cx="34.205607476635514" cy="451.6470588235294" r="3" fill="black"></circle><circle cx="547.2897196261682" cy="171.07843137254906" r="3" fill="black"></circle><circle cx="136.82242990654206" cy="20.529411764705856" r="3" fill="black"></circle><circle cx="465.19626168224295" cy="485.8627450980392" r="3" fill="black"></circle><circle cx="499.40186915887847" cy="602.1960784313726" r="3" fill="black"></circle><circle cx="492.56074766355135" cy="294.25490196078425" r="3" fill="black"></circle><circle cx="218.91588785046727" cy="239.50980392156862" r="3" fill="black"></circle><circle cx="109.45794392523364" cy="629.5686274509803" r="3" fill="black"></circle><circle cx="34.205607476635514" cy="629.5686274509803" r="3" fill="black"></circle><circle cx="82.09345794392523" cy="615.8823529411765" r="3" fill="black"></circle><circle cx="389.94392523364485" cy="301.0980392156863" r="3" fill="black"></circle><circle cx="595.1775700934579" cy="417.4313725490196" r="3" fill="black"></circle><circle cx="232.59813084112147" cy="520.0784313725491" r="3" fill="black"></circle><circle cx="581.4953271028037" cy="27.372549019607845" r="3" fill="black"></circle><circle cx="547.2897196261682" cy="349" r="3" fill="black"></circle><circle cx="205.23364485981307" cy="143.70588235294122" r="3" fill="black"></circle><circle cx="499.40186915887847" cy="335.3137254901961" r="3" fill="black"></circle><circle cx="157.34579439252337" cy="246.35294117647055" r="3" fill="black"></circle><circle cx="389.94392523364485" cy="636.4117647058823" r="3" fill="black"></circle><circle cx="253.1214953271028" cy="205.29411764705878" r="3" fill="black"></circle><circle cx="677.2710280373832" cy="581.6666666666666" r="3" fill="black"></circle><circle cx="253.1214953271028" cy="157.39215686274508" r="3" fill="black"></circle><circle cx="424.1495327102803" cy="143.70588235294122" r="3" fill="black"></circle><circle cx="246.28037383177568" cy="444.80392156862746" r="3" fill="black"></circle><circle cx="301.0093457943925" cy="177.92156862745094" r="3" fill="black"></circle><circle cx="636.2242990654205" cy="431.11764705882354" r="3" fill="black"></circle><circle cx="430.9906542056074" cy="82.11764705882354" r="3" fill="black"></circle><circle cx="225.7570093457944" cy="116.33333333333326" r="3" fill="black"></circle><circle cx="171.02803738317758" cy="663.7843137254902" r="3" fill="black"></circle><circle cx="704.6355140186915" cy="540.6078431372549" r="3" fill="black"></circle><circle cx="164.18691588785046" cy="451.6470588235294" r="3" fill="black"></circle><circle cx="116.29906542056074" cy="540.6078431372549" r="3" fill="black"></circle><circle cx="61.57009345794392" cy="458.4901960784314" r="3" fill="black"></circle><circle cx="533.607476635514" cy="335.3137254901961" r="3" fill="black"></circle><circle cx="697.7943925233645" cy="383.2156862745098" r="3" fill="black"></circle><circle cx="136.82242990654206" cy="444.80392156862746" r="3" fill="black"></circle><circle cx="82.09345794392523" cy="622.7254901960785" r="3" fill="black"></circle><circle cx="164.18691588785046" cy="349" r="3" fill="black"></circle><circle cx="184.71028037383175" cy="403.7450980392157" r="3" fill="black"></circle><circle cx="177.86915887850466" cy="280.5686274509804" r="3" fill="black"></circle><circle cx="478.8785046728972" cy="369.5294117647059" r="3" fill="black"></circle><circle cx="465.19626168224295" cy="13.68627450980398" r="3" fill="black"></circle><circle cx="348.89719626168227" cy="280.5686274509804" r="3" fill="black"></circle><circle cx="424.1495327102803" cy="123.17647058823536" r="3" fill="black"></circle><circle cx="20.523364485981308" cy="424.27450980392155" r="3" fill="black"></circle><circle cx="574.6542056074766" cy="629.5686274509803" r="3" fill="black"></circle><circle cx="697.7943925233645" cy="335.3137254901961" r="3" fill="black"></circle><circle cx="225.7570093457944" cy="95.8039215686274" r="3" fill="black"></circle><circle cx="273.6448598130841" cy="6.84313725490199" r="3" fill="black"></circle><circle cx="615.7009345794393" cy="205.29411764705878" r="3" fill="black"></circle><circle cx="314.69158878504675" cy="396.9019607843137" r="3" fill="black"></circle><circle cx="588.3364485981308" cy="130.01960784313724" r="3" fill="black"></circle><circle cx="239.4392523364486" cy="622.7254901960785" r="3" fill="black"></circle><circle cx="34.205607476635514" cy="136.86274509803923" r="3" fill="black"></circle><circle cx="417.30841121495325" cy="520.0784313725491" r="3" fill="black"></circle><circle cx="314.69158878504675" cy="472.17647058823525" r="3" fill="black"></circle><circle cx="636.2242990654205" cy="246.35294117647055" r="3" fill="black"></circle><circle cx="670.4299065420561" cy="602.1960784313726" r="3" fill="black"></circle><circle cx="171.02803738317758" cy="212.13725490196083" r="3" fill="black"></circle><circle cx="287.3271028037383" cy="595.3529411764706" r="3" fill="black"></circle><circle cx="704.6355140186915" cy="540.6078431372549" r="3" fill="black"></circle><circle cx="684.1121495327103" cy="643.2549019607843" r="3" fill="black"></circle><circle cx="690.9532710280374" cy="383.2156862745098" r="3" fill="black"></circle><circle cx="239.4392523364486" cy="403.7450980392157" r="3" fill="black"></circle><circle cx="424.1495327102803" cy="602.1960784313726" r="3" fill="black"></circle><circle cx="403.626168224299" cy="431.11764705882354" r="3" fill="black"></circle><circle cx="602.018691588785" cy="321.62745098039215" r="3" fill="black"></circle><circle cx="348.89719626168227" cy="102.64705882352939" r="3" fill="black"></circle><circle cx="430.9906542056074" cy="602.1960784313726" r="3" fill="black"></circle><circle cx="519.9252336448598" cy="321.62745098039215" r="3" fill="black"></circle><circle cx="102.61682242990653" cy="410.5882352941177" r="3" fill="black"></circle><circle cx="478.8785046728972" cy="54.74509803921569" r="3" fill="black"></circle><circle cx="307.85046728971963" cy="636.4117647058823" r="3" fill="black"></circle><circle cx="383.10280373831773" cy="499.54901960784315" r="3" fill="black"></circle><circle cx="526.7663551401869" cy="198.45098039215685" r="3" fill="black"></circle><circle cx="47.88785046728972" cy="677.4705882352941" r="3" fill="black"></circle><circle cx="253.1214953271028" cy="239.50980392156862" r="3" fill="black"></circle><circle cx="643.0654205607476" cy="280.5686274509804" r="3" fill="black"></circle><circle cx="437.83177570093454" cy="383.2156862745098" r="3" fill="black"></circle><circle cx="684.1121495327103" cy="171.07843137254906" r="3" fill="black"></circle><circle cx="27.36448598130841" cy="547.4509803921569" r="3" fill="black"></circle><circle cx="424.1495327102803" cy="410.5882352941177" r="3" fill="black"></circle><circle cx="280.4859813084112" cy="636.4117647058823" r="3" fill="black"></circle><circle cx="307.85046728971963" cy="61.58823529411768" r="3" fill="black"></circle><circle cx="574.6542056074766" cy="177.92156862745094" r="3" fill="black"></circle><circle cx="704.6355140186915" cy="451.6470588235294" r="3" fill="black"></circle><circle cx="123.14018691588784" cy="225.8235294117647" r="3" fill="black"></circle><circle cx="47.88785046728972" cy="294.25490196078425" r="3" fill="black"></circle><circle cx="560.9719626168225" cy="171.07843137254906" r="3" fill="black"></circle><circle cx="663.588785046729" cy="342.15686274509807" r="3" fill="black"></circle><circle cx="212.07476635514016" cy="68.43137254901956" r="3" fill="black"></circle><circle cx="287.3271028037383" cy="643.2549019607843" r="3" fill="black"></circle><circle cx="547.2897196261682" cy="417.4313725490196" r="3" fill="black"></circle><circle cx="68.41121495327103" cy="349" r="3" fill="black"></circle><circle cx="513.0841121495326" cy="328.4705882352941" r="3" fill="black"></circle><circle cx="677.2710280373832" cy="184.76470588235293" r="3" fill="black"></circle><circle cx="362.57943925233644" cy="376.37254901960785" r="3" fill="black"></circle><circle cx="232.59813084112147" cy="547.4509803921569" r="3" fill="black"></circle><circle cx="54.72897196261682" cy="68.43137254901956" r="3" fill="black"></circle><circle cx="560.9719626168225" cy="595.3529411764706" r="3" fill="black"></circle><circle cx="27.36448598130841" cy="513.2352941176471" r="3" fill="black"></circle><circle cx="417.30841121495325" cy="533.7647058823529" r="3" fill="black"></circle><circle cx="54.72897196261682" cy="403.7450980392157" r="3" fill="black"></circle><circle cx="519.9252336448598" cy="417.4313725490196" r="3" fill="black"></circle><circle cx="369.4205607476635" cy="225.8235294117647" r="3" fill="black"></circle><circle cx="424.1495327102803" cy="307.94117647058823" r="3" fill="black"></circle><circle cx="27.36448598130841" cy="431.11764705882354" r="3" fill="black"></circle><circle cx="239.4392523364486" cy="143.70588235294122" r="3" fill="black"></circle><circle cx="677.2710280373832" cy="246.35294117647055" r="3" fill="black"></circle><circle cx="574.6542056074766" cy="520.0784313725491" r="3" fill="black"></circle><circle cx="697.7943925233645" cy="499.54901960784315" r="3" fill="black"></circle><circle cx="116.29906542056074" cy="602.1960784313726" r="3" fill="black"></circle><circle cx="34.205607476635514" cy="650.0980392156863" r="3" fill="black"></circle><circle cx="164.18691588785046" cy="109.49019607843138" r="3" fill="black"></circle><circle cx="567.8130841121496" cy="561.1372549019608" r="3" fill="black"></circle><circle cx="109.45794392523364" cy="362.6862745098039" r="3" fill="black"></circle><circle cx="191.55140186915887" cy="6.84313725490199" r="3" fill="black"></circle><circle cx="82.09345794392523" cy="294.25490196078425" r="3" fill="black"></circle><circle cx="581.4953271028037" cy="102.64705882352939" r="3" fill="black"></circle><circle cx="61.57009345794392" cy="506.3921568627451" r="3" fill="black"></circle><circle cx="704.6355140186915" cy="164.23529411764707" r="3" fill="black"></circle><circle cx="608.8598130841121" cy="479.01960784313724" r="3" fill="black"></circle><circle cx="307.85046728971963" cy="164.23529411764707" r="3" fill="black"></circle><circle cx="437.83177570093454" cy="650.0980392156863" r="3" fill="black"></circle><circle cx="677.2710280373832" cy="403.7450980392157" r="3" fill="black"></circle><circle cx="348.89719626168227" cy="13.68627450980398" r="3" fill="black"></circle><circle cx="478.8785046728972" cy="499.54901960784315" r="3" fill="black"></circle><circle cx="499.40186915887847" cy="403.7450980392157" r="3" fill="black"></circle><circle cx="273.6448598130841" cy="287.4117647058823" r="3" fill="black"></circle><circle cx="403.626168224299" cy="424.27450980392155" r="3" fill="black"></circle><circle cx="547.2897196261682" cy="88.96078431372553" r="3" fill="black"></circle><circle cx="47.88785046728972" cy="444.80392156862746" r="3" fill="black"></circle><circle cx="218.91588785046727" cy="520.0784313725491" r="3" fill="black"></circle><circle cx="677.2710280373832" cy="437.96078431372547" r="3" fill="black"></circle><circle cx="663.588785046729" cy="458.4901960784314" r="3" fill="black"></circle><circle cx="533.607476635514" cy="417.4313725490196" r="3" fill="black"></circle><circle cx="68.41121495327103" cy="212.13725490196083" r="3" fill="black"></circle><circle cx="54.72897196261682" cy="513.2352941176471" r="3" fill="black"></circle><circle cx="253.1214953271028" cy="561.1372549019608" r="3" fill="black"></circle><circle cx="417.30841121495325" cy="622.7254901960785" r="3" fill="black"></circle><circle cx="424.1495327102803" cy="417.4313725490196" r="3" fill="black"></circle><circle cx="444.67289719626166" cy="622.7254901960785" r="3" fill="black"></circle><circle cx="301.0093457943925" cy="88.96078431372553" r="3" fill="black"></circle><circle cx="157.34579439252337" cy="424.27450980392155" r="3" fill="black"></circle><circle cx="177.86915887850466" cy="369.5294117647059" r="3" fill="black"></circle><circle cx="478.8785046728972" cy="526.921568627451" r="3" fill="black"></circle><circle cx="677.2710280373832" cy="362.6862745098039" r="3" fill="black"></circle><circle cx="212.07476635514016" cy="266.88235294117646" r="3" fill="black"></circle><circle cx="554.1308411214953" cy="335.3137254901961" r="3" fill="black"></circle><circle cx="622.5420560747664" cy="561.1372549019608" r="3" fill="black"></circle><circle cx="157.34579439252337" cy="171.07843137254906" r="3" fill="black"></circle><circle cx="171.02803738317758" cy="547.4509803921569" r="3" fill="black"></circle><circle cx="287.3271028037383" cy="321.62745098039215" r="3" fill="black"></circle><circle cx="444.67289719626166" cy="47.9019607843137" r="3" fill="black"></circle><circle cx="451.5140186915888" cy="520.0784313725491" r="3" fill="black"></circle><circle cx="27.36448598130841" cy="273.72549019607845" r="3" fill="black"></circle><circle cx="704.6355140186915" cy="260.03921568627453" r="3" fill="black"></circle><circle cx="75.25233644859813" cy="61.58823529411768" r="3" fill="black"></circle><circle cx="307.85046728971963" cy="485.8627450980392" r="3" fill="black"></circle><circle cx="526.7663551401869" cy="307.94117647058823" r="3" fill="black"></circle><circle cx="335.21495327102804" cy="567.9803921568628" r="3" fill="black"></circle><circle cx="622.5420560747664" cy="526.921568627451" r="3" fill="black"></circle><circle cx="458.35514018691583" cy="273.72549019607845" r="3" fill="black"></circle><circle cx="472.03738317757006" cy="294.25490196078425" r="3" fill="black"></circle><circle cx="506.2429906542056" cy="307.94117647058823" r="3" fill="black"></circle><circle cx="136.82242990654206" cy="499.54901960784315" r="3" fill="black"></circle><circle cx="218.91588785046727" cy="41.058823529411825" r="3" fill="black"></circle><circle cx="424.1495327102803" cy="615.8823529411765" r="3" fill="black"></circle><circle cx="451.5140186915888" cy="458.4901960784314" r="3" fill="black"></circle><circle cx="485.7196261682243" cy="266.88235294117646" r="3" fill="black"></circle><circle cx="478.8785046728972" cy="27.372549019607845" r="3" fill="black"></circle><circle cx="68.41121495327103" cy="533.7647058823529" r="3" fill="black"></circle><circle cx="403.626168224299" cy="499.54901960784315" r="3" fill="black"></circle><circle cx="567.8130841121496" cy="307.94117647058823" r="3" fill="black"></circle><circle cx="499.40186915887847" cy="636.4117647058823" r="3" fill="black"></circle><circle cx="246.28037383177568" cy="205.29411764705878" r="3" fill="black"></circle><circle cx="383.10280373831773" cy="75.27450980392155" r="3" fill="black"></circle><circle cx="485.7196261682243" cy="27.372549019607845" r="3" fill="black"></circle><circle cx="355.7383177570093" cy="670.6274509803922" r="3" fill="black"></circle><circle cx="615.7009345794393" cy="574.8235294117646" r="3" fill="black"></circle><circle cx="615.7009345794393" cy="253.1960784313726" r="3" fill="black"></circle><circle cx="567.8130841121496" cy="656.9411764705883" r="3" fill="black"></circle><circle cx="294.1682242990654" cy="239.50980392156862" r="3" fill="black"></circle><circle cx="697.7943925233645" cy="609.0392156862745" r="3" fill="black"></circle><circle cx="595.1775700934579" cy="177.92156862745094" r="3" fill="black"></circle><circle cx="506.2429906542056" cy="479.01960784313724" r="3" fill="black"></circle><circle cx="301.0093457943925" cy="410.5882352941177" r="3" fill="black"></circle><circle cx="588.3364485981308" cy="588.5098039215686" r="3" fill="black"></circle></g><rect width="732" height="698" style="fill: none; pointer-events: all;"></rect></g></svg>