<svg id="displayArea" xmlns="http://www.w3.org/2000/svg" width="739" height="649" style="background-color: white;"><g transform="translate(50,10)"><g transform="translate(-0.5,619)" fill="none" font-size="10" font-family="sans-serif" text-anchor="middle"><path class="domain" stroke="#000" d="M0.5,6V0.5H674.5V6" style="stroke: black;"></path><g class="tick" opacity="1" transform="translate(30.589285714285715,0)"><line stroke="#000" y2="6" style="stroke-width: 1; opacity: 1; stroke: black;"></line><text fill="#000" y="9" dy="0.71em" style="fill: black;">-50</text></g><g class="tick" opacity="1" transform="translate(90.76785714285714,0)"><line stroke="#000" y2="6" style="stroke-width: 1; opacity: 1; stroke: black;"></line><text fill="#000" y="9" dy="0.71em" style="fill: black;">-40</text></g><g class="tick" opacity="1" transform="translate(150.94642857142858,0)"><line stroke="#000" y2="6" style="stroke-width: 1; opacity: 1; stroke: black;"></line><text fill="#000" y="9" dy="0.71em" style="fill: black;">-30</text></g><g class="tick" opacity="1" transform="translate(211.125,0)"><line stroke="#000" y2="6" style="stroke-width: 1; opacity: 1; stroke: black;"></line><text fill="#000" y="9" dy="0.71em" style="fill: black;">-20</text></g><g class="tick" opacity="1" transform="translate(271.30357142857144,0)"><line stroke="#000" y2="6" style="stroke-width: 1; opacity: 1; stroke: black;"></line><text fill="#000" y="9" dy="0.71em" style="fill: black;">-10</text></g><g class="tick" opacity="1" transform="translate(331.48214285714283,0)"><line stroke="#000" y2="6" style="stroke-width: 1; opacity: 1; stroke: black;"></line><text fill="#000" y="9" dy="0.71em" style="fill: black;">0</text></g><g class="tick" opacity="1" transform="translate(391.66071428571433,0)"><line stroke="#000" y2="6" style="stroke-width: 1; opacity: 1; stroke: black;"></line><text fill="#000" y="9" dy="0.71em" style="fill: black;">10</text></g><g class="tick" opacity="1" transform="translate(451.83928571428567,0)"><line stroke="#000" y2="6" style="stroke-width: 1; opacity: 1; stroke: black;"></line><text fill="#000" y="9" dy="0.71em" style="fill: black;">20</text></g><g class="tick" opacity="1" transform="translate(512.0178571428571,0)"><line stroke="#000" y2="6" style="stroke-width: 1; opacity: 1; stroke: black;"></line><text fill="#000" y="9" dy="0.71em" style="fill: black;">30</text></g><g class="tick" opacity="1" transform="translate(572.1964285714286,0)"><line stroke="#000" y2="6" style="stroke-width: 1; opacity: 1; stroke: black;"></line><text fill="#000" y="9" dy="0.71em" style="fill: black;">40</text></g><g class="tick" opacity="1" transform="translate(632.375,0)"><line stroke="#000" y2="6" style="stroke-width: 1; opacity: 1; stroke: black;"></line><text fill="#000" y="9" dy="0.71em" style="fill: black;">50</text></g></g><g transform="translate(0,-0.5)" fill="none" font-size="10" font-family="sans-serif" text-anchor="end"><path class="domain" stroke="#000" d="M-6,619.5H0.5V0.5H-6" style="stroke: black;"></path><g class="tick" opacity="1" transform="translate(0,613.4313725490196)"><line stroke="#000" x2="-6" style="stroke-width: 1; opacity: 1; stroke: black;"></line><text fill="#000" x="-9" dy="0.32em" style="fill: black;">-50</text></g><g class="tick" opacity="1" transform="translate(0,552.7450980392157)"><line stroke="#000" x2="-6" style="stroke-width: 1; opacity: 1; stroke: black;"></line><text fill="#000" x="-9" dy="0.32em" style="fill: black;">-40</text></g><g class="tick" opacity="1" transform="translate(0,492.05882352941177)"><line stroke="#000" x2="-6" style="stroke-width: 1; opacity: 1; stroke: black;"></line><text fill="#000" x="-9" dy="0.32em" style="fill: black;">-30</text></g><g class="tick" opacity="1" transform="translate(0,431.37254901960785)"><line stroke="#000" x2="-6" style="stroke-width: 1; opacity: 1; stroke: black;"></line><text fill="#000" x="-9" dy="0.32em" style="fill: black;">-20</text></g><g class="tick" opacity="1" transform="translate(0,370.6862745098039)"><line stroke="#000" x2="-6" style="stroke-width: 1; opacity: 1; stroke: black;"></line><text fill="#000" x="-9" dy="0.32em" style="fill: black;">-10</text></g><g class="tick" opacity="1" transform="translate(0,310)"><line stroke="#000" x2="-6" style="stroke-width: 1; opacity: 1; stroke: black;"></line><text fill="#000" x="-9" dy="0.32em" style="fill: black;">0</text></g><g class="tick" opacity="1" transform="translate(0,249.31372549019608)"><line stroke="#000" x2="-6" style="stroke-width: 1; opacity: 1; stroke: black;"></line><text fill="#000" x="-9" dy="0.32em" style="fill: black;">10</text></g><g class="tick" opacity="1" transform="translate(0,188.62745098039215)"><line stroke="#000" x2="-6" style="stroke-width: 1; opacity: 1; stroke: black;"></line><text fill="#000" x="-9" dy="0.32em" style="fill: black;">20</text></g><g class="tick" opacity="1" transform="translate(0,127.94117647058829)"><line stroke="#000" x2="-6" style="stroke-width: 1; opacity: 1; stroke: black;"></line><text fill="#000" x="-9" dy="0.32em" style="fill: black;">30</text></g><g class="tick" opacity="1" transform="translate(0,67.25490196078431)"><line stroke="#000" x2="-6" style="stroke-width: 1; opacity: 1; stroke: black;"></line><text fill="#000" x="-9" dy="0.32em" style="fill: black;">40</text></g><g class="tick" opacity="1" transform="translate(0,6.56862745098033)"><line stroke="#000" x2="-6" style="stroke-width: 1; opacity: 1; stroke: black;"></line><text fill="#000" x="-9" dy="0.32em" style="fill: black;">50</text></g></g><defs><clipPath id="clip"><rect width="674" height="619" x="0" y="0"></rect></clipPath></defs><g clip-path="url(#clip)"><polygon points="439.30357142857144,612.9313725490196 84.25,606.8627450980392 252.75,606.8627450980392 174.51785714285717,600.7941176470588 294.875,600.7941176470588 216.64285714285717,588.656862745098 198.58928571428572,576.5196078431372 216.64285714285717,576.5196078431372 403.19642857142856,606.8627450980392 409.21428571428567,606.8627450980392 246.73214285714283,552.2450980392157 114.33928571428572,497.62745098039215 132.39285714285714,491.55882352941177 54.16071428571429,424.80392156862746 78.23214285714286,430.87254901960785 102.30357142857142,430.87254901960785 66.19642857142857,400.52941176470586 138.41071428571428,388.3921568627451 138.41071428571428,388.3921568627451 156.46428571428572,370.1862745098039 318.94642857142856,503.69607843137254 96.28571428571428,291.29411764705884 72.21428571428571,267.0196078431373 156.46428571428572,327.70588235294116 192.57142857142856,339.84313725490193 42.125,151.71568627450984 78.23214285714286,133.50980392156862 349.03571428571433,491.55882352941177 234.69642857142856,333.7745098039216 138.41071428571428,194.19607843137254 120.35714285714286,151.71568627450984 222.66071428571428,297.36274509803917 270.80357142857144,364.11764705882354 102.30357142857142,109.23529411764707 168.5,200.26470588235293 78.23214285714286,42.48039215686276 210.625,248.81372549019608 114.33928571428572,91.02941176470586 186.55357142857144,175.99019607843138 102.30357142857142,18.205882352941217 108.32142857142858,18.205882352941217 294.875,339.84313725490193 312.92857142857144,370.1862745098039 198.58928571428572,115.30392156862746 222.66071428571428,127.44117647058829 180.53571428571428,12.137254901960773 306.9107142857143,279.156862745098 415.2321428571429,546.1764705882352 258.76785714285717,109.23529411764707 258.76785714285717,97.0980392156863 288.85714285714283,182.0588235294117 282.8392857142857,157.78431372549016 312.92857142857144,103.16666666666663 361.07142857142856,236.6764705882353 330.98214285714283,54.617647058823536 343.0178571428571,115.30392156862746 355.05357142857144,163.85294117647055 373.1071428571429,248.81372549019608 385.1428571428571,200.26470588235293 415.2321428571429,327.70588235294116 403.19642857142856,78.89215686274508 421.25,315.5686274509804 403.19642857142856,18.205882352941217 415.2321428571429,139.578431372549 415.2321428571429,109.23529411764707 427.2678571428571,84.96078431372541 439.30357142857144,546.1764705882352 463.375,169.921568627451 469.3928571428571,103.16666666666663 463.375,285.22549019607845 481.42857142857144,72.82352941176475 487.44642857142856,66.75490196078431 469.3928571428571,291.29411764705884 505.5,30.34313725490199 505.5,54.617647058823536 493.46428571428567,224.53921568627453 517.5357142857143,66.75490196078431 523.5535714285714,97.0980392156863 481.42857142857144,370.1862745098039 547.625,18.205882352941217 541.6071428571429,218.4705882352941 559.6607142857143,151.71568627450984 589.75,60.686274509803866 517.5357142857143,351.9803921568627 601.7857142857143,78.89215686274508 631.875,6.06862745098033 493.46428571428567,443.0098039215686 601.7857142857143,109.23529411764707 475.41071428571433,521.9019607843137 517.5357142857143,430.87254901960785 601.7857142857143,291.29411764705884 625.8571428571429,260.95098039215685 613.8214285714286,303.4313725490196 553.6428571428571,424.80392156862746 481.42857142857144,552.2450980392157 607.8035714285714,418.7352941176471 535.5892857142857,540.1078431372549 565.6785714285714,546.1764705882352 535.5892857142857,606.8627450980392 613.8214285714286,606.8627450980392" style="fill:none;stroke:black;stroke-width:1"></polygon><circle cx="409.21428571428567" cy="606.8627450980392" r="3" fill="black"></circle><circle cx="601.7857142857143" cy="291.29411764705884" r="3" fill="black"></circle><circle cx="493.46428571428567" cy="224.53921568627453" r="3" fill="black"></circle><circle cx="216.64285714285717" cy="588.656862745098" r="3" fill="black"></circle><circle cx="294.875" cy="600.7941176470588" r="3" fill="black"></circle><circle cx="385.1428571428571" cy="200.26470588235293" r="3" fill="black"></circle><circle cx="138.41071428571428" cy="388.3921568627451" r="3" fill="black"></circle><circle cx="421.25" cy="315.5686274509804" r="3" fill="black"></circle><circle cx="613.8214285714286" cy="303.4313725490196" r="3" fill="black"></circle><circle cx="168.5" cy="200.26470588235293" r="3" fill="black"></circle><circle cx="42.125" cy="151.71568627450984" r="3" fill="black"></circle><circle cx="282.8392857142857" cy="157.78431372549016" r="3" fill="black"></circle><circle cx="601.7857142857143" cy="109.23529411764707" r="3" fill="black"></circle><circle cx="66.19642857142857" cy="400.52941176470586" r="3" fill="black"></circle><circle cx="114.33928571428572" cy="497.62745098039215" r="3" fill="black"></circle><circle cx="517.5357142857143" cy="430.87254901960785" r="3" fill="black"></circle><circle cx="252.75" cy="606.8627450980392" r="3" fill="black"></circle><circle cx="108.32142857142858" cy="18.205882352941217" r="3" fill="black"></circle><circle cx="403.19642857142856" cy="78.89215686274508" r="3" fill="black"></circle><circle cx="469.3928571428571" cy="103.16666666666663" r="3" fill="black"></circle><circle cx="156.46428571428572" cy="370.1862745098039" r="3" fill="black"></circle><circle cx="565.6785714285714" cy="546.1764705882352" r="3" fill="black"></circle><circle cx="373.1071428571429" cy="248.81372549019608" r="3" fill="black"></circle><circle cx="192.57142857142856" cy="339.84313725490193" r="3" fill="black"></circle><circle cx="288.85714285714283" cy="182.0588235294117" r="3" fill="black"></circle><circle cx="523.5535714285714" cy="97.0980392156863" r="3" fill="black"></circle><circle cx="541.6071428571429" cy="218.4705882352941" r="3" fill="black"></circle><circle cx="505.5" cy="30.34313725490199" r="3" fill="black"></circle><circle cx="481.42857142857144" cy="552.2450980392157" r="3" fill="black"></circle><circle cx="403.19642857142856" cy="18.205882352941217" r="3" fill="black"></circle><circle cx="78.23214285714286" cy="133.50980392156862" r="3" fill="black"></circle><circle cx="312.92857142857144" cy="370.1862745098039" r="3" fill="black"></circle><circle cx="54.16071428571429" cy="424.80392156862746" r="3" fill="black"></circle><circle cx="355.05357142857144" cy="163.85294117647055" r="3" fill="black"></circle><circle cx="535.5892857142857" cy="540.1078431372549" r="3" fill="black"></circle><circle cx="493.46428571428567" cy="443.0098039215686" r="3" fill="black"></circle><circle cx="631.875" cy="6.06862745098033" r="3" fill="black"></circle><circle cx="102.30357142857142" cy="430.87254901960785" r="3" fill="black"></circle><circle cx="78.23214285714286" cy="42.48039215686276" r="3" fill="black"></circle><circle cx="132.39285714285714" cy="491.55882352941177" r="3" fill="black"></circle><circle cx="246.73214285714283" cy="552.2450980392157" r="3" fill="black"></circle><circle cx="415.2321428571429" cy="546.1764705882352" r="3" fill="black"></circle><circle cx="186.55357142857144" cy="175.99019607843138" r="3" fill="black"></circle><circle cx="198.58928571428572" cy="576.5196078431372" r="3" fill="black"></circle><circle cx="463.375" cy="169.921568627451" r="3" fill="black"></circle><circle cx="138.41071428571428" cy="388.3921568627451" r="3" fill="black"></circle><circle cx="613.8214285714286" cy="606.8627450980392" r="3" fill="black"></circle><circle cx="559.6607142857143" cy="151.71568627450984" r="3" fill="black"></circle><circle cx="535.5892857142857" cy="606.8627450980392" r="3" fill="black"></circle><circle cx="481.42857142857144" cy="370.1862745098039" r="3" fill="black"></circle><circle cx="589.75" cy="60.686274509803866" r="3" fill="black"></circle><circle cx="222.66071428571428" cy="127.44117647058829" r="3" fill="black"></circle><circle cx="553.6428571428571" cy="424.80392156862746" r="3" fill="black"></circle><circle cx="102.30357142857142" cy="109.23529411764707" r="3" fill="black"></circle><circle cx="222.66071428571428" cy="297.36274509803917" r="3" fill="black"></circle><circle cx="198.58928571428572" cy="115.30392156862746" r="3" fill="black"></circle><circle cx="607.8035714285714" cy="418.7352941176471" r="3" fill="black"></circle><circle cx="475.41071428571433" cy="521.9019607843137" r="3" fill="black"></circle><circle cx="210.625" cy="248.81372549019608" r="3" fill="black"></circle><circle cx="439.30357142857144" cy="546.1764705882352" r="3" fill="black"></circle><circle cx="120.35714285714286" cy="151.71568627450984" r="3" fill="black"></circle><circle cx="505.5" cy="54.617647058823536" r="3" fill="black"></circle><circle cx="403.19642857142856" cy="606.8627450980392" r="3" fill="black"></circle><circle cx="487.44642857142856" cy="66.75490196078431" r="3" fill="black"></circle><circle cx="84.25" cy="606.8627450980392" r="3" fill="black"></circle><circle cx="517.5357142857143" cy="66.75490196078431" r="3" fill="black"></circle><circle cx="114.33928571428572" cy="91.02941176470586" r="3" fill="black"></circle><circle cx="439.30357142857144" cy="612.9313725490196" r="3" fill="black"></circle><circle cx="469.3928571428571" cy="291.29411764705884" r="3" fill="black"></circle><circle cx="258.76785714285717" cy="97.0980392156863" r="3" fill="black"></circle><circle cx="318.94642857142856" cy="503.69607843137254" r="3" fill="black"></circle><circle cx="517.5357142857143" cy="351.9803921568627" r="3" fill="black"></circle><circle cx="463.375" cy="285.22549019607845" r="3" fill="black"></circle><circle cx="343.0178571428571" cy="115.30392156862746" r="3" fill="black"></circle><circle cx="481.42857142857144" cy="72.82352941176475" r="3" fill="black"></circle><circle cx="415.2321428571429" cy="327.70588235294116" r="3" fill="black"></circle><circle cx="625.8571428571429" cy="260.95098039215685" r="3" fill="black"></circle><circle cx="601.7857142857143" cy="78.89215686274508" r="3" fill="black"></circle><circle cx="312.92857142857144" cy="103.16666666666663" r="3" fill="black"></circle><circle cx="174.51785714285717" cy="600.7941176470588" r="3" fill="black"></circle><circle cx="330.98214285714283" cy="54.617647058823536" r="3" fill="black"></circle><circle cx="258.76785714285717" cy="109.23529411764707" r="3" fill="black"></circle><circle cx="415.2321428571429" cy="109.23529411764707" r="3" fill="black"></circle><circle cx="102.30357142857142" cy="18.205882352941217" r="3" fill="black"></circle><circle cx="156.46428571428572" cy="327.70588235294116" r="3" fill="black"></circle><circle cx="349.03571428571433" cy="491.55882352941177" r="3" fill="black"></circle><circle cx="415.2321428571429" cy="139.578431372549" r="3" fill="black"></circle><circle cx="270.80357142857144" cy="364.11764705882354" r="3" fill="black"></circle><circle cx="294.875" cy="339.84313725490193" r="3" fill="black"></circle><circle cx="234.69642857142856" cy="333.7745098039216" r="3" fill="black"></circle><circle cx="180.53571428571428" cy="12.137254901960773" r="3" fill="black"></circle><circle cx="306.9107142857143" cy="279.156862745098" r="3" fill="black"></circle><circle cx="78.23214285714286" cy="430.87254901960785" r="3" fill="black"></circle><circle cx="361.07142857142856" cy="236.6764705882353" r="3" fill="black"></circle><circle cx="427.2678571428571" cy="84.96078431372541" r="3" fill="black"></circle><circle cx="547.625" cy="18.205882352941217" r="3" fill="black"></circle><circle cx="72.21428571428571" cy="267.0196078431373" r="3" fill="black"></circle><circle cx="216.64285714285717" cy="576.5196078431372" r="3" fill="black"></circle><circle cx="96.28571428571428" cy="291.29411764705884" r="3" fill="black"></circle><circle cx="138.41071428571428" cy="194.19607843137254" r="3" fill="black"></circle></g><rect width="674" height="619" style="fill: none; pointer-events: all;"></rect></g></svg>