<svg id="displayArea" xmlns="http://www.w3.org/2000/svg" width="738" height="649" style="background-color: white;"><g transform="translate(50,10)"><g transform="translate(-0.5,619)" fill="none" font-size="10" font-family="sans-serif" text-anchor="middle"><path class="domain" stroke="#000" d="M0.5,6V0.5H673.5V6" style="stroke: black;"></path><g class="tick" opacity="1" transform="translate(24.75225225225225,0)"><line stroke="#000" y2="6" style="stroke-width: 1; opacity: 1; stroke: black;"></line><text fill="#000" y="9" dy="0.71em" style="fill: black;">-50</text></g><g class="tick" opacity="1" transform="translate(85.38288288288288,0)"><line stroke="#000" y2="6" style="stroke-width: 1; opacity: 1; stroke: black;"></line><text fill="#000" y="9" dy="0.71em" style="fill: black;">-40</text></g><g class="tick" opacity="1" transform="translate(146.01351351351352,0)"><line stroke="#000" y2="6" style="stroke-width: 1; opacity: 1; stroke: black;"></line><text fill="#000" y="9" dy="0.71em" style="fill: black;">-30</text></g><g class="tick" opacity="1" transform="translate(206.64414414414412,0)"><line stroke="#000" y2="6" style="stroke-width: 1; opacity: 1; stroke: black;"></line><text fill="#000" y="9" dy="0.71em" style="fill: black;">-20</text></g><g class="tick" opacity="1" transform="translate(267.27477477477476,0)"><line stroke="#000" y2="6" style="stroke-width: 1; opacity: 1; stroke: black;"></line><text fill="#000" y="9" dy="0.71em" style="fill: black;">-10</text></g><g class="tick" opacity="1" transform="translate(327.9054054054054,0)"><line stroke="#000" y2="6" style="stroke-width: 1; opacity: 1; stroke: black;"></line><text fill="#000" y="9" dy="0.71em" style="fill: black;">0</text></g><g class="tick" opacity="1" transform="translate(388.536036036036,0)"><line stroke="#000" y2="6" style="stroke-width: 1; opacity: 1; stroke: black;"></line><text fill="#000" y="9" dy="0.71em" style="fill: black;">10</text></g><g class="tick" opacity="1" transform="translate(449.16666666666663,0)"><line stroke="#000" y2="6" style="stroke-width: 1; opacity: 1; stroke: black;"></line><text fill="#000" y="9" dy="0.71em" style="fill: black;">20</text></g><g class="tick" opacity="1" transform="translate(509.79729729729735,0)"><line stroke="#000" y2="6" style="stroke-width: 1; opacity: 1; stroke: black;"></line><text fill="#000" y="9" dy="0.71em" style="fill: black;">30</text></g><g class="tick" opacity="1" transform="translate(570.427927927928,0)"><line stroke="#000" y2="6" style="stroke-width: 1; opacity: 1; stroke: black;"></line><text fill="#000" y="9" dy="0.71em" style="fill: black;">40</text></g><g class="tick" opacity="1" transform="translate(631.0585585585585,0)"><line stroke="#000" y2="6" style="stroke-width: 1; opacity: 1; stroke: black;"></line><text fill="#000" y="9" dy="0.71em" style="fill: black;">50</text></g></g><g transform="translate(0,-0.5)" fill="none" font-size="10" font-family="sans-serif" text-anchor="end"><path class="domain" stroke="#000" d="M-6,619.5H0.5V0.5H-6" style="stroke: black;"></path><g class="tick" opacity="1" transform="translate(0,613.4313725490196)"><line stroke="#000" x2="-6" style="stroke-width: 1; opacity: 1; stroke: black;"></line><text fill="#000" x="-9" dy="0.32em" style="fill: black;">-50</text></g><g class="tick" opacity="1" transform="translate(0,552.7450980392157)"><line stroke="#000" x2="-6" style="stroke-width: 1; opacity: 1; stroke: black;"></line><text fill="#000" x="-9" dy="0.32em" style="fill: black;">-40</text></g><g class="tick" opacity="1" transform="translate(0,492.05882352941177)"><line stroke="#000" x2="-6" style="stroke-width: 1; opacity: 1; stroke: black;"></line><text fill="#000" x="-9" dy="0.32em" style="fill: black;">-30</text></g><g class="tick" opacity="1" transform="translate(0,431.37254901960785)"><line stroke="#000" x2="-6" style="stroke-width: 1; opacity: 1; stroke: black;"></line><text fill="#000" x="-9" dy="0.32em" style="fill: black;">-20</text></g><g class="tick" opacity="1" transform="translate(0,370.6862745098039)"><line stroke="#000" x2="-6" style="stroke-width: 1; opacity: 1; stroke: black;"></line><text fill="#000" x="-9" dy="0.32em" style="fill: black;">-10</text></g><g class="tick" opacity="1" transform="translate(0,310)"><line stroke="#000" x2="-6" style="stroke-width: 1; opacity: 1; stroke: black;"></line><text fill="#000" x="-9" dy="0.32em" style="fill: black;">0</text></g><g class="tick" opacity="1" transform="translate(0,249.31372549019608)"><line stroke="#000" x2="-6" style="stroke-width: 1; opacity: 1; stroke: black;"></line><text fill="#000" x="-9" dy="0.32em" style="fill: black;">10</text></g><g class="tick" opacity="1" transform="translate(0,188.62745098039215)"><line stroke="#000" x2="-6" style="stroke-width: 1; opacity: 1; stroke: black;"></line><text fill="#000" x="-9" dy="0.32em" style="fill: black;">20</text></g><g class="tick" opacity="1" transform="translate(0,127.94117647058829)"><line stroke="#000" x2="-6" style="stroke-width: 1; opacity: 1; stroke: black;"></line><text fill="#000" x="-9" dy="0.32em" style="fill: black;">30</text></g><g class="tick" opacity="1" transform="translate(0,67.25490196078431)"><line stroke="#000" x2="-6" style="stroke-width: 1; opacity: 1; stroke: black;"></line><text fill="#000" x="-9" dy="0.32em" style="fill: black;">40</text></g><g class="tick" opacity="1" transform="translate(0,6.56862745098033)"><line stroke="#000" x2="-6" style="stroke-width: 1; opacity: 1; stroke: black;"></line><text fill="#000" x="-9" dy="0.32em" style="fill: black;">50</text></g></g><defs><clipPath id="clip"><rect width="673" height="619" x="0" y="0"></rect></clipPath></defs><g clip-path="url(#clip)"><circle cx="406.22522522522524" cy="606.8627450980392" r="3" fill="black"></circle><circle cx="600.2432432432432" cy="291.29411764705884" r="3" fill="black"></circle><circle cx="491.10810810810807" cy="224.53921568627453" r="3" fill="black"></circle><circle cx="212.2072072072072" cy="588.656862745098" r="3" fill="black"></circle><circle cx="291.02702702702703" cy="600.7941176470588" r="3" fill="black"></circle><circle cx="381.97297297297297" cy="200.26470588235293" r="3" fill="black"></circle><circle cx="133.38738738738738" cy="388.3921568627451" r="3" fill="black"></circle><circle cx="418.35135135135135" cy="315.5686274509804" r="3" fill="black"></circle><circle cx="612.3693693693693" cy="303.4313725490196" r="3" fill="black"></circle><circle cx="163.7027027027027" cy="200.26470588235293" r="3" fill="black"></circle><circle cx="36.37837837837838" cy="151.71568627450984" r="3" fill="black"></circle><circle cx="278.90090090090087" cy="157.78431372549016" r="3" fill="black"></circle><circle cx="600.2432432432432" cy="109.23529411764707" r="3" fill="black"></circle><circle cx="60.63063063063063" cy="400.52941176470586" r="3" fill="black"></circle><circle cx="109.13513513513514" cy="497.62745098039215" r="3" fill="black"></circle><circle cx="515.3603603603603" cy="430.87254901960785" r="3" fill="black"></circle><circle cx="248.5855855855856" cy="606.8627450980392" r="3" fill="black"></circle><circle cx="103.07207207207206" cy="18.205882352941217" r="3" fill="black"></circle><circle cx="400.1621621621622" cy="78.89215686274508" r="3" fill="black"></circle><circle cx="466.85585585585585" cy="103.16666666666663" r="3" fill="black"></circle><circle cx="151.57657657657657" cy="370.1862745098039" r="3" fill="black"></circle><circle cx="563.8648648648649" cy="546.1764705882352" r="3" fill="black"></circle><circle cx="369.84684684684686" cy="248.81372549019608" r="3" fill="black"></circle><circle cx="187.95495495495493" cy="339.84313725490193" r="3" fill="black"></circle><circle cx="284.963963963964" cy="182.0588235294117" r="3" fill="black"></circle><circle cx="521.4234234234234" cy="97.0980392156863" r="3" fill="black"></circle><circle cx="539.6126126126127" cy="218.4705882352941" r="3" fill="black"></circle><circle cx="503.23423423423424" cy="30.34313725490199" r="3" fill="black"></circle><circle cx="478.98198198198196" cy="552.2450980392157" r="3" fill="black"></circle><circle cx="400.1621621621622" cy="18.205882352941217" r="3" fill="black"></circle><circle cx="72.75675675675676" cy="133.50980392156862" r="3" fill="black"></circle><circle cx="309.21621621621625" cy="370.1862745098039" r="3" fill="black"></circle><circle cx="48.5045045045045" cy="424.80392156862746" r="3" fill="black"></circle><circle cx="351.65765765765764" cy="163.85294117647055" r="3" fill="black"></circle><circle cx="533.5495495495495" cy="540.1078431372549" r="3" fill="black"></circle><circle cx="491.10810810810807" cy="443.0098039215686" r="3" fill="black"></circle><circle cx="630.5585585585585" cy="6.06862745098033" r="3" fill="black"></circle><circle cx="97.009009009009" cy="430.87254901960785" r="3" fill="black"></circle><circle cx="72.75675675675676" cy="42.48039215686276" r="3" fill="black"></circle><circle cx="127.32432432432434" cy="491.55882352941177" r="3" fill="black"></circle><circle cx="242.5225225225225" cy="552.2450980392157" r="3" fill="black"></circle><circle cx="412.28828828828824" cy="546.1764705882352" r="3" fill="black"></circle><circle cx="181.8918918918919" cy="175.99019607843138" r="3" fill="black"></circle><circle cx="194.018018018018" cy="576.5196078431372" r="3" fill="black"></circle><circle cx="460.7927927927928" cy="169.921568627451" r="3" fill="black"></circle><circle cx="133.38738738738738" cy="388.3921568627451" r="3" fill="black"></circle><circle cx="612.3693693693693" cy="606.8627450980392" r="3" fill="black"></circle><circle cx="557.8018018018017" cy="151.71568627450984" r="3" fill="black"></circle><circle cx="533.5495495495495" cy="606.8627450980392" r="3" fill="black"></circle><circle cx="478.98198198198196" cy="370.1862745098039" r="3" fill="black"></circle><circle cx="588.1171171171171" cy="60.686274509803866" r="3" fill="black"></circle><circle cx="218.2702702702703" cy="127.44117647058829" r="3" fill="black"></circle><circle cx="551.7387387387387" cy="424.80392156862746" r="3" fill="black"></circle><circle cx="97.009009009009" cy="109.23529411764707" r="3" fill="black"></circle><circle cx="218.2702702702703" cy="297.36274509803917" r="3" fill="black"></circle><circle cx="194.018018018018" cy="115.30392156862746" r="3" fill="black"></circle><circle cx="606.3063063063063" cy="418.7352941176471" r="3" fill="black"></circle><circle cx="472.91891891891896" cy="521.9019607843137" r="3" fill="black"></circle><circle cx="206.14414414414412" cy="248.81372549019608" r="3" fill="black"></circle><circle cx="436.5405405405406" cy="546.1764705882352" r="3" fill="black"></circle><circle cx="115.1981981981982" cy="151.71568627450984" r="3" fill="black"></circle><circle cx="503.23423423423424" cy="54.617647058823536" r="3" fill="black"></circle><circle cx="400.1621621621622" cy="606.8627450980392" r="3" fill="black"></circle><circle cx="485.045045045045" cy="66.75490196078431" r="3" fill="black"></circle><circle cx="78.81981981981981" cy="606.8627450980392" r="3" fill="black"></circle><circle cx="515.3603603603603" cy="66.75490196078431" r="3" fill="black"></circle><circle cx="109.13513513513514" cy="91.02941176470586" r="3" fill="black"></circle><circle cx="436.5405405405406" cy="612.9313725490196" r="3" fill="black"></circle><circle cx="466.85585585585585" cy="291.29411764705884" r="3" fill="black"></circle><circle cx="254.64864864864867" cy="97.0980392156863" r="3" fill="black"></circle><circle cx="315.27927927927925" cy="503.69607843137254" r="3" fill="black"></circle><circle cx="515.3603603603603" cy="351.9803921568627" r="3" fill="black"></circle><circle cx="460.7927927927928" cy="285.22549019607845" r="3" fill="black"></circle><circle cx="339.5315315315315" cy="115.30392156862746" r="3" fill="black"></circle><circle cx="478.98198198198196" cy="72.82352941176475" r="3" fill="black"></circle><circle cx="412.28828828828824" cy="327.70588235294116" r="3" fill="black"></circle><circle cx="624.4954954954954" cy="260.95098039215685" r="3" fill="black"></circle><circle cx="600.2432432432432" cy="78.89215686274508" r="3" fill="black"></circle><circle cx="309.21621621621625" cy="103.16666666666663" r="3" fill="black"></circle><circle cx="169.76576576576576" cy="600.7941176470588" r="3" fill="black"></circle><circle cx="327.4054054054054" cy="54.617647058823536" r="3" fill="black"></circle><circle cx="254.64864864864867" cy="109.23529411764707" r="3" fill="black"></circle><circle cx="412.28828828828824" cy="109.23529411764707" r="3" fill="black"></circle><circle cx="97.009009009009" cy="18.205882352941217" r="3" fill="black"></circle><circle cx="151.57657657657657" cy="327.70588235294116" r="3" fill="black"></circle><circle cx="345.5945945945946" cy="491.55882352941177" r="3" fill="black"></circle><circle cx="412.28828828828824" cy="139.578431372549" r="3" fill="black"></circle><circle cx="266.77477477477476" cy="364.11764705882354" r="3" fill="black"></circle><circle cx="291.02702702702703" cy="339.84313725490193" r="3" fill="black"></circle><circle cx="230.3963963963964" cy="333.7745098039216" r="3" fill="black"></circle><circle cx="175.82882882882882" cy="12.137254901960773" r="3" fill="black"></circle><circle cx="303.15315315315314" cy="279.156862745098" r="3" fill="black"></circle><circle cx="72.75675675675676" cy="430.87254901960785" r="3" fill="black"></circle><circle cx="357.72072072072075" cy="236.6764705882353" r="3" fill="black"></circle><circle cx="424.4144144144144" cy="84.96078431372541" r="3" fill="black"></circle><circle cx="545.6756756756757" cy="18.205882352941217" r="3" fill="black"></circle><circle cx="66.69369369369369" cy="267.0196078431373" r="3" fill="black"></circle><circle cx="212.2072072072072" cy="576.5196078431372" r="3" fill="black"></circle><circle cx="90.94594594594595" cy="291.29411764705884" r="3" fill="black"></circle><circle cx="133.38738738738738" cy="194.19607843137254" r="3" fill="black"></circle></g><rect width="673" height="619" style="fill: none; pointer-events: all;"></rect></g></svg>