<?xml version="1.0" encoding="UTF-8" standalone="no"?>
<svg
   version="1.1"
   viewBox="0 0 1202.9659 451.66404"
   fill="none"
   stroke="none"
   stroke-linecap="square"
   stroke-miterlimit="10"
   id="svg165"
   sodipodi:docname="phan-tich-thua-so-nguyen-to.svg"
   width="1202.9658"
   height="451.66403"
   inkscape:version="1.1.1 (eb90963e84, 2021-10-02)"
   xmlns:inkscape="http://www.inkscape.org/namespaces/inkscape"
   xmlns:sodipodi="http://sodipodi.sourceforge.net/DTD/sodipodi-0.dtd"
   xmlns="http://www.w3.org/2000/svg"
   xmlns:svg="http://www.w3.org/2000/svg">
  <defs
     id="defs169" />
  <sodipodi:namedview
     id="namedview167"
     pagecolor="#ffffff"
     bordercolor="#666666"
     borderopacity="1.0"
     inkscape:pageshadow="2"
     inkscape:pageopacity="0.0"
     inkscape:pagecheckerboard="0"
     showgrid="false"
     width="1202.9658px"
     inkscape:zoom="1.0474113"
     inkscape:cx="649.69702"
     inkscape:cy="250.61788"
     inkscape:window-width="1920"
     inkscape:window-height="1016"
     inkscape:window-x="0"
     inkscape:window-y="27"
     inkscape:window-maximized="1"
     inkscape:current-layer="svg165" />
  <clipPath
     id="p.0">
    <path
       d="M 0,0 H 1202.9658 V 451.66403 H 0 Z"
       clip-rule="nonzero"
       id="path2" />
  </clipPath>
  <rect
     style="fill:#ffffff;fill-opacity:1;fill-rule:evenodd;stroke:#000000;stroke-width:0;stroke-miterlimit:10;stroke-dasharray:none"
     id="rect1008"
     width="1202.9658"
     height="451.66403"
     x="0"
     y="0" />
  <g
     clip-path="url(#p.0)"
     id="g163"
     transform="matrix(0.9725148,0,0,1,16,0)">
    <path
       fill="#000000"
       fill-opacity="0"
       d="M 0,0 H 1202.9658 V 451.66403 H 0 Z"
       fill-rule="evenodd"
       id="path5" />
    <path
       fill="#000000"
       fill-opacity="0"
       d="M 185.60892,165.92914 H 73.7979"
       fill-rule="evenodd"
       id="path7" />
    <path
       stroke="#000000"
       stroke-width="8"
       stroke-linejoin="round"
       stroke-linecap="butt"
       d="M 185.60892,165.92914 H 73.7979"
       fill-rule="evenodd"
       id="path9" />
    <path
       fill="#000000"
       fill-opacity="0"
       d="M 73.7979,98.097115 H 185.60892 V 159.23097 H 73.7979 Z"
       fill-rule="evenodd"
       id="path11" />
    <path
       fill="#000000"
       d="m 105.44559,140.40337 v 5.09375 H 86.21122 q 0.3125,-2.89063 1.875,-5.46875 1.5625,-2.59375 6.171875,-6.875 3.703125,-3.45313 4.546875,-4.6875 1.140625,-1.70313 1.140625,-3.35938 0,-1.84375 -1,-2.82813 -0.984375,-0.98437 -2.71875,-0.98437 -1.71875,0 -2.734375,1.04687 -1.015625,1.03125 -1.171875,3.42188 l -5.46875,-0.54688 q 0.484375,-4.53125 3.0625,-6.5 2.578125,-1.96875 6.453125,-1.96875 4.23437,0 6.65625,2.28125 2.42187,2.28125 2.42187,5.6875 0,1.9375 -0.70312,3.68751 -0.6875,1.73437 -2.1875,3.65625 -1,1.26562 -3.59375,3.65625 -2.59375,2.375 -3.296875,3.15625 -0.6875,0.78125 -1.109375,1.53125 z m 22.2461,0 v 5.09375 h -19.23438 q 0.3125,-2.89063 1.875,-5.46875 1.5625,-2.59375 6.17188,-6.875 3.70312,-3.45313 4.54687,-4.6875 1.14063,-1.70313 1.14063,-3.35938 0,-1.84375 -1,-2.82813 -0.98438,-0.98437 -2.71875,-0.98437 -1.71875,0 -2.73438,1.04687 -1.01562,1.03125 -1.17187,3.42188 l -5.46875,-0.54688 q 0.48437,-4.53125 3.0625,-6.5 2.57812,-1.96875 6.45312,-1.96875 4.23438,0 6.65625,2.28125 2.42188,2.28125 2.42188,5.6875 0,1.9375 -0.70313,3.68751 -0.6875,1.73437 -2.1875,3.65625 -1,1.26562 -3.59375,3.65625 -2.59375,2.375 -3.29687,3.15625 -0.6875,0.78125 -1.10938,1.53125 z m 3.79298,-2.26563 5.46875,-0.57812 q 0.23437,1.85937 1.375,2.95312 1.15625,1.07813 2.67187,1.07813 1.71875,0 2.90625,-1.39063 1.1875,-1.40625 1.1875,-4.21875 0,-2.64062 -1.1875,-3.95312 -1.17187,-1.3125 -3.0625,-1.3125 -2.375,0 -4.25,2.07812 l -4.45312,-0.64062 2.8125,-14.90626 h 14.51562 v 5.14063 h -10.34375 l -0.85937,4.85937 q 1.82812,-0.90625 3.75,-0.90625 3.64062,0 6.17187,2.65626 2.54688,2.65625 2.54688,6.89062 0,3.53125 -2.04688,6.3125 -2.79687,3.78125 -7.75,3.78125 -3.96875,0 -6.46875,-2.125 -2.5,-2.125 -2.98437,-5.71875 z m 31.44921,-21.39063 q 4.15625,0 6.5,2.96875 2.79688,3.51563 2.79688,11.65626 0,8.125 -2.8125,11.6875 -2.32813,2.92187 -6.48438,2.92187 -4.1875,0 -6.75,-3.20312 -2.54687,-3.21875 -2.54687,-11.46875 0,-8.07813 2.8125,-11.64063 2.3125,-2.92188 6.48437,-2.92188 z m 0,4.54688 q -1,0 -1.78125,0.64062 -0.78125,0.625 -1.21875,2.26563 -0.5625,2.14062 -0.5625,7.17188 0,5.04687 0.5,6.9375 0.51563,1.875 1.28125,2.5 0.78125,0.625 1.78125,0.625 0.98438,0 1.76563,-0.625 0.78125,-0.64063 1.21875,-2.28125 0.5625,-2.10938 0.5625,-7.15625 0,-5.03126 -0.51563,-6.92188 -0.5,-1.89063 -1.28125,-2.51563 -0.76562,-0.64062 -1.75,-0.64062 z"
       fill-rule="nonzero"
       id="path13" />
    <path
       fill="#000000"
       fill-opacity="0"
       d="m 108.08137,165.92914 h 43.24409 v 61.13385 h -43.24409 z"
       fill-rule="evenodd"
       id="path15" />
    <path
       fill="#000000"
       d="m 138.81474,208.23538 v 5.09375 h -19.23437 q 0.3125,-2.89063 1.875,-5.46875 1.5625,-2.59375 6.17187,-6.875 3.70312,-3.45313 4.54687,-4.6875 1.14063,-1.70313 1.14063,-3.35938 0,-1.84375 -1,-2.82812 -0.98438,-0.98438 -2.71875,-0.98438 -1.71875,0 -2.73437,1.04688 -1.01563,1.03125 -1.17188,3.42187 l -5.46875,-0.54687 q 0.48438,-4.53125 3.0625,-6.5 2.57813,-1.96875 6.45312,-1.96875 4.23438,0 6.65625,2.28125 2.42188,2.28125 2.42188,5.6875 0,1.9375 -0.70313,3.6875 -0.6875,1.73437 -2.1875,3.65625 -1,1.26562 -3.59375,3.65625 -2.59375,2.375 -3.29687,3.15625 -0.6875,0.78125 -1.10937,1.53125 z"
       fill-rule="nonzero"
       id="path17" />
    <path
       fill="#000000"
       fill-opacity="0"
       d="M 371.37534,165.92914 H 259.5643"
       fill-rule="evenodd"
       id="path19" />
    <path
       stroke="#000000"
       stroke-width="8"
       stroke-linejoin="round"
       stroke-linecap="butt"
       d="M 371.37534,165.92914 H 259.5643"
       fill-rule="evenodd"
       id="path21" />
    <path
       fill="#000000"
       fill-opacity="0"
       d="M 259.5643,98.097115 H 371.37533 V 159.23097 H 259.5643 Z"
       fill-rule="evenodd"
       id="path23" />
    <path
       fill="#000000"
       d="m 287.83115,145.49712 h -5.5 v -20.68751 q -3,2.8125 -7.07813,4.15626 v -4.96876 q 2.14063,-0.70312 4.65625,-2.67187 2.53125,-1.96875 3.46875,-4.57813 h 4.45313 z m 20.03906,0 h -5.5 v -20.68751 q -3,2.8125 -7.07812,4.15626 v -4.96876 q 2.14062,-0.70312 4.65625,-2.67187 2.53125,-1.96875 3.46875,-4.57813 h 4.45312 z m 26.73047,-5.09375 v 5.09375 h -19.23437 q 0.3125,-2.89063 1.875,-5.46875 1.5625,-2.59375 6.17187,-6.875 3.70313,-3.45313 4.54688,-4.6875 1.14062,-1.70313 1.14062,-3.35938 0,-1.84375 -1,-2.82813 -0.98437,-0.98437 -2.71875,-0.98437 -1.71875,0 -2.73437,1.04687 -1.01563,1.03125 -1.17188,3.42188 l -5.46875,-0.54688 q 0.48438,-4.53125 3.0625,-6.5 2.57813,-1.96875 6.45313,-1.96875 4.23437,0 6.65625,2.28125 2.42187,2.28125 2.42187,5.6875 0,1.9375 -0.70312,3.68751 -0.6875,1.73437 -2.1875,3.65625 -1,1.26562 -3.59375,3.65625 -2.59375,2.375 -3.29688,3.15625 -0.6875,0.78125 -1.10937,1.53125 z m 3.79297,-2.26563 5.46875,-0.57812 q 0.23437,1.85937 1.375,2.95312 1.15625,1.07813 2.67187,1.07813 1.71875,0 2.90625,-1.39063 1.1875,-1.40625 1.1875,-4.21875 0,-2.64062 -1.1875,-3.95312 -1.17187,-1.3125 -3.0625,-1.3125 -2.375,0 -4.25,2.07812 l -4.45312,-0.64062 2.8125,-14.90626 h 14.51562 v 5.14063 h -10.34375 l -0.85937,4.85937 q 1.82812,-0.90625 3.75,-0.90625 3.64062,0 6.17187,2.65626 2.54688,2.65625 2.54688,6.89062 0,3.53125 -2.04688,6.3125 -2.79687,3.78125 -7.75,3.78125 -3.96875,0 -6.46875,-2.125 -2.5,-2.125 -2.98437,-5.71875 z"
       fill-rule="nonzero"
       id="path25" />
    <path
       fill="#000000"
       fill-opacity="0"
       d="m 293.84778,165.92914 h 43.24408 v 61.13385 h -43.24408 z"
       fill-rule="evenodd"
       id="path27" />
    <path
       fill="#000000"
       d="m 305.84677,205.73538 5.3125,-0.65625 q 0.26562,2.03125 1.375,3.10937 1.10937,1.07813 2.6875,1.07813 1.70312,0 2.85937,-1.28125 1.17188,-1.29688 1.17188,-3.48438 0,-2.07812 -1.125,-3.28125 -1.10938,-1.21875 -2.70313,-1.21875 -1.0625,0 -2.51562,0.42188 l 0.59375,-4.48438 q 2.23437,0.0625 3.40625,-0.95312 1.17187,-1.03125 1.17187,-2.73438 0,-1.4375 -0.85937,-2.29687 -0.85938,-0.85938 -2.28125,-0.85938 -1.40625,0 -2.40625,0.98438 -1,0.96875 -1.21875,2.84375 l -5.04688,-0.85938 q 0.51563,-2.60937 1.57813,-4.15625 1.07812,-1.54687 2.96875,-2.4375 1.90625,-0.89062 4.28125,-0.89062 4.03125,0 6.48437,2.57812 2,2.10938 2,4.76563 0,3.76562 -4.10937,6.01562 2.45312,0.53125 3.92187,2.375 1.48438,1.82813 1.48438,4.42188 0,3.76562 -2.76563,6.42187 -2.75,2.65625 -6.84375,2.65625 -3.89062,0 -6.45312,-2.23437 -2.54688,-2.23438 -2.96875,-5.84375 z"
       fill-rule="nonzero"
       id="path29" />
    <path
       fill="#000000"
       fill-opacity="0"
       d="M 557.1417,165.92914 H 445.33069"
       fill-rule="evenodd"
       id="path31" />
    <path
       stroke="#000000"
       stroke-width="8"
       stroke-linejoin="round"
       stroke-linecap="butt"
       d="M 557.1417,165.92914 H 445.33069"
       fill-rule="evenodd"
       id="path33" />
    <path
       fill="#000000"
       fill-opacity="0"
       d="m 445.33072,98.097115 h 111.811 v 61.133855 h -111.811 z"
       fill-rule="evenodd"
       id="path35" />
    <path
       fill="#000000"
       d="m 469.36707,137.90337 5.3125,-0.65625 q 0.26562,2.03125 1.375,3.10937 1.10937,1.07813 2.6875,1.07813 1.70312,0 2.85937,-1.28125 1.17188,-1.29688 1.17188,-3.48438 0,-2.07812 -1.125,-3.28125 -1.10938,-1.21875 -2.70313,-1.21875 -1.0625,0 -2.51562,0.42188 l 0.59375,-4.48438 q 2.23437,0.0625 3.40625,-0.95313 1.17187,-1.03125 1.17187,-2.73437 0,-1.4375 -0.85937,-2.29688 -0.85938,-0.85937 -2.28125,-0.85937 -1.40625,0 -2.40625,0.98437 -1,0.96875 -1.21875,2.84375 l -5.04688,-0.85937 q 0.51563,-2.60938 1.57813,-4.15625 1.07812,-1.54688 2.96875,-2.4375 1.90625,-0.89063 4.28125,-0.89063 4.03125,0 6.48437,2.57813 2,2.10937 2,4.76562 0,3.76563 -4.10937,6.01563 2.45312,0.53125 3.92187,2.375 1.48438,1.82813 1.48438,4.42188 0,3.76562 -2.76563,6.42187 -2.75,2.65625 -6.84375,2.65625 -3.89062,0 -6.45312,-2.23437 -2.54688,-2.23438 -2.96875,-5.84375 z m 22.44922,-15.54688 v -5.10938 h 18.76562 v 3.98438 q -2.32812,2.29687 -4.73437,6.57812 -2.39063,4.26563 -3.65625,9.07813 -1.25,4.8125 -1.23438,8.60938 h -5.29687 q 0.14062,-5.9375 2.45312,-12.10938 2.3125,-6.17188 6.1875,-11.03125 z m 22.32422,15.78125 5.46875,-0.57812 q 0.23437,1.85937 1.375,2.95312 1.15625,1.07813 2.67187,1.07813 1.71875,0 2.90625,-1.39063 1.1875,-1.40625 1.1875,-4.21875 0,-2.64062 -1.1875,-3.95312 -1.17187,-1.3125 -3.0625,-1.3125 -2.375,0 -4.25,2.07812 l -4.45312,-0.64062 2.8125,-14.90626 h 14.51562 v 5.14063 h -10.34375 l -0.85937,4.85937 q 1.82812,-0.90625 3.75,-0.90625 3.64062,0 6.17187,2.65626 2.54688,2.65625 2.54688,6.89062 0,3.53125 -2.04688,6.3125 -2.79687,3.78125 -7.75,3.78125 -3.96875,0 -6.46875,-2.125 -2.5,-2.125 -2.98437,-5.71875 z"
       fill-rule="nonzero"
       id="path37" />
    <path
       fill="#000000"
       fill-opacity="0"
       d="m 479.61417,165.92914 h 43.24411 v 61.13385 h -43.24411 z"
       fill-rule="evenodd"
       id="path39" />
    <path
       fill="#000000"
       d="m 491.61316,205.73538 5.3125,-0.65625 q 0.26562,2.03125 1.375,3.10937 1.10937,1.07813 2.6875,1.07813 1.70312,0 2.85937,-1.28125 1.17188,-1.29688 1.17188,-3.48438 0,-2.07812 -1.125,-3.28125 -1.10938,-1.21875 -2.70313,-1.21875 -1.0625,0 -2.51562,0.42188 l 0.59375,-4.48438 q 2.23437,0.0625 3.40625,-0.95312 1.17187,-1.03125 1.17187,-2.73438 0,-1.4375 -0.85937,-2.29687 -0.85938,-0.85938 -2.28125,-0.85938 -1.40625,0 -2.40625,0.98438 -1,0.96875 -1.21875,2.84375 l -5.04688,-0.85938 q 0.51563,-2.60937 1.57813,-4.15625 1.07812,-1.54687 2.96875,-2.4375 1.90625,-0.89062 4.28125,-0.89062 4.03125,0 6.48437,2.57812 2,2.10938 2,4.76563 0,3.76562 -4.10937,6.01562 2.45312,0.53125 3.92187,2.375 1.48438,1.82813 1.48438,4.42188 0,3.76562 -2.76563,6.42187 -2.75,2.65625 -6.84375,2.65625 -3.89062,0 -6.45312,-2.23437 -2.54688,-2.23438 -2.96875,-5.84375 z"
       fill-rule="nonzero"
       id="path41" />
    <path
       fill="#000000"
       fill-opacity="0"
       d="M 742.90814,165.92914 H 631.09711"
       fill-rule="evenodd"
       id="path43" />
    <path
       stroke="#000000"
       stroke-width="8"
       stroke-linejoin="round"
       stroke-linecap="butt"
       d="M 742.90814,165.92914 H 631.09711"
       fill-rule="evenodd"
       id="path45" />
    <path
       fill="#000000"
       fill-opacity="0"
       d="M 631.0971,98.097115 H 742.90813 V 159.23097 H 631.0971 Z"
       fill-rule="evenodd"
       id="path47" />
    <path
       fill="#000000"
       d="m 669.3835,145.49712 h -5.5 v -20.68751 q -3,2.8125 -7.07812,4.15626 v -4.96876 q 2.14062,-0.70312 4.65625,-2.67187 2.53125,-1.96875 3.46875,-4.57813 h 4.45312 z m 26.73047,-5.09375 v 5.09375 h -19.23438 q 0.3125,-2.89063 1.875,-5.46875 1.5625,-2.59375 6.17188,-6.875 3.70312,-3.45313 4.54687,-4.6875 1.14063,-1.70313 1.14063,-3.35938 0,-1.84375 -1,-2.82813 -0.98438,-0.98437 -2.71875,-0.98437 -1.71875,0 -2.73438,1.04687 -1.01562,1.03125 -1.17187,3.42188 l -5.46875,-0.54688 q 0.48437,-4.53125 3.0625,-6.5 2.57812,-1.96875 6.45312,-1.96875 4.23438,0 6.65625,2.28125 2.42188,2.28125 2.42188,5.6875 0,1.9375 -0.70313,3.68751 -0.6875,1.73437 -2.1875,3.65625 -1,1.26562 -3.59375,3.65625 -2.59375,2.375 -3.29687,3.15625 -0.6875,0.78125 -1.10938,1.53125 z m 3.79297,-2.26563 5.46875,-0.57812 q 0.23437,1.85937 1.375,2.95312 1.15625,1.07813 2.67187,1.07813 1.71875,0 2.90625,-1.39063 1.1875,-1.40625 1.1875,-4.21875 0,-2.64062 -1.1875,-3.95312 -1.17187,-1.3125 -3.0625,-1.3125 -2.375,0 -4.25,2.07812 l -4.45312,-0.64062 2.8125,-14.90626 h 14.51562 v 5.14063 h -10.34375 l -0.85937,4.85937 q 1.82812,-0.90625 3.75,-0.90625 3.64062,0 6.17187,2.65626 2.54688,2.65625 2.54688,6.89062 0,3.53125 -2.04688,6.3125 -2.79687,3.78125 -7.75,3.78125 -3.96875,0 -6.46875,-2.125 -2.5,-2.125 -2.98437,-5.71875 z"
       fill-rule="nonzero"
       id="path49" />
    <path
       fill="#000000"
       fill-opacity="0"
       d="m 665.38055,165.92914 h 43.24414 v 61.13385 h -43.24414 z"
       fill-rule="evenodd"
       id="path51" />
    <path
       fill="#000000"
       d="m 677.6608,205.96976 5.46875,-0.57813 q 0.23437,1.85938 1.375,2.95313 1.15625,1.07812 2.67187,1.07812 1.71875,0 2.90625,-1.39062 1.1875,-1.40625 1.1875,-4.21875 0,-2.64063 -1.1875,-3.95313 -1.17187,-1.3125 -3.0625,-1.3125 -2.375,0 -4.25,2.07813 l -4.45312,-0.64063 2.8125,-14.90625 h 14.51562 v 5.14063 h -10.34375 l -0.85937,4.85937 q 1.82812,-0.90625 3.75,-0.90625 3.64062,0 6.17187,2.65625 2.54688,2.65625 2.54688,6.89063 0,3.53125 -2.04688,6.3125 -2.79687,3.78125 -7.75,3.78125 -3.96875,0 -6.46875,-2.125 -2.5,-2.125 -2.98437,-5.71875 z"
       fill-rule="nonzero"
       id="path53" />
    <path
       fill="#000000"
       fill-opacity="0"
       d="M 928.67456,165.92914 H 816.86352"
       fill-rule="evenodd"
       id="path55" />
    <path
       stroke="#000000"
       stroke-width="8"
       stroke-linejoin="round"
       stroke-linecap="butt"
       d="M 928.67456,165.92914 H 816.86352"
       fill-rule="evenodd"
       id="path57" />
    <path
       fill="#000000"
       fill-opacity="0"
       d="M 816.8635,98.097115 H 928.67454 V 159.23097 H 816.8635 Z"
       fill-rule="evenodd"
       id="path59" />
    <path
       fill="#000000"
       d="m 870.7573,140.40337 v 5.09375 h -19.23438 q 0.3125,-2.89063 1.875,-5.46875 1.5625,-2.59375 6.17188,-6.875 3.70312,-3.45313 4.54687,-4.6875 1.14063,-1.70313 1.14063,-3.35938 0,-1.84375 -1,-2.82813 -0.98438,-0.98437 -2.71875,-0.98437 -1.71875,0 -2.73438,1.04687 -1.01562,1.03125 -1.17187,3.42188 l -5.46875,-0.54688 q 0.48437,-4.53125 3.0625,-6.5 2.57812,-1.96875 6.45312,-1.96875 4.23438,0 6.65625,2.28125 2.42188,2.28125 2.42188,5.6875 0,1.9375 -0.70313,3.68751 -0.6875,1.73437 -2.1875,3.65625 -1,1.26562 -3.59375,3.65625 -2.59375,2.375 -3.29687,3.15625 -0.6875,0.78125 -1.10938,1.53125 z m 3.79297,-2.26563 5.46875,-0.57812 q 0.23437,1.85937 1.375,2.95312 1.15625,1.07813 2.67187,1.07813 1.71875,0 2.90625,-1.39063 1.1875,-1.40625 1.1875,-4.21875 0,-2.64062 -1.1875,-3.95312 -1.17187,-1.3125 -3.0625,-1.3125 -2.375,0 -4.25,2.07812 l -4.45312,-0.64062 2.8125,-14.90626 h 14.51562 v 5.14063 h -10.34375 l -0.85937,4.85937 q 1.82812,-0.90625 3.75,-0.90625 3.64062,0 6.17187,2.65626 2.54688,2.65625 2.54688,6.89062 0,3.53125 -2.04688,6.3125 -2.79687,3.78125 -7.75,3.78125 -3.96875,0 -6.46875,-2.125 -2.5,-2.125 -2.98437,-5.71875 z"
       fill-rule="nonzero"
       id="path61" />
    <path
       fill="#000000"
       fill-opacity="0"
       d="m 851.147,165.92914 h 43.24408 v 61.13385 H 851.147 Z"
       fill-rule="evenodd"
       id="path63" />
    <path
       fill="#000000"
       d="m 863.42725,205.96976 5.46875,-0.57813 q 0.23437,1.85938 1.375,2.95313 1.15625,1.07812 2.67187,1.07812 1.71875,0 2.90625,-1.39062 1.1875,-1.40625 1.1875,-4.21875 0,-2.64063 -1.1875,-3.95313 -1.17187,-1.3125 -3.0625,-1.3125 -2.375,0 -4.25,2.07813 l -4.45312,-0.64063 2.8125,-14.90625 h 14.51562 v 5.14063 h -10.34375 l -0.85937,4.85937 q 1.82812,-0.90625 3.75,-0.90625 3.64062,0 6.17187,2.65625 2.54688,2.65625 2.54688,6.89063 0,3.53125 -2.04688,6.3125 -2.79687,3.78125 -7.75,3.78125 -3.96875,0 -6.46875,-2.125 -2.5,-2.125 -2.98437,-5.71875 z"
       fill-rule="nonzero"
       id="path65" />
    <path
       fill="#000000"
       fill-opacity="0"
       d="m 1114.4409,165.92914 h -111.811"
       fill-rule="evenodd"
       id="path67" />
    <path
       stroke="#000000"
       stroke-width="8"
       stroke-linejoin="round"
       stroke-linecap="butt"
       d="m 1114.4409,165.92914 h -111.811"
       fill-rule="evenodd"
       id="path69" />
    <path
       fill="#000000"
       fill-opacity="0"
       d="m 1002.6299,98.097115 h 111.811 v 61.133855 h -111.811 z"
       fill-rule="evenodd"
       id="path71" />
    <path
       fill="#000000"
       d="m 1049.1936,138.13774 5.4688,-0.57813 q 0.2343,1.85938 1.375,2.95313 1.1562,1.07812 2.6718,1.07812 1.7188,0 2.9063,-1.39062 1.1875,-1.40625 1.1875,-4.21875 0,-2.64063 -1.1875,-3.95313 -1.1719,-1.3125 -3.0625,-1.3125 -2.375,0 -4.25,2.07813 l -4.4531,-0.64063 2.8125,-14.90625 h 14.5156 v 5.14062 h -10.3438 l -0.8593,4.85938 q 1.8281,-0.90625 3.75,-0.90625 3.6406,0 6.1718,2.65625 2.5469,2.65625 2.5469,6.89063 0,3.53125 -2.0469,6.3125 -2.7968,3.78125 -7.75,3.78125 -3.9687,0 -6.4687,-2.125 -2.5,-2.125 -2.9844,-5.71875 z"
       fill-rule="nonzero"
       id="path73" />
    <path
       fill="#000000"
       fill-opacity="0"
       d="m 1036.9133,165.92914 h 43.2441 v 61.13385 h -43.2441 z"
       fill-rule="evenodd"
       id="path75" />
    <path
       fill="#000000"
       d="m 1049.1936,205.96976 5.4688,-0.57813 q 0.2343,1.85938 1.375,2.95313 1.1562,1.07812 2.6718,1.07812 1.7188,0 2.9063,-1.39062 1.1875,-1.40625 1.1875,-4.21875 0,-2.64063 -1.1875,-3.95313 -1.1719,-1.3125 -3.0625,-1.3125 -2.375,0 -4.25,2.07813 l -4.4531,-0.64063 2.8125,-14.90625 h 14.5156 v 5.14063 h -10.3438 l -0.8593,4.85937 q 1.8281,-0.90625 3.75,-0.90625 3.6406,0 6.1718,2.65625 2.5469,2.65625 2.5469,6.89063 0,3.53125 -2.0469,6.3125 -2.7968,3.78125 -7.75,3.78125 -3.9687,0 -6.4687,-2.125 -2.5,-2.125 -2.9844,-5.71875 z"
       fill-rule="nonzero"
       id="path77" />
    <path
       fill="#000000"
       fill-opacity="0"
       d="m 1172.3964,132.95276 h 43.244 v 65.95276 h -43.244 z"
       fill-rule="evenodd"
       id="path79" />
    <path
       fill="#000000"
       d="m 1198.6454,180.35275 h -5.5 v -20.6875 q -3,2.8125 -7.0781,4.15625 v -4.96875 q 2.1406,-0.70313 4.6562,-2.67188 2.5313,-1.96875 3.4688,-4.57812 h 4.4531 z"
       fill-rule="nonzero"
       id="path81" />
    <path
       fill="#000000"
       d="m 205.57874,160.1811 h 22.51968 v -5.74803 l 11.49607,11.49606 -11.49607,11.49606 v -5.74803 h -22.51968 z"
       fill-rule="evenodd"
       id="path83" />
    <path
       stroke="#000000"
       stroke-width="1"
       stroke-linejoin="round"
       stroke-linecap="butt"
       d="m 205.57874,160.1811 h 22.51968 v -5.74803 l 11.49607,11.49606 -11.49607,11.49606 v -5.74803 h -22.51968 z"
       fill-rule="evenodd"
       id="path85" />
    <path
       fill="#000000"
       d="m 123.95407,233.76115 v 22.5197 h -5.74803 l 11.49606,11.49606 11.49606,-11.49606 h -5.74803 v -22.5197 z"
       fill-rule="evenodd"
       id="path87" />
    <path
       stroke="#000000"
       stroke-width="1"
       stroke-linejoin="round"
       stroke-linecap="butt"
       d="m 123.95407,233.76115 v 22.5197 h -5.74803 l 11.49606,11.49606 11.49606,-11.49606 h -5.74803 v -22.5197 z"
       fill-rule="evenodd"
       id="path89" />
    <path
       fill="#000000"
       d="m 1601.3188,195.83202 h 22.5198 v -5.74803 l 11.4959,11.49606 -11.4959,11.49606 v -5.74803 h -22.5198 z"
       fill-rule="evenodd"
       id="path91" />
    <path
       stroke="#000000"
       stroke-width="1"
       stroke-linejoin="round"
       stroke-linecap="butt"
       d="m 1601.3188,195.83202 h 22.5198 v -5.74803 l 11.4959,11.49606 -11.4959,11.49606 v -5.74803 h -22.5198 z"
       fill-rule="evenodd"
       id="path93" />
    <path
       fill="#000000"
       d="m 1134.4094,160.1811 h 22.5197 v -5.74803 l 11.496,11.49606 -11.496,11.49606 v -5.74803 h -22.5197 z"
       fill-rule="evenodd"
       id="path95" />
    <path
       stroke="#000000"
       stroke-width="1"
       stroke-linejoin="round"
       stroke-linecap="butt"
       d="m 1134.4094,160.1811 h 22.5197 v -5.74803 l 11.496,11.49606 -11.496,11.49606 v -5.74803 h -22.5197 z"
       fill-rule="evenodd"
       id="path97" />
    <path
       fill="#000000"
       d="m 948.64307,160.1811 h 22.51965 v -5.74803 l 11.4961,11.49606 -11.4961,11.49606 v -5.74803 h -22.51965 z"
       fill-rule="evenodd"
       id="path99" />
    <path
       stroke="#000000"
       stroke-width="1"
       stroke-linejoin="round"
       stroke-linecap="butt"
       d="m 948.64307,160.1811 h 22.51965 v -5.74803 l 11.4961,11.49606 -11.4961,11.49606 v -5.74803 h -22.51965 z"
       fill-rule="evenodd"
       id="path101" />
    <path
       fill="#000000"
       d="m 762.87665,160.1811 h 22.51965 v -5.74803 l 11.4961,11.49606 -11.4961,11.49606 v -5.74803 h -22.51965 z"
       fill-rule="evenodd"
       id="path103" />
    <path
       stroke="#000000"
       stroke-width="1"
       stroke-linejoin="round"
       stroke-linecap="butt"
       d="m 762.87665,160.1811 h 22.51965 v -5.74803 l 11.4961,11.49606 -11.4961,11.49606 v -5.74803 h -22.51965 z"
       fill-rule="evenodd"
       id="path105" />
    <path
       fill="#000000"
       d="m 577.1102,160.1811 h 22.51971 v -5.74803 l 11.49604,11.49606 -11.49604,11.49606 v -5.74803 H 577.1102 Z"
       fill-rule="evenodd"
       id="path107" />
    <path
       stroke="#000000"
       stroke-width="1"
       stroke-linejoin="round"
       stroke-linecap="butt"
       d="m 577.1102,160.1811 h 22.51971 v -5.74803 l 11.49604,11.49606 -11.49604,11.49606 v -5.74803 H 577.1102 Z"
       fill-rule="evenodd"
       id="path109" />
    <path
       fill="#000000"
       d="m 391.34384,160.1811 h 22.51968 v -5.74803 l 11.49607,11.49606 -11.49607,11.49606 v -5.74803 h -22.51968 z"
       fill-rule="evenodd"
       id="path111" />
    <path
       stroke="#000000"
       stroke-width="1"
       stroke-linejoin="round"
       stroke-linecap="butt"
       d="m 391.34384,160.1811 h 22.51968 v -5.74803 l 11.49607,11.49606 -11.49607,11.49606 v -5.74803 h -22.51968 z"
       fill-rule="evenodd"
       id="path113" />
    <path
       fill="#000000"
       fill-opacity="0"
       d="M 73.796585,0 H 816.78868 V 69.92126 H 73.796585 Z"
       fill-rule="evenodd"
       id="path115" />
    <path
       fill="#000000"
       d="m 105.63445,42.306248 v 5.09375 H 86.40007 q 0.3125,-2.890625 1.875,-5.46875 1.5625,-2.59375 6.171875,-6.875 3.703125,-3.453125 4.546875,-4.6875 1.14063,-1.703125 1.14063,-3.359375 0,-1.84375 -1.000005,-2.828125 -0.984375,-0.984375 -2.71875,-0.984375 -1.71875,0 -2.734375,1.046875 -1.015625,1.03125 -1.171875,3.421875 l -5.46875,-0.546875 q 0.484375,-4.53125 3.0625,-6.5 2.578125,-1.96875 6.453125,-1.96875 4.23438,0 6.65625,2.28125 2.42188,2.28125 2.42188,5.6875 0,1.9375 -0.70313,3.6875 -0.6875,1.734375 -2.1875,3.65625 -1,1.265625 -3.59375,3.65625 -2.59375,2.375 -3.296875,3.15625 -0.6875,0.78125 -1.109375,1.53125 z m 16,5.09375 V 18.759373 h 5.48437 v 28.640625 z m 15.20703,-14.421875 -4.96875,-0.890625 q 0.82812,-3.015625 2.875,-4.453125 2.0625,-1.453125 6.10937,-1.453125 3.67188,0 5.46875,0.875 1.79688,0.875 2.51563,2.21875 0.73437,1.328125 0.73437,4.90625 l -0.0469,6.40625 q 0,2.734375 0.25,4.03125 0.26562,1.296875 1,2.78125 h -5.4375 q -0.21875,-0.546875 -0.53125,-1.625 -0.125,-0.484375 -0.1875,-0.640625 -1.40625,1.359375 -3.01563,2.046875 -1.59375,0.6875 -3.40625,0.6875 -3.20312,0 -5.0625,-1.734375 -1.84375,-1.75 -1.84375,-4.40625 0,-1.75 0.84375,-3.125 0.84375,-1.375 2.35938,-2.109375 1.51562,-0.734375 4.35937,-1.28125 3.84375,-0.71875 5.32813,-1.34375 v -0.546875 q 0,-1.59375 -0.78125,-2.265625 -0.78125,-0.671875 -2.9375,-0.671875 -1.46875,0 -2.29688,0.578125 -0.8125,0.578125 -1.32812,2.015625 z m 7.34375,4.453125 q -1.04688,0.359375 -3.34375,0.84375 -2.28125,0.484375 -2.98438,0.953125 -1.0625,0.765625 -1.0625,1.9375 0,1.15625 0.85938,2 0.85937,0.828125 2.1875,0.828125 1.48437,0 2.82812,-0.96875 1,-0.75 1.3125,-1.8125 0.20313,-0.703125 0.20313,-2.6875 z m -0.375,-13.3125 h -3.45313 l -5.39062,-5.84375 h 6.14062 z m 42.90625,2.53125 h 5.48437 v 3.9375 q 0,2.421875 -0.42187,3.796875 -0.42188,1.359375 -1.54688,2.421875 -1.75,1.6875 -5.375,2.265625 v 8.328125 h -5.09375 v -3.109375 q -2.45312,3.578125 -6.875,3.578125 -4.59375,0 -6.15625,-3.5 -0.75,-1.65625 -0.75,-4.59375 v -13.125 h 5.5 v 9.53125 q 0,4.109375 0.3125,5.359375 0.20313,0.9375 1.09375,1.5625 0.79688,0.578125 2.03125,0.578125 1.375,0 2.5,-0.75 1.125,-0.765625 1.53125,-1.921875 0.42188,-1.15625 0.42188,-5.609375 v -8.75 h 5.48437 v 10.203125 q 2.71875,-0.546875 3.8125,-2.03125 0.65625,-0.90625 0.70313,-2.671875 h -2.65625 z m 12.71484,10.375 q 0,2.984375 1.45312,4.734375 1.39063,1.640625 3.625,1.640625 2.21875,0 3.59375,-1.640625 1.45313,-1.75 1.45313,-4.765625 0,-2.96875 -1.45313,-4.6875 -1.375,-1.640625 -3.59375,-1.640625 -2.23437,0 -3.625,1.640625 -1.45312,1.734375 -1.45312,4.71875 z m 15.71875,-10.375 h 5.48437 v 3.9375 q 0,2.421875 -0.42187,3.796875 -0.42188,1.359375 -1.54688,2.421875 -1.3125,1.28125 -3.57812,2 -0.48438,3.5 -2.90625,5.953125 -3.04688,3.109375 -7.65625,3.109375 -2.95313,0 -5.4375,-1.296875 -2.625,-1.359375 -3.95313,-3.8125 -1.32812,-2.453125 -1.32812,-6.03125 0,-2.8125 1.34375,-5.28125 1.40625,-2.609375 3.84375,-3.9375 2.4375,-1.328125 5.48437,-1.328125 4.71875,0 7.71875,3.046875 2.71875,2.78125 2.98438,6.859375 2.54687,-1.03125 2.625,-3.9375 h -2.65625 z m -13.42188,-2.53125 2.6875,-5.84375 h 6.15625 l -5.375,5.84375 z m 39.85938,8.671875 -5.40625,0.96875 q -0.26563,-1.609375 -1.23438,-2.421875 -0.96875,-0.828125 -2.51562,-0.828125 -2.04688,0 -3.26563,1.421875 -1.21875,1.40625 -1.21875,4.71875 0,3.703125 1.23438,5.234375 1.23437,1.515625 3.32812,1.515625 1.5625,0 2.5625,-0.890625 1,-0.890625 1.40625,-3.0625 l 5.39063,0.921875 q -0.84375,3.703125 -3.23438,5.609375 -2.375,1.890625 -6.375,1.890625 -4.54687,0 -7.26562,-2.875 -2.70313,-2.875 -2.70313,-7.953125 0,-5.125 2.71875,-7.984375 2.71875,-2.875 7.34375,-2.875 3.79688,0 6.03125,1.640625 2.23438,1.625 3.20313,4.96875 z m 34.14064,14.609375 h -5.48438 v -10.59375 q 0,-3.359375 -0.35937,-4.34375 -0.34375,-0.984375 -1.14063,-1.53125 -0.78125,-0.546875 -1.89062,-0.546875 -1.4375,0 -2.57813,0.78125 -1.125,0.78125 -1.54687,2.078125 -0.40625,1.28125 -0.40625,4.765625 v 9.390625 h -5.5 v -20.75 h 5.10937 v 3.046875 q 2.70313,-3.515625 6.82813,-3.515625 1.8125,0 3.3125,0.65625 1.51562,0.65625 2.28125,1.671875 0.78125,1.015625 1.07812,2.3125 0.29688,1.28125 0.29688,3.6875 z m 5.05859,1.375 6.28125,0.75 q 0.15625,1.09375 0.71875,1.515625 0.78125,0.578125 2.45313,0.578125 2.15625,0 3.23437,-0.640625 0.71875,-0.4375 1.09375,-1.390625 0.25,-0.6875 0.25,-2.515625 v -3.03125 q -2.46875,3.359375 -6.21875,3.359375 -4.17187,0 -6.60937,-3.53125 -1.92188,-2.796875 -1.92188,-6.953125 0,-5.21875 2.5,-7.96875 2.51563,-2.765625 6.25,-2.765625 3.84375,0 6.34375,3.390625 v -2.921875 h 5.14063 v 18.625 q 0,3.671875 -0.60938,5.484375 -0.59375,1.8125 -1.6875,2.84375 -1.09375,1.046875 -2.92187,1.625 -1.82813,0.59375 -4.625,0.59375 -5.26563,0 -7.48438,-1.8125 -2.20312,-1.796875 -2.20312,-4.578125 0,-0.265625 0.0156,-0.65625 z m 4.90625,-12.171875 q 0,3.296875 1.28125,4.828125 1.28125,1.53125 3.15625,1.53125 2.01563,0 3.39063,-1.5625 1.39062,-1.578125 1.39062,-4.671875 0,-3.21875 -1.32812,-4.78125 -1.32813,-1.5625 -3.35938,-1.5625 -1.96875,0 -3.25,1.53125 -1.28125,1.53125 -1.28125,4.6875 z m 33.69922,10.796875 v -3.109375 q -1.14062,1.65625 -2.98437,2.625 -1.84375,0.953125 -3.89063,0.953125 -2.09375,0 -3.76562,-0.921875 -1.65625,-0.921875 -2.40625,-2.578125 -0.73438,-1.65625 -0.73438,-4.59375 v -13.125 h 5.5 v 9.53125 q 0,4.375 0.29688,5.375 0.29687,0.984375 1.09375,1.5625 0.8125,0.5625 2.04687,0.5625 1.40625,0 2.51563,-0.765625 1.10937,-0.765625 1.51562,-1.90625 0.42188,-1.15625 0.42188,-5.609375 v -8.75 h 5.48437 v 20.75 z m 8.1836,-20.75 h 5.82812 l 4.96875,14.734375 4.84375,-14.734375 h 5.6875 l -7.32812,19.96875 -1.3125,3.609375 q -0.71875,1.828125 -1.375,2.78125 -0.65625,0.953125 -1.51563,1.546875 -0.84375,0.59375 -2.07812,0.921875 -1.23438,0.34375 -2.79688,0.34375 -1.59375,0 -3.10937,-0.328125 l -0.48438,-4.296875 q 1.28125,0.25 2.3125,0.25 1.92188,0 2.82813,-1.125 0.92187,-1.125 1.42187,-2.859375 z m 36.85547,14.140625 5.46875,0.921875 q -1.0625,3.015625 -3.34375,4.59375 -2.26563,1.5625 -5.6875,1.5625 -5.40625,0 -8,-3.53125 -2.0625,-2.84375 -2.0625,-7.15625 0,-5.15625 2.6875,-8.078125 2.70312,-2.921875 6.82812,-2.921875 4.625,0 7.29688,3.0625 2.6875,3.0625 2.5625,9.359375 h -13.75 q 0.0625,2.453125 1.32812,3.8125 1.28125,1.34375 3.17188,1.34375 1.28125,0 2.15625,-0.703125 0.89062,-0.703125 1.34375,-2.265625 z m 0.3125,-5.546875 q -0.0625,-2.375 -1.23438,-3.609375 -1.17187,-1.25 -2.85937,-1.25 -1.79688,0 -2.96875,1.3125 -1.17188,1.3125 -1.14063,3.546875 z m -10.84375,-11.203125 4.09375,-5.765625 h 5.07812 l 4.04688,5.765625 h -4.40625 l -2.26563,-2.90625 -2.10937,2.90625 z m 39.62109,23.359375 h -5.48437 v -10.59375 q 0,-3.359375 -0.35938,-4.34375 -0.34375,-0.984375 -1.14062,-1.53125 -0.78125,-0.546875 -1.89063,-0.546875 -1.4375,0 -2.57812,0.78125 -1.125,0.78125 -1.54688,2.078125 -0.40625,1.28125 -0.40625,4.765625 v 9.390625 h -5.5 v -20.75 h 5.10938 v 3.046875 q 2.70312,-3.515625 6.82812,-3.515625 1.8125,0 3.3125,0.65625 1.51563,0.65625 2.28125,1.671875 0.78125,1.015625 1.07813,2.3125 0.29687,1.28125 0.29687,3.6875 z m 26.20313,-20.75 v 4.375 h -3.75 v 8.359375 q 0,2.546875 0.0937,2.96875 0.10937,0.421875 0.48437,0.703125 0.39063,0.265625 0.9375,0.265625 0.76563,0 2.20313,-0.53125 l 0.46875,4.25 q -1.90625,0.828125 -4.32813,0.828125 -1.48437,0 -2.6875,-0.5 -1.1875,-0.5 -1.75,-1.28125 -0.54687,-0.796875 -0.76562,-2.140625 -0.17188,-0.96875 -0.17188,-3.875 v -9.046875 h -2.51562 v -4.375 h 2.51562 v -4.109375 l 5.51563,-3.203125 v 7.3125 z m 2.53906,10.078125 q 0,-2.734375 1.34375,-5.28125 1.34375,-2.5625 3.8125,-3.90625 2.46875,-1.359375 5.51562,-1.359375 4.71875,0 7.71875,3.0625 3.01563,3.0625 3.01563,7.71875 0,4.71875 -3.04688,7.8125 -3.03125,3.09375 -7.64062,3.09375 -2.85938,0 -5.45313,-1.28125 -2.57812,-1.296875 -3.92187,-3.78125 -1.34375,-2.5 -1.34375,-6.078125 z m 5.625,0.296875 q 0,3.09375 1.45312,4.734375 1.46875,1.640625 3.625,1.640625 2.14063,0 3.59375,-1.640625 1.45313,-1.640625 1.45313,-4.765625 0,-3.046875 -1.45313,-4.6875 -1.45312,-1.640625 -3.59375,-1.640625 -2.15625,0 -3.625,1.640625 -1.45312,1.640625 -1.45312,4.71875 z m -1.54688,-12.984375 4.09375,-5.765625 h 5.07813 l 4.04687,5.765625 h -4.40625 l -2.26562,-2.90625 -2.10938,2.90625 z m 4.01563,-6.8125 2.51562,-5.515625 h 6.15625 l -5.1875,5.515625 z m 47.57812,30.171875 h -5.48437 v -10.59375 q 0,-3.359375 -0.35938,-4.34375 -0.34375,-0.984375 -1.14062,-1.53125 -0.78125,-0.546875 -1.89063,-0.546875 -1.4375,0 -2.57812,0.78125 -1.125,0.78125 -1.54688,2.078125 -0.40625,1.28125 -0.40625,4.765625 v 9.390625 h -5.5 v -20.75 h 5.10938 v 3.046875 q 2.70312,-3.515625 6.82812,-3.515625 1.8125,0 3.3125,0.65625 1.51563,0.65625 2.28125,1.671875 0.78125,1.015625 1.07813,2.3125 0.29687,1.28125 0.29687,3.6875 z m 11.04297,-28.640625 v 10.53125 q 2.65625,-3.109375 6.34375,-3.109375 1.89063,0 3.40625,0.703125 1.53125,0.703125 2.29688,1.796875 0.78125,1.09375 1.0625,2.421875 0.28125,1.328125 0.28125,4.125 v 12.171875 h -5.48438 V 36.446873 q 0,-3.265625 -0.3125,-4.140625 -0.3125,-0.890625 -1.10937,-1.40625 -0.78125,-0.515625 -1.96875,-0.515625 -1.375,0 -2.45313,0.671875 -1.0625,0.65625 -1.5625,2 -0.5,1.328125 -0.5,3.953125 v 10.390625 h -5.48437 V 18.759373 Z m 17.69922,17.96875 q 0,-2.734375 1.34375,-5.28125 1.34375,-2.5625 3.8125,-3.90625 2.46875,-1.359375 5.51563,-1.359375 4.71875,0 7.71875,3.0625 3.01562,3.0625 3.01562,7.71875 0,4.71875 -3.04687,7.8125 -3.03125,3.09375 -7.64063,3.09375 -2.85937,0 -5.45312,-1.28125 -2.57813,-1.296875 -3.92188,-3.78125 -1.34375,-2.5 -1.34375,-6.078125 z m 5.625,0.296875 q 0,3.09375 1.45313,4.734375 1.46875,1.640625 3.625,1.640625 2.14062,0 3.59375,-1.640625 1.45312,-1.640625 1.45312,-4.765625 0,-3.046875 -1.45312,-4.6875 -1.45313,-1.640625 -3.59375,-1.640625 -2.15625,0 -3.625,1.640625 -1.45313,1.640625 -1.45313,4.71875 z m 3.95313,-15.0625 q 1.10937,-0.109375 1.42187,-0.203125 1.03125,-0.265625 1.0625,-0.90625 0.0156,-0.453125 -0.54687,-0.765625 -0.82813,-0.4375 -2.60938,-0.4375 -0.59375,0 -1.82812,0.07813 l -0.21875,-2 q 0.76562,-0.15625 2.8125,-0.140625 2.40625,0.03125 3.92187,0.78125 1.6875,0.828125 1.71875,2.296875 0.0781,2.03125 -3.54687,2.46875 v 0.984375 h -2.1875 z m 46.09375,25.4375 h -5.48438 v -10.59375 q 0,-3.359375 -0.35937,-4.34375 -0.34375,-0.984375 -1.14063,-1.53125 -0.78125,-0.546875 -1.89062,-0.546875 -1.4375,0 -2.57813,0.78125 -1.125,0.78125 -1.54687,2.078125 -0.40625,1.28125 -0.40625,4.765625 v 9.390625 h -5.5 v -20.75 h 5.10937 v 3.046875 q 2.70313,-3.515625 6.82813,-3.515625 1.8125,0 3.3125,0.65625 1.51562,0.65625 2.28125,1.671875 0.78125,1.015625 1.07812,2.3125 0.29688,1.28125 0.29688,3.6875 z m 11.04297,-28.640625 v 10.53125 q 2.65625,-3.109375 6.34375,-3.109375 1.89062,0 3.40625,0.703125 1.53125,0.703125 2.29687,1.796875 0.78125,1.09375 1.0625,2.421875 0.28125,1.328125 0.28125,4.125 v 12.171875 h -5.48437 V 36.446873 q 0,-3.265625 -0.3125,-4.140625 -0.3125,-0.890625 -1.10938,-1.40625 -0.78125,-0.515625 -1.96875,-0.515625 -1.375,0 -2.45312,0.671875 -1.0625,0.65625 -1.5625,2 -0.5,1.328125 -0.5,3.953125 V 47.399998 H 567.9079 V 18.759373 Z m 23.05859,14.21875 -4.96875,-0.890625 q 0.82813,-3.015625 2.875,-4.453125 2.0625,-1.453125 6.10938,-1.453125 3.67187,0 5.46875,0.875 1.79687,0.875 2.51562,2.21875 0.73438,1.328125 0.73438,4.90625 l -0.0469,6.40625 q 0,2.734375 0.25,4.03125 0.26563,1.296875 1,2.78125 h -5.4375 q -0.21875,-0.546875 -0.53125,-1.625 -0.125,-0.484375 -0.1875,-0.640625 -1.40625,1.359375 -3.01562,2.046875 -1.59375,0.6875 -3.40625,0.6875 -3.20313,0 -5.0625,-1.734375 -1.84375,-1.75 -1.84375,-4.40625 0,-1.75 0.84375,-3.125 0.84375,-1.375 2.35937,-2.109375 1.51563,-0.734375 4.35938,-1.28125 3.84375,-0.71875 5.32812,-1.34375 v -0.546875 q 0,-1.59375 -0.78125,-2.265625 -0.78125,-0.671875 -2.9375,-0.671875 -1.46875,0 -2.29687,0.578125 -0.8125,0.578125 -1.32813,2.015625 z m 7.34375,4.453125 q -1.04687,0.359375 -3.34375,0.84375 -2.28125,0.484375 -2.98437,0.953125 -1.0625,0.765625 -1.0625,1.9375 0,1.15625 0.85937,2 0.85938,0.828125 2.1875,0.828125 1.48438,0 2.82813,-0.96875 1,-0.75 1.3125,-1.8125 0.20312,-0.703125 0.20312,-2.6875 z m -9.75,-13.390625 4.09375,-5.765625 h 5.07813 l 4.04687,5.765625 h -4.40625 l -2.26562,-2.90625 -2.10938,2.90625 z m 4.01563,-6.8125 2.51562,-5.515625 h 6.15625 l -5.1875,5.515625 z m 26.05859,9.421875 v 4.375 h -3.75 v 8.359375 q 0,2.546875 0.0937,2.96875 0.10937,0.421875 0.48437,0.703125 0.39063,0.265625 0.9375,0.265625 0.76563,0 2.20313,-0.53125 l 0.46875,4.25 q -1.90625,0.828125 -4.32813,0.828125 -1.48437,0 -2.6875,-0.5 -1.1875,-0.5 -1.75,-1.28125 -0.54687,-0.796875 -0.76562,-2.140625 -0.17188,-0.96875 -0.17188,-3.875 v -9.046875 h -2.51562 v -4.375 h 2.51562 v -4.109375 l 5.51563,-3.203125 v 7.3125 z m 32.99609,6.140625 -5.40625,0.96875 q -0.26562,-1.609375 -1.23437,-2.421875 -0.96875,-0.828125 -2.51563,-0.828125 -2.04687,0 -3.26562,1.421875 -1.21875,1.40625 -1.21875,4.71875 0,3.703125 1.23437,5.234375 1.23438,1.515625 3.32813,1.515625 1.5625,0 2.5625,-0.890625 1,-0.890625 1.40625,-3.0625 l 5.39062,0.921875 q -0.84375,3.703125 -3.23437,5.609375 -2.375,1.890625 -6.375,1.890625 -4.54688,0 -7.26563,-2.875 -2.70312,-2.875 -2.70312,-7.953125 0,-5.125 2.71875,-7.984375 2.71875,-2.875 7.34375,-2.875 3.79687,0 6.03125,1.640625 2.23437,1.625 3.20312,4.96875 z m 17.82422,14.609375 v -3.109375 q -1.14062,1.65625 -2.98437,2.625 -1.84375,0.953125 -3.89063,0.953125 -2.09375,0 -3.76562,-0.921875 -1.65625,-0.921875 -2.40625,-2.578125 -0.73438,-1.65625 -0.73438,-4.59375 v -13.125 h 5.5 v 9.53125 q 0,4.375 0.29688,5.375 0.29687,0.984375 1.09375,1.5625 0.8125,0.5625 2.04687,0.5625 1.40625,0 2.51563,-0.765625 1.10937,-0.765625 1.51562,-1.90625 0.42188,-1.15625 0.42188,-5.609375 v -8.75 h 5.48437 v 20.75 z m -5.3125,-25.4375 q 1.10938,-0.109375 1.42188,-0.203125 1.03125,-0.265625 1.0625,-0.90625 0.0156,-0.453125 -0.54688,-0.765625 -0.82812,-0.4375 -2.60937,-0.4375 -0.59375,0 -1.82813,0.07813 l -0.21875,-2 q 0.76563,-0.15625 2.8125,-0.140625 2.40625,0.03125 3.92188,0.78125 1.6875,0.828125 1.71875,2.296875 0.0781,2.03125 -3.54688,2.46875 v 0.984375 h -2.1875 z m 20.1836,11.015625 -4.96875,-0.890625 q 0.82812,-3.015625 2.875,-4.453125 2.0625,-1.453125 6.10937,-1.453125 3.67188,0 5.46875,0.875 1.79688,0.875 2.51563,2.21875 0.73437,1.328125 0.73437,4.90625 l -0.0469,6.40625 q 0,2.734375 0.25,4.03125 0.26562,1.296875 1,2.78125 h -5.4375 q -0.21875,-0.546875 -0.53125,-1.625 -0.125,-0.484375 -0.1875,-0.640625 -1.40625,1.359375 -3.01563,2.046875 -1.59375,0.6875 -3.40625,0.6875 -3.20312,0 -5.0625,-1.734375 -1.84375,-1.75 -1.84375,-4.40625 0,-1.75 0.84375,-3.125 0.84375,-1.375 2.35938,-2.109375 1.51562,-0.734375 4.35937,-1.28125 3.84375,-0.71875 5.32813,-1.34375 v -0.546875 q 0,-1.59375 -0.78125,-2.265625 -0.78125,-0.671875 -2.9375,-0.671875 -1.46875,0 -2.29688,0.578125 -0.8125,0.578125 -1.32812,2.015625 z m 7.34375,4.453125 q -1.04688,0.359375 -3.34375,0.84375 -2.28125,0.484375 -2.98438,0.953125 -1.0625,0.765625 -1.0625,1.9375 0,1.15625 0.85938,2 0.85937,0.828125 2.1875,0.828125 1.48437,0 2.82812,-0.96875 1,-0.75 1.3125,-1.8125 0.20313,-0.703125 0.20313,-2.6875 z m 39.28125,4.875 v 5.09375 h -19.23438 q 0.3125,-2.890625 1.875,-5.46875 1.5625,-2.59375 6.17188,-6.875 3.70312,-3.453125 4.54687,-4.6875 1.14063,-1.703125 1.14063,-3.359375 0,-1.84375 -1,-2.828125 -0.98438,-0.984375 -2.71875,-0.984375 -1.71875,0 -2.73438,1.046875 -1.01562,1.03125 -1.17187,3.421875 l -5.46875,-0.546875 q 0.48437,-4.53125 3.0625,-6.5 2.57812,-1.96875 6.45312,-1.96875 4.23438,0 6.65625,2.28125 2.42188,2.28125 2.42188,5.6875 0,1.9375 -0.70313,3.6875 -0.6875,1.734375 -2.1875,3.65625 -1,1.265625 -3.59375,3.65625 -2.59375,2.375 -3.29687,3.15625 -0.6875,0.78125 -1.10938,1.53125 z m 22.24609,0 v 5.09375 h -19.23437 q 0.3125,-2.890625 1.875,-5.46875 1.5625,-2.59375 6.17187,-6.875 3.70313,-3.453125 4.54688,-4.6875 1.14062,-1.703125 1.14062,-3.359375 0,-1.84375 -1,-2.828125 -0.98437,-0.984375 -2.71875,-0.984375 -1.71875,0 -2.73437,1.046875 -1.01563,1.03125 -1.17188,3.421875 l -5.46875,-0.546875 q 0.48438,-4.53125 3.0625,-6.5 2.57813,-1.96875 6.45313,-1.96875 4.23437,0 6.65625,2.28125 2.42187,2.28125 2.42187,5.6875 0,1.9375 -0.70312,3.6875 -0.6875,1.734375 -2.1875,3.65625 -1,1.265625 -3.59375,3.65625 -2.59375,2.375 -3.29688,3.15625 -0.6875,0.78125 -1.10937,1.53125 z m 3.79297,-2.265625 5.46875,-0.578125 q 0.23437,1.859375 1.375,2.953125 1.15625,1.078125 2.67187,1.078125 1.71875,0 2.90625,-1.390625 1.1875,-1.40625 1.1875,-4.21875 0,-2.640625 -1.1875,-3.953125 -1.17187,-1.3125 -3.0625,-1.3125 -2.375,0 -4.25,2.078125 l -4.45312,-0.640625 2.8125,-14.90625 h 14.51562 v 5.140625 h -10.34375 l -0.85937,4.859375 q 1.82812,-0.90625 3.75,-0.90625 3.64062,0 6.17187,2.65625 2.54688,2.65625 2.54688,6.890625 0,3.53125 -2.04688,6.3125 -2.79687,3.78125 -7.75,3.78125 -3.96875,0 -6.46875,-2.125 -2.5,-2.125 -2.98437,-5.71875 z m 31.44922,-21.390625 q 4.15625,0 6.5,2.96875 2.79687,3.515625 2.79687,11.65625 0,8.125 -2.8125,11.6875 -2.32812,2.921875 -6.48437,2.921875 -4.1875,0 -6.75,-3.203125 -2.54688,-3.21875 -2.54688,-11.46875 0,-8.078125 2.8125,-11.640625 2.3125,-2.921875 6.48438,-2.921875 z m 0,4.546875 q -1,0 -1.78125,0.640625 -0.78125,0.625 -1.21875,2.265625 -0.5625,2.140625 -0.5625,7.171875 0,5.046875 0.5,6.9375 0.51562,1.875 1.28125,2.5 0.78125,0.625 1.78125,0.625 0.98437,0 1.76562,-0.625 0.78125,-0.640625 1.21875,-2.28125 0.5625,-2.109375 0.5625,-7.15625 0,-5.03125 -0.51562,-6.921875 -0.5,-1.890625 -1.28125,-2.515625 -0.76563,-0.640625 -1.75,-0.640625 z"
       fill-rule="nonzero"
       id="path117" />
    <path
       fill="#000000"
       d="m 309.72046,233.76115 v 22.5197 h -5.74802 l 11.49607,11.49606 11.49606,-11.49606 h -5.74805 v -22.5197 z"
       fill-rule="evenodd"
       id="path119" />
    <path
       stroke="#000000"
       stroke-width="1"
       stroke-linejoin="round"
       stroke-linecap="butt"
       d="m 309.72046,233.76115 v 22.5197 h -5.74802 l 11.49607,11.49606 11.49606,-11.49606 h -5.74805 v -22.5197 z"
       fill-rule="evenodd"
       id="path121" />
    <path
       fill="#000000"
       d="m 495.48688,233.76115 v 22.5197 h -5.74805 l 11.49607,11.49606 11.49606,-11.49606 h -5.74802 v -22.5197 z"
       fill-rule="evenodd"
       id="path123" />
    <path
       stroke="#000000"
       stroke-width="1"
       stroke-linejoin="round"
       stroke-linecap="butt"
       d="m 495.48688,233.76115 v 22.5197 h -5.74805 l 11.49607,11.49606 11.49606,-11.49606 h -5.74802 v -22.5197 z"
       fill-rule="evenodd"
       id="path125" />
    <path
       fill="#000000"
       d="m 681.2533,233.76115 v 22.5197 h -5.74805 l 11.4961,11.49606 11.49603,-11.49606 h -5.74805 v -22.5197 z"
       fill-rule="evenodd"
       id="path127" />
    <path
       stroke="#000000"
       stroke-width="1"
       stroke-linejoin="round"
       stroke-linecap="butt"
       d="m 681.2533,233.76115 v 22.5197 h -5.74805 l 11.4961,11.49606 11.49603,-11.49606 h -5.74805 v -22.5197 z"
       fill-rule="evenodd"
       id="path129" />
    <path
       fill="#000000"
       d="m 867.0197,233.76115 v 22.5197 h -5.74805 l 11.49604,11.49606 11.49609,-11.49606 h -5.74805 v -22.5197 z"
       fill-rule="evenodd"
       id="path131" />
    <path
       stroke="#000000"
       stroke-width="1"
       stroke-linejoin="round"
       stroke-linecap="butt"
       d="m 867.0197,233.76115 v 22.5197 h -5.74805 l 11.49604,11.49606 11.49609,-11.49606 h -5.74805 v -22.5197 z"
       fill-rule="evenodd"
       id="path133" />
    <path
       fill="#000000"
       d="m 1052.7861,233.76115 v 22.5197 h -5.748 l 11.496,11.49606 11.496,-11.49606 h -5.748 v -22.5197 z"
       fill-rule="evenodd"
       id="path135" />
    <path
       stroke="#000000"
       stroke-width="1"
       stroke-linejoin="round"
       stroke-linecap="butt"
       d="m 1052.7861,233.76115 v 22.5197 h -5.748 l 11.496,11.49606 11.496,-11.49606 h -5.748 v -22.5197 z"
       fill-rule="evenodd"
       id="path137" />
    <path
       fill="#000000"
       fill-opacity="0"
       d="M 75.80315,274.47507 H 1112.4332 V 395.41996 H 75.80315 Z"
       fill-rule="evenodd"
       id="path139" />
    <path
       fill="#000000"
       d="m 138.37737,316.7813 v 5.09375 H 119.143 q 0.3125,-2.89063 1.875,-5.46875 1.5625,-2.59375 6.17187,-6.875 3.70313,-3.45313 4.54688,-4.6875 1.14062,-1.70313 1.14062,-3.35938 0,-1.84375 -1,-2.82812 -0.98437,-0.98438 -2.71875,-0.98438 -1.71875,0 -2.73437,1.04688 -1.01563,1.03125 -1.17188,3.42187 l -5.46875,-0.54687 q 0.48438,-4.53125 3.0625,-6.5 2.57813,-1.96875 6.45313,-1.96875 4.23437,0 6.65625,2.28125 2.42187,2.28125 2.42187,5.6875 0,1.9375 -0.70312,3.6875 -0.6875,1.73437 -2.1875,3.65625 -1,1.26562 -3.59375,3.65625 -2.59375,2.375 -3.29688,3.15625 -0.6875,0.78125 -1.10937,1.53125 z m 68.92578,5.09375 7.48438,-10.6875 -7.17188,-10.0625 h 6.70313 l 3.67187,5.70312 3.85938,-5.70312 h 6.45312 l -7.03125,9.82812 7.67188,10.92188 h -6.73438 l -4.21875,-6.42188 -4.26562,6.42188 z"
       fill-rule="nonzero"
       id="path141" />
    <path
       fill="#000000"
       d="m 311.643,314.2813 5.3125,-0.65625 q 0.26562,2.03125 1.375,3.10937 1.10937,1.07813 2.6875,1.07813 1.70312,0 2.85937,-1.28125 1.17188,-1.29688 1.17188,-3.48438 0,-2.07812 -1.125,-3.28125 -1.10938,-1.21875 -2.70313,-1.21875 -1.0625,0 -2.51562,0.42188 l 0.59375,-4.48438 q 2.23437,0.0625 3.40625,-0.95312 1.17187,-1.03125 1.17187,-2.73438 0,-1.4375 -0.85937,-2.29687 -0.85938,-0.85938 -2.28125,-0.85938 -1.40625,0 -2.40625,0.98438 -1,0.96875 -1.21875,2.84375 l -5.04688,-0.85938 q 0.51563,-2.60937 1.57813,-4.15625 1.07812,-1.54687 2.96875,-2.4375 1.90625,-0.89062 4.28125,-0.89062 4.03125,0 6.48437,2.57812 2,2.10938 2,4.76563 0,3.76562 -4.10937,6.01562 2.45312,0.53125 3.92187,2.375 1.48438,1.82813 1.48438,4.42188 0,3.76562 -2.76563,6.42187 -2.75,2.65625 -6.84375,2.65625 -3.89062,0 -6.45312,-2.23437 -2.54688,-2.23438 -2.96875,-5.84375 z m 87.66016,7.59375 7.48437,-10.6875 -7.17187,-10.0625 h 6.70312 l 3.67188,5.70312 3.85937,-5.70312 h 6.45313 l -7.03125,9.82812 7.67187,10.92188 h -6.73437 l -4.21875,-6.42188 -4.26563,6.42188 z"
       fill-rule="nonzero"
       id="path143" />
    <path
       fill="#000000"
       d="m 492.52972,314.2813 5.3125,-0.65625 q 0.26562,2.03125 1.375,3.10937 1.10937,1.07813 2.6875,1.07813 1.70312,0 2.85937,-1.28125 1.17188,-1.29688 1.17188,-3.48438 0,-2.07812 -1.125,-3.28125 -1.10938,-1.21875 -2.70313,-1.21875 -1.0625,0 -2.51562,0.42188 l 0.59375,-4.48438 q 2.23437,0.0625 3.40625,-0.95312 1.17187,-1.03125 1.17187,-2.73438 0,-1.4375 -0.85937,-2.29687 -0.85938,-0.85938 -2.28125,-0.85938 -1.40625,0 -2.40625,0.98438 -1,0.96875 -1.21875,2.84375 l -5.04688,-0.85938 q 0.51563,-2.60937 1.57813,-4.15625 1.07812,-1.54687 2.96875,-2.4375 1.90625,-0.89062 4.28125,-0.89062 4.03125,0 6.48437,2.57812 2,2.10938 2,4.76563 0,3.76562 -4.10937,6.01562 2.45312,0.53125 3.92187,2.375 1.48438,1.82813 1.48438,4.42188 0,3.76562 -2.76563,6.42187 -2.75,2.65625 -6.84375,2.65625 -3.89062,0 -6.45312,-2.23437 -2.54688,-2.23438 -2.96875,-5.84375 z"
       fill-rule="nonzero"
       id="path145" />
    <path
       fill="#000000"
       d="m 587.2641,321.87506 7.48437,-10.6875 -7.17187,-10.0625 h 6.70312 l 3.67188,5.70313 3.85937,-5.70313 h 6.45313 l -7.03125,9.82813 7.67187,10.92187 h -6.73437 l -4.21875,-6.42187 -4.26563,6.42187 z"
       fill-rule="nonzero"
       id="path147" />
    <path
       fill="#000000"
       d="m 681.2641,314.5157 5.46875,-0.57813 q 0.23437,1.85938 1.375,2.95313 1.15625,1.07812 2.67187,1.07812 1.71875,0 2.90625,-1.39062 1.1875,-1.40625 1.1875,-4.21875 0,-2.64063 -1.1875,-3.95313 -1.17187,-1.3125 -3.0625,-1.3125 -2.375,0 -4.25,2.07813 l -4.45312,-0.64063 2.8125,-14.90625 h 14.51562 v 5.14063 h -10.34375 l -0.85937,4.85937 q 1.82812,-0.90625 3.75,-0.90625 3.64062,0 6.17187,2.65625 2.54688,2.65625 2.54688,6.89063 0,3.53125 -2.04688,6.3125 -2.79687,3.78125 -7.75,3.78125 -3.96875,0 -6.46875,-2.125 -2.5,-2.125 -2.98437,-5.71875 z m 98.49219,7.35937 7.48438,-10.6875 -7.17188,-10.0625 h 6.70313 l 3.67187,5.70313 3.85938,-5.70313 h 6.45312 l -7.03125,9.82813 7.67188,10.92187 h -6.73438 l -4.21875,-6.42187 -4.26562,6.42187 z m 79.35938,-7.35937 5.46875,-0.57813 q 0.23437,1.85938 1.375,2.95313 1.15625,1.07812 2.67187,1.07812 1.71875,0 2.90625,-1.39062 1.1875,-1.40625 1.1875,-4.21875 0,-2.64063 -1.1875,-3.95313 -1.17187,-1.3125 -3.0625,-1.3125 -2.375,0 -4.25,2.07813 l -4.45312,-0.64063 2.8125,-14.90625 h 14.51562 v 5.14063 h -10.34375 l -0.85937,4.85937 q 1.82812,-0.90625 3.75,-0.90625 3.64062,0 6.17187,2.65625 2.54688,2.65625 2.54688,6.89063 0,3.53125 -2.04688,6.3125 -2.79687,3.78125 -7.75,3.78125 -3.96875,0 -6.46875,-2.125 -2.5,-2.125 -2.98437,-5.71875 z m 109.60546,7.35937 7.48438,-10.6875 -7.17188,-10.0625 h 6.70313 l 3.67187,5.70313 3.85938,-5.70313 h 6.45312 l -7.03125,9.82813 7.67188,10.92187 h -6.73438 l -4.21875,-6.42187 -4.26562,6.42187 z m 79.35927,-7.35937 5.4688,-0.57813 q 0.2344,1.85938 1.375,2.95313 1.1562,1.07812 2.6719,1.07812 1.7187,0 2.9062,-1.39062 1.1875,-1.40625 1.1875,-4.21875 0,-2.64063 -1.1875,-3.95313 -1.1719,-1.3125 -3.0625,-1.3125 -2.375,0 -4.25,2.07813 l -4.4531,-0.64063 2.8125,-14.90625 h 14.5156 v 5.14063 h -10.3437 l -0.8594,4.85937 q 1.8281,-0.90625 3.75,-0.90625 3.6406,0 6.1719,2.65625 2.5468,2.65625 2.5468,6.89063 0,3.53125 -2.0468,6.3125 -2.7969,3.78125 -7.75,3.78125 -3.9688,0 -6.4688,-2.125 -2.5,-2.125 -2.9844,-5.71875 z"
       fill-rule="nonzero"
       id="path149" />
    <path
       fill="#000000"
       d="m 73.79753,406.38977 h 64.53543 v -13.02362 l 26.04724,26.04724 -26.04724,26.04724 V 432.43701 H 73.79753 Z"
       fill-rule="evenodd"
       id="path151" />
    <path
       stroke="#000000"
       stroke-width="1"
       stroke-linejoin="round"
       stroke-linecap="butt"
       d="m 73.79753,406.38977 h 64.53543 v -13.02362 l 26.04724,26.04724 -26.04724,26.04724 V 432.43701 H 73.79753 Z"
       fill-rule="evenodd"
       id="path153" />
    <path
       fill="#000000"
       fill-opacity="0"
       d="m 199.49081,386.437 h 465.88974 v 65.95276 H 199.49081 Z"
       fill-rule="evenodd"
       id="path155" />
    <path
       fill="#000000"
       d="m 239.13492,428.74326 v 5.09375 h -19.23438 q 0.3125,-2.89062 1.875,-5.46875 1.5625,-2.59375 6.17188,-6.875 3.70312,-3.45312 4.54687,-4.6875 1.14063,-1.70312 1.14063,-3.35937 0,-1.84375 -1,-2.82813 -0.98438,-0.98437 -2.71875,-0.98437 -1.71875,0 -2.73438,1.04687 -1.01562,1.03125 -1.17187,3.42188 l -5.46875,-0.54688 q 0.48437,-4.53125 3.0625,-6.5 2.57812,-1.96875 6.45312,-1.96875 4.23438,0 6.65625,2.28125 2.42188,2.28125 2.42188,5.6875 0,1.9375 -0.70313,3.6875 -0.6875,1.73438 -2.1875,3.65625 -1,1.26563 -3.59375,3.65625 -2.59375,2.375 -3.29687,3.15625 -0.6875,0.78125 -1.10938,1.53125 z m 22.24609,0 v 5.09375 h -19.23437 q 0.3125,-2.89062 1.875,-5.46875 1.5625,-2.59375 6.17187,-6.875 3.70313,-3.45312 4.54688,-4.6875 1.14062,-1.70312 1.14062,-3.35937 0,-1.84375 -1,-2.82813 -0.98437,-0.98437 -2.71875,-0.98437 -1.71875,0 -2.73437,1.04687 -1.01563,1.03125 -1.17188,3.42188 l -5.46875,-0.54688 q 0.48438,-4.53125 3.0625,-6.5 2.57813,-1.96875 6.45313,-1.96875 4.23437,0 6.65625,2.28125 2.42187,2.28125 2.42187,5.6875 0,1.9375 -0.70312,3.6875 -0.6875,1.73438 -2.1875,3.65625 -1,1.26563 -3.59375,3.65625 -2.59375,2.375 -3.29688,3.15625 -0.6875,0.78125 -1.10937,1.53125 z m 3.79297,-2.26562 5.46875,-0.57813 q 0.23438,1.85938 1.375,2.95313 1.15625,1.07812 2.67188,1.07812 1.71875,0 2.90625,-1.39062 1.1875,-1.40625 1.1875,-4.21875 0,-2.64063 -1.1875,-3.95313 -1.17188,-1.3125 -3.0625,-1.3125 -2.375,0 -4.25,2.07813 l -4.45313,-0.64063 2.8125,-14.90625 h 14.51563 v 5.14063 h -10.34375 l -0.85938,4.85937 q 1.82813,-0.90625 3.75,-0.90625 3.64063,0 6.17188,2.65625 2.54687,2.65625 2.54687,6.89063 0,3.53125 -2.04687,6.3125 -2.79688,3.78125 -7.75,3.78125 -3.96875,0 -6.46875,-2.125 -2.5,-2.125 -2.98438,-5.71875 z m 31.44922,-21.39063 q 4.15625,0 6.5,2.96875 2.79688,3.51563 2.79688,11.65625 0,8.125 -2.8125,11.6875 -2.32813,2.92188 -6.48438,2.92188 -4.1875,0 -6.75,-3.20313 -2.54687,-3.21875 -2.54687,-11.46875 0,-8.07812 2.8125,-11.64062 2.3125,-2.92188 6.48437,-2.92188 z m 0,4.54688 q -1,0 -1.78125,0.64062 -0.78125,0.625 -1.21875,2.26563 -0.5625,2.14062 -0.5625,7.17187 0,5.04688 0.5,6.9375 0.51563,1.875 1.28125,2.5 0.78125,0.625 1.78125,0.625 0.98438,0 1.76563,-0.625 0.78125,-0.64062 1.21875,-2.28125 0.5625,-2.10937 0.5625,-7.15625 0,-5.03125 -0.51563,-6.92187 -0.5,-1.89063 -1.28125,-2.51563 -0.76562,-0.64062 -1.75,-0.64062 z m 24.03125,8.26562 v -5.04687 h 20.03125 v 5.04687 z m 0,8.67188 v -5.0625 h 20.03125 v 5.0625 z m 53.05078,2.17187 v 5.09375 h -19.23437 q 0.3125,-2.89062 1.875,-5.46875 1.5625,-2.59375 6.17187,-6.875 3.70313,-3.45312 4.54688,-4.6875 1.14062,-1.70312 1.14062,-3.35937 0,-1.84375 -1,-2.82813 -0.98437,-0.98437 -2.71875,-0.98437 -1.71875,0 -2.73437,1.04687 -1.01563,1.03125 -1.17188,3.42188 l -5.46875,-0.54688 q 0.48438,-4.53125 3.0625,-6.5 2.57813,-1.96875 6.45313,-1.96875 4.23437,0 6.65625,2.28125 2.42187,2.28125 2.42187,5.6875 0,1.9375 -0.70312,3.6875 -0.6875,1.73438 -2.1875,3.65625 -1,1.26563 -3.59375,3.65625 -2.59375,2.375 -3.29688,3.15625 -0.6875,0.78125 -1.10937,1.53125 z m 4.26172,-8.42187 7.34375,-15.60938 h 4.35938 l 7.14062,15.60938 h -5.54687 l -3.85938,-9.54688 -3.85937,9.54688 z m 36.85938,13.51562 h -5.5 v -20.6875 q -3,2.8125 -7.07813,4.15625 v -4.96875 q 2.14063,-0.70312 4.65625,-2.67187 2.53125,-1.96875 3.46875,-4.57813 h 4.45313 z m 17.84375,0 7.48437,-10.6875 -7.17187,-10.0625 h 6.70312 l 3.67188,5.70313 3.85937,-5.70313 h 6.45313 l -7.03125,9.82813 7.67187,10.92187 h -6.73437 l -4.21875,-6.42187 -4.26563,6.42187 z m 34.625,-7.59375 5.3125,-0.65625 q 0.26562,2.03125 1.375,3.10938 1.10937,1.07812 2.6875,1.07812 1.70312,0 2.85937,-1.28125 1.17188,-1.29687 1.17188,-3.48437 0,-2.07813 -1.125,-3.28125 -1.10938,-1.21875 -2.70313,-1.21875 -1.0625,0 -2.51562,0.42187 l 0.59375,-4.48437 q 2.23437,0.0625 3.40625,-0.95313 1.17187,-1.03125 1.17187,-2.73437 0,-1.4375 -0.85937,-2.29688 -0.85938,-0.85937 -2.28125,-0.85937 -1.40625,0 -2.40625,0.98437 -1,0.96875 -1.21875,2.84375 l -5.04688,-0.85937 q 0.51563,-2.60938 1.57813,-4.15625 1.07812,-1.54688 2.96875,-2.4375 1.90625,-0.89063 4.28125,-0.89063 4.03125,0 6.48437,2.57813 2,2.10937 2,4.76562 0,3.76563 -4.10937,6.01563 2.45312,0.53125 3.92187,2.375 1.48438,1.82812 1.48438,4.42187 0,3.76563 -2.76563,6.42188 -2.75,2.65625 -6.84375,2.65625 -3.89062,0 -6.45312,-2.23438 -2.54688,-2.23437 -2.96875,-5.84375 z m 22.99609,-5.92187 7.34375,-15.60938 h 4.35937 l 7.14063,15.60938 h -5.54688 l -3.85937,-9.54688 -3.85938,9.54688 z m 41.34372,8.42187 v 5.09375 h -19.23438 q 0.3125,-2.89062 1.875,-5.46875 1.5625,-2.59375 6.17188,-6.875 3.70312,-3.45312 4.54687,-4.6875 1.14063,-1.70312 1.14063,-3.35937 0,-1.84375 -1,-2.82813 -0.98438,-0.98437 -2.71875,-0.98437 -1.71875,0 -2.73438,1.04687 -1.01562,1.03125 -1.17187,3.42188 l -5.46875,-0.54688 q 0.48437,-4.53125 3.0625,-6.5 2.57812,-1.96875 6.45312,-1.96875 4.23438,0 6.65625,2.28125 2.42188,2.28125 2.42188,5.6875 0,1.9375 -0.70313,3.6875 -0.6875,1.73438 -2.1875,3.65625 -1,1.26563 -3.59375,3.65625 -2.59375,2.375 -3.29687,3.15625 -0.6875,0.78125 -1.10938,1.53125 z m 13.35937,5.09375 7.48438,-10.6875 -7.17188,-10.0625 h 6.70313 l 3.67187,5.70313 3.85938,-5.70313 h 6.45312 l -7.03125,9.82813 7.67188,10.92187 h -6.73438 l -4.21875,-6.42187 -4.26562,6.42187 z m 34.90625,-7.35937 5.46875,-0.57813 q 0.23438,1.85938 1.375,2.95313 1.15625,1.07812 2.67188,1.07812 1.71875,0 2.90625,-1.39062 1.1875,-1.40625 1.1875,-4.21875 0,-2.64063 -1.1875,-3.95313 -1.17188,-1.3125 -3.0625,-1.3125 -2.375,0 -4.25,2.07813 l -4.45313,-0.64063 2.8125,-14.90625 h 14.51563 v 5.14063 h -10.34375 l -0.85938,4.85937 q 1.82813,-0.90625 3.75,-0.90625 3.64063,0 6.17188,2.65625 2.54687,2.65625 2.54687,6.89063 0,3.53125 -2.04687,6.3125 -2.79688,3.78125 -7.75,3.78125 -3.96875,0 -6.46875,-2.125 -2.5,-2.125 -2.98438,-5.71875 z m 22.71485,-6.15625 7.34375,-15.60938 h 4.35937 l 7.14063,15.60938 h -5.54688 l -3.85937,-9.54688 -3.85938,9.54688 z m 22.60937,5.92187 5.3125,-0.65625 q 0.26563,2.03125 1.375,3.10938 1.10938,1.07812 2.6875,1.07812 1.70313,0 2.85938,-1.28125 1.17187,-1.29687 1.17187,-3.48437 0,-2.07813 -1.125,-3.28125 -1.10937,-1.21875 -2.70312,-1.21875 -1.0625,0 -2.51563,0.42187 l 0.59375,-4.48437 q 2.23438,0.0625 3.40625,-0.95313 1.17188,-1.03125 1.17188,-2.73437 0,-1.4375 -0.85938,-2.29688 -0.85937,-0.85937 -2.28125,-0.85937 -1.40625,0 -2.40625,0.98437 -1,0.96875 -1.21875,2.84375 l -5.04687,-0.85937 q 0.51562,-2.60938 1.57812,-4.15625 1.07813,-1.54688 2.96875,-2.4375 1.90625,-0.89063 4.28125,-0.89063 4.03125,0 6.48438,2.57813 2,2.10937 2,4.76562 0,3.76563 -4.10938,6.01563 2.45313,0.53125 3.92188,2.375 1.48437,1.82812 1.48437,4.42187 0,3.76563 -2.76562,6.42188 -2.75,2.65625 -6.84375,2.65625 -3.89063,0 -6.45313,-2.23438 -2.54687,-2.23437 -2.96875,-5.84375 z"
       fill-rule="nonzero"
       id="path157" />
    <path
       fill="#000000"
       d="M 53.82677,170.05511 H 23.549213 v 0 C 10.543341,170.05511 0,159.51177 0,146.5059 v -93.44882 0 C 0,46.81144 2.4810705,40.821606 6.8974047,36.40527 11.313739,31.988938 17.303574,29.507866 23.549215,29.507866 H 40.370081 V 22.77952 L 53.826773,36.236214 40.370081,49.692906 V 42.964558 H 23.549215 c -5.573946,0 -10.092521,4.518578 -10.092521,10.092522 v 93.44882 0 c 0,5.57394 4.518574,10.09251 10.092521,10.09251 h 30.277557 z"
       fill-rule="evenodd"
       id="path159" />
    <path
       stroke="#000000"
       stroke-width="1"
       stroke-linejoin="round"
       stroke-linecap="butt"
       d="M 53.82677,170.05511 H 23.549213 v 0 C 10.543341,170.05511 0,159.51177 0,146.5059 v -93.44882 0 C 0,46.81144 2.4810705,40.821606 6.8974047,36.40527 11.313739,31.988938 17.303574,29.507866 23.549215,29.507866 H 40.370081 V 22.77952 L 53.826773,36.236214 40.370081,49.692906 V 42.964558 H 23.549215 c -5.573946,0 -10.092521,4.518578 -10.092521,10.092522 v 93.44882 0 c 0,5.57394 4.518574,10.09251 10.092521,10.09251 h 30.277557 z"
       fill-rule="evenodd"
       id="path161" />
  </g>
</svg>
